<svg width="150" height="250" viewBox="0 0 150 250" id="svg1" xmlns="http://www.w3.org/2000/svg"><g id="layer1"><g id="g1" transform="matrix(1.1668218,0,0,1.1668219,40.375361,55.740492)"><path style="display:inline;fill:#1a1a1a;fill-opacity:1;stroke:none;stroke-width:.747164;stroke-linecap:square;stroke-opacity:1;paint-order:stroke fill markers" id="path95" d="m17.487169-27.50419c-.227086.02096-.460926.0041-.681257.06289-1.764317.471147-3.735927 1.659878-5.189816 2.680759-.839828.589703-1.6843552 1.181883-2.4449687 1.870743-.91995.833163-1.7216314 1.788263-2.582447 2.682395-3.6737145 4.550437-6.68542997 9.570677-8.7521206 15.0486438-.4839085 1.2826386-.9381061 2.5797573-1.2963229 3.9030192-.3467702 1.28096122-.5434501 2.5979021-.8151751 3.8968551-.7664376 5.6509657-.418117 11.4154409 1.6063364 16.7866229.3642203.966323.8419759 1.885955 1.2629657 2.828933 1.40452359 2.19493 2.17879898 3.634608 3.9950774 5.54083 1.6282694 1.7089 3.735759 3.314806 5.7544555 4.525291 6.6005673 3.95794 5.1951843 3.24213 10.1920713 5.223498 2.829224.79607 5.712408 1.257392 8.651223.864055 1.922749-.257346 4.269765-.9296 6.062691-1.65448 1.005288-.406435 1.959369-.92954 2.939043-1.394314 3.751364-2.103365 7.014302-4.591187 9.770909-7.909206.661252-.795914 1.316855-1.602526 1.876698-2.472749.588605-.914925 1.039205-1.911598 1.55881-2.867397 1.555731-3.731078 2.353728-7.669165 2.909593-11.654141.461415-3.3078426.669029-5.2819072.639378-8.6216167-.0127-1.36151672-.138939-2.71959279-.208421-4.0793911-.549577-3.763008-.805313-7.8172312-2.835972-11.1547732-.99093-1.628662-1.43107-1.860115-2.80892-3.137299-4.279862-2.893073-8.8118-5.390329-13.826399-6.69666-.59428-.154813-1.199625-.263525-1.799438-.395287-4.633021-.703848-9.327855-.585142-13.994084-.410829-2.22986.187826-4.499821.319413-6.670121.912796-.9248212.252856-1.4247191.479773-2.3071129.831172l4.4456359 2.981724v0c.91441-.356106 1.2772-.524397 2.233002-.785441 2.092345-.571447 4.265521-.800449 6.420355-.972125 4.672195-.22075 9.383067-.271269 14.001737.586834.590312.139855 1.185499.260548 1.770929.419578 1.147346.311661 2.54844.793037 3.646977 1.223176.645957.252926 2.326013 1.367931 1.918464.806564-.571962-.787829-1.685308-.982985-2.467436-1.562721-.587506-.435489 1.254344.752271 1.88151 1.128409 1.431593 1.215409 1.855011 1.409391 2.926341 2.989693 2.207254 3.255888 2.696117 7.3810396 3.328707 11.1585389.09107 1.3557898.245735 2.7088001.273085 4.06736178.06354 3.15934772-.14594 5.43955922-.608401 8.56489602-.392553 2.6527663-.930201 5.4122993-1.754141 7.9733063-.373432 1.160705-.875105 2.276165-1.312659 3.414246-.518163.929264-.97372 1.896319-1.554502 2.787791-.556709.854539-1.195411 1.654876-1.849576 2.437336-2.679186 3.204667-5.981265 5.768203-9.640291 7.764806-2.434635 1.110627-3.302105 1.644285-5.899839 2.289309-4.032749 1.001342-7.562451.74988-11.516752-.421909-.994192-.406476-1.941974-.953367-2.98258-1.219421-.393924-.100714 1.334025.929607.991596.710378C11.717441 33.389993 10.667145 32.759053 9.6950727 32.019689 8.7466034 31.298272 7.8298213 30.526776 6.996251 29.675192c-1.813428-1.85261-2.5701487-3.245306-3.9648358-5.391184C2.6032077 23.358316 2.1229864 22.454949 1.7467928 21.506928.13592483 17.44746-.59291172 12.992249-.47299929 8.6313821c.03485522-1.2679531.20333708-2.5286998.30500375-3.7930515C.08527455 3.5492664.26572598 2.2437309.59182222.9711342 2.0038174-4.5391815 4.5813855-9.8112676 7.9236204-14.403408c.8404928-1.154813 1.7931649-2.223651 2.6897476-3.335477.893276-.846223 1.733903-1.751742 2.679828-2.53867 2.068682-1.72097 5.20752-3.61396 7.953118-3.967055.241095-.03101.486158.0011.729236.0015z"/><path id="path80" style="display:inline;fill:#1a1a1a;fill-opacity:1;stroke:none;stroke-width:.747164;stroke-linecap:square;stroke-opacity:1;paint-order:stroke fill markers" d="m21.185097 35.820276c.172352 5.821764.236377 11.64839.284561 17.472078.115613 12.741243.128743 25.483738.005 38.224981-.049 6.476384-.150002 12.951025-.313018 19.425505l4.768916 2.43049c-.161552-6.58086-.263667-13.16254-.313017-19.745218-.122476-12.739491-.111852-25.480484.005-38.21996.05433-6.511274.127187-13.025093.363235-19.532638H25.661082 23.873366 22.708338h-.617666H21.52657c-.13412.0-.247356-.02087-.341473-.05524z"/><path style="display:inline;fill:#1a1a1a;fill-opacity:1;stroke:none;stroke-width:.747164;stroke-linecap:square;stroke-opacity:1;paint-order:stroke fill markers" id="path81" d="m20.577867 108.38261c-1.588464 6.29164-4.161788 12.28128-6.662324 18.25089-3.27116 7.95396-6.4335828 15.95002-9.4751998 23.99442-1.1464977 3.4163-2.327436 6.81983-3.50687254 10.2246-.33896985 1.10416-.68820952 2.19864-.84992953 3.34426l4.92759467 2.59003v0c.1274289-1.12472.4464271-2.2029.7266885-3.29713 1.0078203-3.47867 2.0758284-6.94118 3.1399139-10.4028 2.8221528-8.12827 5.8542388-16.18306 9.2166958-24.10513 2.622226-5.90843 5.21977-11.84125 7.34416-17.94959z"/><path id="path82" style="fill:#1a1a1a;fill-opacity:1;stroke:none;stroke-width:.747164;stroke-linecap:square;stroke-opacity:1;paint-order:stroke fill markers" d="m21.309915 107.13006c-41e-5.002-.0013.003-.0017.005-918e-6.005-.0023.0101-.0033.0151-.007.0349-.01254.069-.02009.10378-.0064.0319-.01188.0633-.01674.0954v.002.002.002.002c71e-6.001 16e-6.003.0.003v.002c-172e-6.0118-.0021.0234-.0033.0351-.0044.0308-.0088.0629-.01339.0937v.005c7e-6.0235-5e-6.0468.0.0703 3e-6.0194-3e-6.0375.0.0569l.0017.002h.0017v.002.002c-181e-6.001-.0014.005-.0017.007v.002.002.002.002.002h-.0017v.002.0117c2e-6.0212-2e-6.0424.0.0636-655e-6.009 879e-6.0305-.0033.0418-235e-6.0266-615e-6.0521-.0017.0787-.0021.0387-.0052.0785-.0084.11717v.005c-1e-6.004 5e-6.006.0.01v.002.002c-171e-6.11297 636e-6.22682.0.3398-771e-6.10787-.0019.21527-.0067.32306-.0046.0479-423e-6.0671-.07532.0904.453537 1.04793.891655 2.10235 1.349151 3.14857 1.888145 4.31792 3.792193 8.62078 5.622578 12.96424 4.392359 11.24949 8.853672 22.47204 13.201927 33.73881 1.639476 4.28572.86318 2.27465 2.325026 6.0377l4.66679 2.15429c-1.652791-3.83922-.783115-1.7878-2.604564-6.16157-4.626554-11.21378-9.2015-22.44853-13.397772-33.83255-.696503-1.78684-1.37681-3.58081-2.089008-5.36145-1.667872-4.17004-3.51377-8.26915-4.981481-12.51731z"/><path id="path88" style="fill:#1a1a1a;fill-opacity:1;stroke:none;stroke-width:.747164;stroke-linecap:square;stroke-opacity:1;paint-order:stroke fill markers" d="m21.175053 51.112947c-.241741.458367-.500817.908633-.724795 1.375939-1.469067 3.065049-2.751593 6.224513-4.112751 9.336965-1.650954 3.775097-2.735871 6.124962-4.464268 9.92785C7.5039182 81.0758 2.9126895 90.288339-1.7254537 99.478362c-1.1696038 2.340778-2.4116019 4.645338-3.6407136 6.955018l4.59985332 2.61797c1.11111953-2.37674 2.24512648-4.74214 3.35949988-7.11739 4.4322844-9.301698 8.7487461-18.660374 13.3124571-27.898745 1.559952-3.270787 3.101496-6.549219 4.663462-9.819047 1.600927-3.351384 1.869071-3.908536 3.44152-6.95167.359539-.695804.699295-1.403623 1.093051-2.080647.127341-.218953.269721-.428457.415125-.636079-.001-.01628-.0024-.03232-.0033-.04854-54e-6-.0066 58e-6-.01351.0-.02009-.01814-.01118-.03568-.02311-.05022-.0385h-.0017c-.0051-.01317-.0111-.08361-.01172-.09374-.0041-.06652-.0037-.132602-.005-.199193.0039-.07859-.0076-.159128-.0017-.237693 799e-6-.01057 139e-6-.0213.0017-.0318l.0017.0017h.0017c.0069-.02818.02032-.05178.04854-.077 305e-6-.03082.0012-.06292.0017-.09374 219e-6-.01299-56e-6-.02541.0-.0385z"/><path id="path89" style="fill:#1a1a1a;fill-opacity:1;stroke:none;stroke-width:.747164;stroke-linecap:square;stroke-opacity:1;paint-order:stroke fill markers" d="m62.624734 29.468514c-5.463341 2.629993-10.948882 5.221423-16.445916 7.780215-4.42741 2.079665-7.788748 3.649908-12.20764 5.763184-4.203036 2.01005-8.43969 3.991555-12.453701 6.365783-7e-6.09844-5e-6.19608.0.294603.01352.0052.02652.0098.04017.01339.01825.0843.01528.171999.01506.257779-154e-6.198737 455e-6.397166.0.595903-512e-6.174259-934e-6.347936-.0033.522251v.0017l3.312618 2.053857c.453316-.332122.893278-.683431 1.359194-.997636 7.389401-4.983117 15.616315-8.65014 23.663706-12.408505 5.097311-2.344682 10.250684-4.559397 15.411455-6.759145.01108-.06743.02665-.13451.04017-.200866.04013-.179921.09398-.355915.152324-.530622.02417-.09645.04886-.193294.07365-.289582.0052-.03665.01062-.07233.01674-.108802.0035-.02125.0057-.03699.01172-.05691.003-.0095.0065-.0157.01004-.02009l.0017-.0017.0017-.0017.0017-.0017h.0017l.0017-.0017h.0017.0017.0017c.0065-.02274.01363-.04586.02009-.06863.0033-.02844.0062-.05699.01004-.08537.0028-.01374.0096-.06669.01841-.08704z"/><path style="fill:#1a1a1a;fill-opacity:1;stroke:none;stroke-width:.747164;stroke-linecap:square;stroke-opacity:1;paint-order:stroke fill markers" id="path94" d="m65.473253 33.002461c.217567-1.088335.421046-2.178246.653246-3.264011.186167-.870532.41115-1.732995.575246-2.607959.39655-2.11449 1.202191-7.508999 1.478709-9.311066C69.379608 10.429168 70.74516 3.0516511 72.617113-4.2019376 73.413336-7.2871554 74.084245-9.3741651 75-12.367489l-3.744064-2.034529v0c-1.073544 4.5016623-2.176822 9.0004966-3.112575 13.53348379-.5381 2.60667011-1.64155 8.64235831-2.138971 11.18972221-.372772 1.908994-.768149 3.813505-1.152217 5.720254-.924826 3.831557-1.786871 7.586708-3.103613 11.305925-.205086.579277-.453567 1.142295-.673745 1.715998-.485971 1.266171-.124253.437487-.514139 1.299151z"/></g></g></svg>