<?xml version="1.0" encoding="UTF-8" standalone="no"?>
<!-- Created with Inkscape (http://www.inkscape.org/) -->

<svg
   width="426"
   height="150"
   viewBox="0 0 112.7125 39.687498"
   version="1.1"
   id="svg1"
   xmlns="http://www.w3.org/2000/svg"
   xmlns:svg="http://www.w3.org/2000/svg">
  <defs
     id="defs1" />
  <g
     id="layer1">
    <g
       id="g19"
       transform="translate(-3.755287,12.474443)">
      <g
         id="g9">
        <rect
           style="fill:#d7f2c9;fill-opacity:1;stroke:#000000;stroke-width:0.529167;stroke-linecap:square;stroke-dasharray:none;stroke-opacity:1;paint-order:markers fill stroke"
           id="obj-id-box"
           width="12"
           height="12"
           x="5.5312557"
           y="4.5833335" />
        <path
           d="M 12.247395,9.9783195 V 10.383308 H 10.815117 V 9.9783195 c 0,-0.3704168 0.01975,-0.7260168 0.05927,-0.987778 l -0.0049,-0.014817 c 0,0 -0.237067,0.014817 -0.409928,0.014817 -0.167923,0 -0.404989,-0.014817 -0.404989,-0.014817 l -0.0099,0.014817 c 0.03951,0.2815167 0.05927,0.6173612 0.05927,0.987778 v 1.2100285 c 0,0.370416 -0.01976,0.721077 -0.05927,0.987778 l 0.0049,0.01482 c 0,0 0.237067,-0.01482 0.409928,-0.01482 0.167922,0 0.404989,0.01482 0.404989,0.01482 l 0.0099,-0.01482 c -0.03951,-0.281517 -0.05927,-0.617362 -0.05927,-0.987778 v -0.548217 h 1.432278 v 0.548217 c 0,0.370416 -0.01976,0.721077 -0.05927,0.987778 l 0.0049,0.01482 c 0,0 0.237067,-0.01482 0.409928,-0.01482 0.167922,0 0.404989,0.01482 0.404989,0.01482 l 0.0099,-0.01482 c -0.03951,-0.281517 -0.05927,-0.617362 -0.05927,-0.987778 V 9.9783195 c 0,-0.3704168 0.01976,-0.7260168 0.05927,-0.987778 l -0.0049,-0.014817 c 0,0 -0.237067,0.014817 -0.409928,0.014817 -0.167922,0 -0.404989,-0.014817 -0.404989,-0.014817 l -0.0099,0.014817 c 0.03951,0.2815167 0.05927,0.6173612 0.05927,0.987778 z"
           id="text1"
           style="font-weight:bold;font-size:4.93889px;font-family:'Libertinus Sans';-inkscape-font-specification:'Libertinus Sans Bold';text-align:center;text-anchor:middle;stroke-width:0.529167;stroke-linecap:round;stroke-linejoin:round;paint-order:markers fill stroke"
           aria-label="H" />
      </g>
      <g
         id="g10">
        <rect
           style="fill:#d7f2c9;fill-opacity:1;stroke:#000000;stroke-width:0.529167;stroke-linecap:square;stroke-dasharray:none;stroke-opacity:1;paint-order:markers fill stroke"
           id="obj-id-box-2"
           width="12"
           height="12"
           x="17.531256"
           y="4.5833335" />
        <path
           d="m 23.155902,11.188348 v -0.548217 c 0.237066,0 0.829733,0.01482 1.170517,0.04939 l 0.01482,-0.01482 c -0.0099,-0.04445 -0.01482,-0.143228 -0.01482,-0.187678 0,-0.04445 0.0049,-0.138289 0.01482,-0.182739 l -0.01482,-0.01482 c -0.291395,0.02469 -0.587728,0.04939 -1.170517,0.04939 V 9.9783195 c 0,-0.083961 0.0049,-0.5334001 0.03951,-0.6519335 0.661811,0 1.412522,0.059267 1.412522,0.059267 l 0.0099,-0.019756 c -0.0049,-0.039511 -0.0099,-0.1580445 -0.0099,-0.2024945 0,-0.039511 0.0049,-0.1037167 0.0099,-0.1728611 l -0.0099,-0.014817 c -0.07902,0.00988 -0.192616,0.014817 -0.296333,0.014817 h -1.501423 c -0.167922,0 -0.414866,-0.014817 -0.414866,-0.014817 l -0.0099,0.014817 c 0.03951,0.2815167 0.05927,0.6173612 0.05927,0.987778 v 1.2100286 c 0,0.370416 -0.01975,0.721077 -0.05927,0.987778 l 0.0049,0.01482 c 0,0 0.246944,-0.01482 0.419805,-0.01482 h 1.550812 c 0.103716,0 0.217311,0.0049 0.296333,0.01482 l 0.0099,-0.01482 c -0.0049,-0.06421 -0.0099,-0.128412 -0.0099,-0.177801 0,-0.04939 0.0049,-0.232127 0.0099,-0.271638 l -0.0099,-0.01976 c 0,0 -0.8001,0.108656 -1.461911,0.108656 -0.03457,-0.118534 -0.03951,-0.543278 -0.03951,-0.627239 z"
           id="text1-9"
           style="font-weight:bold;font-size:4.93889px;font-family:'Libertinus Sans';-inkscape-font-specification:'Libertinus Sans Bold';text-align:center;text-anchor:middle;stroke-width:0.529167;stroke-linecap:round;stroke-linejoin:round;paint-order:markers fill stroke"
           aria-label="E" />
      </g>
      <g
         id="g11">
        <rect
           style="fill:#d7f2c9;fill-opacity:1;stroke:#000000;stroke-width:0.529167;stroke-linecap:square;stroke-dasharray:none;stroke-opacity:1;paint-order:markers fill stroke"
           id="obj-id-box-2-6"
           width="12"
           height="12"
           x="29.531252"
           y="4.5833335" />
        <path
           d="M 35.143557,11.138959 V 9.9783195 c 0,-0.3704168 0.0099,-0.7260168 0.04939,-0.987778 l -0.0049,-0.014817 c 0,0 -0.237067,0.014817 -0.409928,0.014817 -0.167922,0 -0.390173,-0.014817 -0.390173,-0.014817 l -0.0099,0.014817 c 0.03951,0.2815167 0.05433,0.6173612 0.05433,0.987778 v 1.2100285 c 0,0.370416 -0.0099,0.721077 -0.04939,0.987778 l 0.0049,0.01482 c 0,0 0.242006,-0.01482 0.409928,-0.01482 h 1.501423 c 0.103717,0 0.217311,0.0049 0.296333,0.01482 l 0.0099,-0.01482 c -0.0049,-0.06915 -0.0099,-0.158045 -0.0099,-0.207434 0,-0.04939 0.0049,-0.242005 0.0099,-0.281517 l -0.0099,-0.01975 c 0,0 -0.750711,0.108655 -1.412522,0.108655 -0.03457,-0.118533 -0.03951,-0.553155 -0.03951,-0.637116 z"
           id="text1-1"
           style="font-weight:bold;font-size:4.93889px;font-family:'Libertinus Sans';-inkscape-font-specification:'Libertinus Sans Bold';text-align:center;text-anchor:middle;stroke-width:0.529167;stroke-linecap:round;stroke-linejoin:round;paint-order:markers fill stroke"
           aria-label="L" />
      </g>
      <g
         id="g12">
        <rect
           style="fill:#d7f2c9;fill-opacity:1;stroke:#000000;stroke-width:0.529167;stroke-linecap:square;stroke-dasharray:none;stroke-opacity:1;paint-order:markers fill stroke"
           id="obj-id-box-2-7"
           width="12"
           height="12"
           x="41.531254"
           y="4.5833335" />
        <path
           d="M 47.143557,11.138959 V 9.9783195 c 0,-0.3704168 0.0099,-0.7260168 0.04939,-0.987778 l -0.0049,-0.014817 c 0,0 -0.237067,0.014817 -0.409928,0.014817 -0.167922,0 -0.390173,-0.014817 -0.390173,-0.014817 l -0.0099,0.014817 c 0.03951,0.2815167 0.05433,0.6173612 0.05433,0.987778 v 1.2100285 c 0,0.370416 -0.0099,0.721077 -0.04939,0.987778 l 0.0049,0.01482 c 0,0 0.242006,-0.01482 0.409928,-0.01482 h 1.501423 c 0.103717,0 0.217311,0.0049 0.296333,0.01482 l 0.0099,-0.01482 c -0.0049,-0.06915 -0.0099,-0.158045 -0.0099,-0.207434 0,-0.04939 0.0049,-0.242005 0.0099,-0.281517 l -0.0099,-0.01975 c 0,0 -0.750711,0.108655 -1.412522,0.108655 -0.03457,-0.118533 -0.03951,-0.553155 -0.03951,-0.637116 z"
           id="text1-1-6"
           style="font-weight:bold;font-size:4.93889px;font-family:'Libertinus Sans';-inkscape-font-specification:'Libertinus Sans Bold';text-align:center;text-anchor:middle;stroke-width:0.529167;stroke-linecap:round;stroke-linejoin:round;paint-order:markers fill stroke"
           aria-label="L" />
      </g>
      <g
         id="g13">
        <rect
           style="fill:#d7f2c9;fill-opacity:1;stroke:#000000;stroke-width:0.529167;stroke-linecap:square;stroke-dasharray:none;stroke-opacity:1;paint-order:markers fill stroke"
           id="obj-id-box-2-3"
           width="12"
           height="12"
           x="53.531254"
           y="4.5833335" />
        <path
           d="m 61.247519,10.558641 c 0,-0.9779004 -0.676628,-1.624895 -1.728612,-1.624895 -1.002595,0 -1.703917,0.7507112 -1.703917,1.718734 0,0.928511 0.730956,1.580444 1.708856,1.580444 1.056922,0 1.723673,-0.686505 1.723673,-1.674283 z M 59.454702,9.2053849 c 0.696383,0 0.997655,0.4198057 0.997655,1.4470951 0,0.884061 -0.2667,1.308806 -0.829733,1.308806 -0.592667,0 -1.012473,-0.444501 -1.012473,-1.392767 0,-1.0371673 0.370417,-1.3631341 0.844551,-1.3631341 z"
           id="text1-1-3"
           style="font-weight:bold;font-size:4.93889px;font-family:'Libertinus Sans';-inkscape-font-specification:'Libertinus Sans Bold';text-align:center;text-anchor:middle;stroke-width:0.529167;stroke-linecap:round;stroke-linejoin:round;paint-order:markers fill stroke"
           aria-label="O" />
      </g>
      <text
         xml:space="preserve"
         style="font-style:normal;font-variant:normal;font-weight:bold;font-stretch:normal;font-size:3.52777px;font-family:'Libertinus Sans';-inkscape-font-specification:'Libertinus Sans Bold';text-align:center;writing-mode:lr-tb;direction:ltr;text-anchor:middle;fill:#000000;fill-opacity:1;stroke:none;stroke-width:0.264583;stroke-linecap:round;stroke-linejoin:round;stroke-dasharray:none;stroke-opacity:1;paint-order:markers fill stroke"
         x="35.451881"
         y="22.310383"
         id="text20"><tspan
           id="tspan20"
           style="fill:#000000;fill-opacity:1;stroke-width:0.264583"
           x="35.451881"
           y="22.310383">UTF-8 Encoded String</tspan></text>
    </g>
    <g
       id="g14"
       style="display:inline"
       transform="translate(-3.9687499,8.9324641)">
      <rect
         style="fill:#cccccc;fill-opacity:1;stroke:#000000;stroke-width:0.529167;stroke-linecap:square;stroke-dasharray:none;stroke-opacity:1;paint-order:markers fill stroke"
         id="obj-id-box-2-2"
         width="12"
         height="12"
         x="65.744705"
         y="8.1253099" />
      <path
         d="M 70.184022,12.283102 H 69.8383 l 1.135945,3.684412 h 0.345722 z m 2.405238,3.496734 c 0.488951,0 1.131006,-0.390173 1.131006,-1.565628 0,-1.165578 -0.607483,-1.496484 -1.106311,-1.496484 -0.637117,0 -1.135945,0.553156 -1.135945,1.540934 0,0.809978 0.390172,1.521178 1.11125,1.521178 z m 0.0247,-2.839862 c 0.192617,0 0.404989,0.301272 0.404989,1.175456 0,1.185333 -0.227189,1.452033 -0.424745,1.452033 -0.409928,0 -0.409928,-0.814916 -0.409928,-1.239661 0,-0.0049 0,-0.0099 0,-0.01482 0,-1.20015 0.232128,-1.373011 0.429684,-1.373011 z"
         id="text1-1-9"
         style="font-weight:bold;font-size:4.93889px;font-family:'Libertinus Sans';-inkscape-font-specification:'Libertinus Sans Bold';text-align:center;text-anchor:middle;stroke-width:0.529167;stroke-linecap:round;stroke-linejoin:round;paint-order:markers fill stroke"
         aria-label="\0" />
      <g
         id="text20-0"
         style="font-weight:bold;font-size:3.52777px;font-family:'Libertinus Sans';-inkscape-font-specification:'Libertinus Sans Bold';text-align:center;text-anchor:middle;stroke-width:0.264583;stroke-linecap:round;stroke-linejoin:round;paint-order:markers fill stroke"
         aria-label="Null&#10;Terminator">
        <path
           d="m 68.675545,24.282618 -0.01764,0.864304 c -0.01058,0.275166 -0.02822,0.518582 -0.05644,0.705554 l 0.0035,0.01058 c 0,0 0.08114,-0.01058 0.15875,-0.01058 0.08467,0 0.155222,0.01058 0.155222,0.01058 l 0.0071,-0.01058 c -0.02822,-0.201083 -0.02469,-0.430388 -0.02117,-0.705554 l 0.01411,-0.899581 h 0.02117 c 0.462138,0.532693 0.938387,1.093608 1.344081,1.615718 0.05997,-0.0071 0.14111,-0.01058 0.197555,-0.01058 0.05644,0 0.112888,0.0035 0.169333,0.01058 l 0.02117,-1.580441 c 0,-0.264582 0.0071,-0.518582 0.03528,-0.705554 l -0.0071,-0.01058 c 0,0 -0.09525,0.01058 -0.172861,0.01058 -0.08467,0 -0.176389,-0.01058 -0.176389,-0.01058 l -0.0071,0.01058 c 0.02822,0.201083 0.03881,0.440972 0.04586,0.705554 v 0.864304 h -0.01058 c -0.440971,-0.465666 -0.952497,-1.061859 -1.347608,-1.580441 0,0 -0.109361,0.01058 -0.17286,0.01058 -0.08114,0 -0.211667,-0.01058 -0.211667,-0.01058 l -0.0071,0.01058 c 0.02822,0.201083 0.04233,0.440972 0.03528,0.705554 z m 3.594794,1.344081 h 0.0071 l 0.01764,0.225777 c 0,0.0071 0.01058,0.01058 0.03175,0.01058 0.04586,-0.0071 0.151694,-0.01058 0.20461,-0.01058 0.04233,0 0.211667,0.0035 0.257528,0.01058 l 0.0071,-0.01058 c -0.02822,-0.151694 -0.05997,-0.412749 -0.05997,-0.677332 v -0.201083 c 0,-0.264582 0,-0.448026 0.03175,-0.634998 l -0.0035,-0.01058 c 0,0 -0.148166,0.01058 -0.271638,0.01058 -0.119944,0 -0.239888,-0.01058 -0.239888,-0.01058 l -0.0071,0.01058 c 0.02469,0.197555 0.02469,0.366888 0.02469,0.634998 v 0.282222 c 0,0.204611 -0.23636,0.359833 -0.39511,0.359833 -0.105833,0 -0.208138,-0.03528 -0.201083,-0.324555 l 0.0071,-0.3175 c 0.0071,-0.264582 0.01058,-0.455082 0.02822,-0.634998 l -0.0035,-0.01058 c 0,0 -0.141111,0.01058 -0.264583,0.01058 -0.119944,0 -0.246944,-0.01058 -0.246944,-0.01058 l -0.0071,0.01058 c 0.02117,0.201083 0.03175,0.380999 0.02822,0.634998 l -0.0071,0.433916 c -0.0035,0.243416 0.119944,0.479777 0.469193,0.479777 0.144639,0 0.39511,-0.04939 0.592665,-0.261055 z m 1.075969,-0.479777 c 0,0.264583 -0.01058,0.515055 -0.04233,0.705554 l 0.0035,0.01058 c 0,0 0.148166,-0.01058 0.271638,-0.01058 0.119945,0 0.268111,0.01058 0.268111,0.01058 l 0.0071,-0.01058 c -0.02822,-0.201083 -0.04233,-0.440971 -0.04233,-0.705554 v -1.058331 c 0,-0.264583 0.01411,-0.448027 0.04233,-0.663221 0,-0.02469 -0.01764,-0.03528 -0.0388,-0.03528 -0.08819,0.03528 -0.359833,0.105833 -0.504471,0.116416 l -0.0071,0.01058 c 0.02822,0.151694 0.04233,0.395111 0.04233,0.663221 z m 1.072445,0 c 0,0.264583 -0.01058,0.515055 -0.04233,0.705554 l 0.0035,0.01058 c 0,0 0.148167,-0.01058 0.271639,-0.01058 0.119944,0 0.26811,0.01058 0.26811,0.01058 l 0.0071,-0.01058 c -0.02822,-0.201083 -0.04233,-0.440971 -0.04233,-0.705554 v -1.058331 c 0,-0.264583 0.01411,-0.448027 0.04233,-0.663221 0,-0.02469 -0.01764,-0.03528 -0.03881,-0.03528 -0.08819,0.03528 -0.359832,0.105833 -0.504471,0.116416 l -0.0071,0.01058 c 0.02822,0.151694 0.04233,0.395111 0.04233,0.663221 z"
           id="path21" />
        <path
           d="m 63.514418,28.724081 v 0.832554 c 0,0.264582 -0.0071,0.515054 -0.03528,0.705554 l 0.0035,0.01058 c 0,0 0.162278,-0.01058 0.28575,-0.01058 0.119944,0 0.282221,0.01058 0.282221,0.01058 l 0.0071,-0.01058 c -0.02822,-0.201083 -0.03528,-0.440972 -0.03528,-0.705554 v -0.832554 c 0,-0.05997 0.0035,-0.377471 0.02822,-0.462138 0.472722,0 0.719665,0.07761 0.719665,0.07761 l 0.0071,-0.01411 c -0.0071,-0.05292 -0.0071,-0.239888 0,-0.338666 l -0.0071,-0.01058 c -0.05644,0.0071 -0.137583,0.01058 -0.211666,0.01058 h -1.580441 c -0.07408,0 -0.155222,-0.0035 -0.211666,-0.01058 l -0.0071,0.01058 c 0.0071,0.09878 0.0071,0.285749 0,0.338666 l 0.0071,0.01411 c 0,0 0.246944,-0.07761 0.719665,-0.07761 0.0247,0.08467 0.02822,0.402166 0.02822,0.462138 z m 2.674048,1.160636 c -0.162277,0.130528 -0.335138,0.144639 -0.483304,0.144639 -0.172861,0 -0.29986,-0.04586 -0.384527,-0.137583 -0.07761,-0.08467 -0.116416,-0.208139 -0.116416,-0.370416 h 0.352777 c 0.352777,0 0.652637,0.0071 0.652637,0.0071 l 0.02117,-0.02117 c 0,-0.440971 -0.123472,-0.793748 -0.666749,-0.793748 -0.194027,0 -0.405693,0.05997 -0.543276,0.176388 -0.172861,0.141111 -0.289278,0.352777 -0.289278,0.645582 0,0.208138 0.07761,0.42686 0.22225,0.578554 0.119944,0.123472 0.328083,0.183444 0.592665,0.183444 0.254,0 0.507999,-0.08114 0.698499,-0.303388 0,-0.04586 -0.02117,-0.109361 -0.05644,-0.109361 z m -0.970136,-0.52211 c 0.01411,-0.17286 0.05644,-0.296332 0.109361,-0.366888 0.04233,-0.05997 0.112888,-0.105833 0.211666,-0.105833 0.144638,0 0.229305,0.162278 0.229305,0.472721 z m 1.975549,-0.33161 -0.01411,-0.01058 c 0,-0.08114 -0.0035,-0.229305 -0.01058,-0.257528 -0.0035,-0.02469 -0.01058,-0.03528 -0.03175,-0.03528 -0.102306,0.01764 -0.331611,0.01764 -0.455083,0.01058 l -0.0071,0.01058 c 0.02822,0.151694 0.0388,0.419805 0.0388,0.684388 v 0.194027 c 0,0.264583 -0.0071,0.444499 -0.03528,0.634999 l 0.0035,0.01058 c 0,0 0.112889,-0.01058 0.236361,-0.01058 0.119944,0 0.289277,0.01058 0.289277,0.01058 l 0.0071,-0.01058 c -0.02822,-0.201083 -0.03528,-0.366888 -0.03528,-0.634999 v -0.257527 c 0,-0.271638 0.243416,-0.313972 0.296332,-0.313972 0.06703,0 0.141111,0.01764 0.204611,0.06703 l 0.0635,-0.0071 0.07055,-0.36336 -0.01411,-0.01411 c -0.05997,-0.01764 -0.116416,-0.02469 -0.179916,-0.02469 -0.165805,0 -0.335138,0.179916 -0.42686,0.317499 z m 1.453439,0 -0.01411,-0.01058 c 0,-0.08114 -0.0035,-0.229305 -0.01058,-0.257528 -0.0035,-0.02469 -0.01058,-0.03528 -0.03175,-0.03528 -0.102305,0.01764 -0.33161,0.01764 -0.455082,0.01058 l -0.0071,0.01058 c 0.02822,0.151694 0.03881,0.419805 0.03881,0.684388 v 0.194027 c 0,0.264583 -0.01411,0.444499 -0.04233,0.634999 l 0.0035,0.01058 c 0,0 0.148166,-0.01058 0.271638,-0.01058 0.119945,0 0.261055,0.01058 0.261055,0.01058 l 0.0071,-0.01058 c -0.02822,-0.201083 -0.03528,-0.366888 -0.03528,-0.634999 v -0.356305 c 0.148167,-0.179916 0.275166,-0.285749 0.373944,-0.285749 0.134055,0 0.208138,0.04939 0.208138,0.285749 v 0.356305 c 0,0.264583 -0.01411,0.444499 -0.04233,0.634999 l 0.0035,0.01058 c 0,0 0.15875,-0.01058 0.282221,-0.01058 0.119945,0 0.257528,0.01058 0.257528,0.01058 l 0.0071,-0.01058 C 69.69507,30.0611 69.68096,29.895295 69.68096,29.627184 V 29.31674 c 0,-0.04939 0,-0.0635 -0.0035,-0.105833 0.169333,-0.186972 0.246944,-0.225777 0.384527,-0.225777 0.112889,0 0.194027,0.07761 0.194027,0.313971 v 0.328083 c 0,0.264583 -0.01411,0.444499 -0.04233,0.634999 l 0.0035,0.01058 c 0,0 0.15875,-0.01058 0.282222,-0.01058 0.119944,0 0.257527,0.01058 0.257527,0.01058 l 0.0071,-0.01058 c -0.02822,-0.201083 -0.04233,-0.366888 -0.04233,-0.634999 v -0.352777 c 0,-0.352777 -0.123472,-0.560915 -0.504471,-0.560915 -0.176388,0 -0.359833,0.07055 -0.560915,0.282221 -0.07056,-0.176388 -0.165806,-0.282221 -0.483305,-0.282221 -0.172861,0 -0.391582,0.144638 -0.525638,0.317499 z m 2.702273,0.402166 v 0.194027 c 0,0.264583 -0.0071,0.444499 -0.03528,0.634999 l 0.0071,0.01058 c 0.07408,-0.0071 0.137583,-0.01058 0.261055,-0.01058 0.119944,0 0.194027,0.0035 0.261055,0.01058 l 0.0071,-0.01058 c -0.02822,-0.201083 -0.03528,-0.366888 -0.03528,-0.634999 v -0.232833 c 0,-0.264583 0.01411,-0.416277 0.03528,-0.627943 0,-0.02469 -0.01058,-0.03528 -0.03175,-0.03528 -0.04939,0.0071 -0.144639,0.01764 -0.243416,0.01764 -0.09172,0 -0.186972,-0.0071 -0.250472,-0.01058 l -0.01058,0.01411 c 0.02822,0.151694 0.03528,0.416277 0.03528,0.68086 z m -0.01764,-1.312331 c 0,0.134056 0.109361,0.243416 0.250472,0.243416 0.141111,0 0.250472,-0.10936 0.250472,-0.243416 0,-0.134055 -0.109361,-0.243416 -0.250472,-0.243416 -0.141111,0 -0.250472,0.109361 -0.250472,0.243416 z m 2.607023,1.506358 v -0.391582 c 0,-0.370416 -0.17286,-0.52211 -0.49036,-0.52211 -0.179916,0 -0.391582,0.10936 -0.55386,0.317499 l -0.01411,-0.01058 c 0,-0.08114 -0.0035,-0.229305 -0.01058,-0.257528 -0.0035,-0.02469 -0.01058,-0.03528 -0.03175,-0.03528 -0.102305,0.01764 -0.33161,0.01764 -0.455082,0.01058 l -0.0071,0.01058 c 0.02822,0.151694 0.03881,0.419805 0.03881,0.684388 v 0.194027 c 0,0.264583 -0.0071,0.444499 -0.03881,0.634999 l 0.0071,0.01058 c 0,0 0.165805,-0.01058 0.289277,-0.01058 0.119944,0 0.218722,0.01058 0.218722,0.01058 l 0.01058,-0.01058 c -0.01764,-0.201083 -0.02117,-0.366888 -0.02117,-0.634999 v -0.359832 c 0.134056,-0.176389 0.282222,-0.282222 0.409222,-0.282222 0.09525,0 0.183444,0.07055 0.183444,0.328083 v 0.313971 c 0,0.264583 0,0.448027 -0.02117,0.634999 l 0.0071,0.01058 c 0,0 0.112888,-0.01058 0.23636,-0.01058 0.119944,0 0.275166,0.01058 0.275166,0.01058 l 0.0071,-0.01058 c -0.03175,-0.201083 -0.03881,-0.366888 -0.03881,-0.634999 z m 1.852081,0.352777 c 0,-0.102305 0.01411,-0.656165 0.01411,-0.694971 0,-0.211666 -0.04233,-0.342193 -0.141111,-0.430388 -0.112889,-0.102305 -0.324555,-0.14111 -0.493888,-0.14111 -0.254,0 -0.592665,0.112888 -0.677332,0.186971 l -0.01058,0.01411 0.07055,0.264582 0.116417,0.0035 c 0.119944,-0.176388 0.275166,-0.278694 0.433915,-0.278694 0.155222,0 0.243416,0.08819 0.243416,0.359833 0,0.02469 -0.01058,0.0388 -0.02117,0.04233 l -0.412749,0.109361 c -0.338666,0.08114 -0.543277,0.261055 -0.543277,0.500943 0,0.243416 0.236361,0.380999 0.483305,0.380999 0.137583,0 0.324554,-0.04586 0.483304,-0.20461 h 0.0071 c 0.04939,0.144638 0.126999,0.20461 0.278694,0.20461 0.137583,0 0.313971,-0.03528 0.419804,-0.116416 -0.0035,-0.03175 -0.01411,-0.05644 -0.03528,-0.07408 -0.14111,0 -0.215194,-0.01058 -0.215194,-0.127 z m -0.444499,-0.500943 -0.0071,0.328082 c 0,0.04586 -0.02822,0.134056 -0.05292,0.15875 -0.08114,0.08114 -0.162277,0.119944 -0.261055,0.119944 -0.105833,0 -0.183444,-0.105833 -0.183444,-0.201083 0,-0.126999 0.04586,-0.285749 0.22225,-0.33161 z m 1.040695,-0.730249 c -0.07056,0 -0.148167,-0.0035 -0.1905,-0.01058 -0.01764,0.05997 -0.04233,0.116416 -0.07761,0.169333 l 0.01764,0.02469 c 0.05997,-0.0035 0.169333,-0.0071 0.250472,-0.0071 l -0.01058,0.416277 c -0.0035,0.211666 -0.01058,0.504471 -0.01058,0.610304 0,0.165805 0.116417,0.345721 0.342194,0.345721 0.183444,0 0.366888,-0.03175 0.518582,-0.123472 0,-0.05644 -0.02117,-0.10936 -0.05997,-0.134055 -0.07761,0.03881 -0.112889,0.04233 -0.204611,0.04233 -0.09525,0 -0.130527,-0.137583 -0.130527,-0.282221 0,-0.0071 0,-0.01764 0,-0.0247 0,-0.10936 0,-0.275166 0.0035,-0.472721 l 0.0071,-0.377471 h 0.134055 c 0.08467,0 0.208139,0.0035 0.254,0.0071 0.0071,-0.05292 0.02117,-0.112888 0.04233,-0.165805 l -0.01764,-0.02822 c -0.06703,0.0071 -0.165805,0.01058 -0.246944,0.01058 h -0.165805 c 0,-0.197555 0.0035,-0.303388 0.01764,-0.49036 0,-0.02469 -0.01058,-0.03528 -0.03175,-0.03528 -0.08819,0.03528 -0.278694,0.126999 -0.419805,0.158749 l -0.0071,0.01058 c -0.01058,0.09525 -0.01411,0.215194 -0.01411,0.356304 z m 1.07597,0.790221 c 0,0.469193 0.328083,0.75847 0.85372,0.75847 0.539749,0 0.853721,-0.303388 0.853721,-0.79022 0,-0.444499 -0.250472,-0.793748 -0.846665,-0.793748 -0.504471,0 -0.860776,0.278693 -0.860776,0.825498 z m 0.836081,-0.64911 c 0.299861,0 0.370416,0.22225 0.370416,0.71261 0,0.405693 -0.144638,0.518582 -0.303388,0.518582 -0.366888,0 -0.402166,-0.391583 -0.402166,-0.663221 0,-0.306916 0.03175,-0.567971 0.335138,-0.567971 z m 1.809746,0.141111 -0.01411,-0.01058 c 0,-0.08114 -0.0035,-0.229305 -0.01058,-0.257528 -0.0035,-0.02469 -0.01058,-0.03528 -0.03175,-0.03528 -0.102306,0.01764 -0.331611,0.01764 -0.455083,0.01058 l -0.0071,0.01058 c 0.02822,0.151694 0.0388,0.419805 0.0388,0.684388 v 0.194027 c 0,0.264583 -0.0071,0.444499 -0.03528,0.634999 l 0.0035,0.01058 c 0,0 0.112889,-0.01058 0.236361,-0.01058 0.119944,0 0.289277,0.01058 0.289277,0.01058 l 0.0071,-0.01058 c -0.02822,-0.201083 -0.03528,-0.366888 -0.03528,-0.634999 v -0.257527 c 0,-0.271638 0.243416,-0.313972 0.296333,-0.313972 0.06703,0 0.14111,0.01764 0.20461,0.06703 l 0.0635,-0.0071 0.07056,-0.36336 -0.01411,-0.01411 c -0.05997,-0.01764 -0.116416,-0.02469 -0.179916,-0.02469 -0.165805,0 -0.335138,0.179916 -0.42686,0.317499 z"
           id="path22" />
      </g>
    </g>
    <g
       id="g18"
       transform="translate(-3.755287,12.474443)">
      <g
         id="g15">
        <rect
           style="fill:#c9ccf2;fill-opacity:1;stroke:#000000;stroke-width:0.529167;stroke-linecap:square;stroke-dasharray:none;stroke-opacity:1;paint-order:markers fill stroke"
           id="obj-id-box-2-61"
           width="12"
           height="12"
           x="77.531242"
           y="4.5833335" />
        <path
           d="m 83.430007,9.1708127 c 0.232127,0 0.395111,0.3457223 0.395111,0.5235223 0,0.1778001 -0.0049,0.375356 -0.202495,0.558095 -0.321028,0.291394 -0.380294,0.582789 -0.380294,0.795161 v 0.202494 c 0,0.03457 0.123472,0.07408 0.162983,0.07408 0.03951,0 0.162983,-0.03951 0.162983,-0.07408 v -0.192616 c 0,-0.365478 0.153106,-0.479073 0.296334,-0.582789 0.232128,-0.167923 0.592667,-0.409928 0.592667,-0.8001005 0,-0.2568223 -0.108656,-0.4988279 -0.340784,-0.6272391 -0.1778,-0.098778 -0.424744,-0.1185333 -0.642055,-0.1185333 -0.355601,0 -0.755651,0.2024945 -0.879123,0.3062112 l -0.01482,0.019756 0.07902,0.3753557 0.162983,0.00494 c 0.128411,-0.22225 0.330906,-0.4642556 0.607484,-0.4642556 z m -0.404989,2.7657783 c 0,0.192617 0.158044,0.350661 0.350661,0.350661 0.192616,0 0.350661,-0.158044 0.350661,-0.350661 0,-0.197556 -0.158045,-0.350661 -0.350661,-0.350661 -0.192617,0 -0.350661,0.153105 -0.350661,0.350661 z"
           id="text1-1-9-5"
           style="font-weight:bold;font-size:4.93889px;font-family:'Libertinus Sans';-inkscape-font-specification:'Libertinus Sans Bold';text-align:center;text-anchor:middle;stroke-width:0.529167;stroke-linecap:round;stroke-linejoin:round;paint-order:markers fill stroke"
           aria-label="?" />
      </g>
      <g
         id="g16">
        <rect
           style="fill:#c9ccf2;fill-opacity:1;stroke:#000000;stroke-width:0.529167;stroke-linecap:square;stroke-dasharray:none;stroke-opacity:1;paint-order:markers fill stroke"
           id="obj-id-box-2-61-61"
           width="12"
           height="12"
           x="89.531242"
           y="4.5833335" />
        <path
           d="m 93.97549,10.556169 c 0,0.192616 0.158044,0.350661 0.350661,0.350661 0.192617,0 0.350661,-0.158045 0.350661,-0.350661 0,-0.197556 -0.158044,-0.350662 -0.350661,-0.350662 -0.192617,0 -0.350661,0.153106 -0.350661,0.350662 z m 1.214968,0 c 0,0.192616 0.158045,0.350661 0.350661,0.350661 0.192617,0 0.350662,-0.158045 0.350662,-0.350661 0,-0.197556 -0.158045,-0.350662 -0.350662,-0.350662 -0.192616,0 -0.350661,0.153106 -0.350661,0.350662 z m 1.214969,0 c 0,0.192616 0.158044,0.350661 0.350661,0.350661 0.192616,0 0.350661,-0.158045 0.350661,-0.350661 0,-0.197556 -0.158045,-0.350662 -0.350661,-0.350662 -0.192617,0 -0.350661,0.153106 -0.350661,0.350662 z"
           id="text1-1-9-5-8"
           style="font-weight:bold;font-size:4.93889px;font-family:'Libertinus Sans';-inkscape-font-specification:'Libertinus Sans Bold';text-align:center;text-anchor:middle;stroke-width:0.529167;stroke-linecap:round;stroke-linejoin:round;paint-order:markers fill stroke"
           aria-label="..." />
      </g>
      <g
         id="g17">
        <rect
           style="fill:#c9ccf2;fill-opacity:1;stroke:#000000;stroke-width:0.529167;stroke-linecap:square;stroke-dasharray:none;stroke-opacity:1;paint-order:markers fill stroke"
           id="obj-id-box-2-61-61-4"
           width="12"
           height="12"
           x="101.53124"
           y="4.5833335" />
        <path
           d="m 107.42998,9.1708127 c 0.23213,0 0.39511,0.3457223 0.39511,0.5235223 0,0.1778001 -0.005,0.375356 -0.20249,0.558095 -0.32103,0.291394 -0.38029,0.582789 -0.38029,0.795161 v 0.202494 c 0,0.03457 0.12347,0.07408 0.16298,0.07408 0.0395,0 0.16298,-0.03951 0.16298,-0.07408 v -0.192616 c 0,-0.365478 0.15311,-0.479073 0.29634,-0.582789 0.23212,-0.167923 0.59266,-0.409928 0.59266,-0.8001005 0,-0.2568223 -0.10865,-0.4988279 -0.34078,-0.6272391 -0.1778,-0.098778 -0.42475,-0.1185333 -0.64206,-0.1185333 -0.3556,0 -0.75565,0.2024945 -0.87912,0.3062112 l -0.0148,0.019756 0.079,0.3753557 0.16298,0.00494 c 0.12841,-0.22225 0.33091,-0.4642556 0.60748,-0.4642556 z m -0.40499,2.7657783 c 0,0.192617 0.15805,0.350661 0.35067,0.350661 0.19261,0 0.35066,-0.158044 0.35066,-0.350661 0,-0.197556 -0.15805,-0.350661 -0.35066,-0.350661 -0.19262,0 -0.35067,0.153105 -0.35067,0.350661 z"
           id="text1-1-9-5-3"
           style="font-weight:bold;font-size:4.93889px;font-family:'Libertinus Sans';-inkscape-font-specification:'Libertinus Sans Bold';text-align:center;text-anchor:middle;stroke-width:0.529167;stroke-linecap:round;stroke-linejoin:round;paint-order:markers fill stroke"
           aria-label="?" />
      </g>
      <path
         d="m 89.123045,20.740525 v 0.864304 c 0,0.264583 -0.01411,0.515054 -0.04233,0.705554 l 0.0035,0.01058 c 0,0 0.169333,-0.01058 0.292805,-0.01058 0.119944,0 0.282222,0.01058 0.282222,0.01058 l 0.0071,-0.01058 c -0.02822,-0.201083 -0.04233,-0.440971 -0.04233,-0.705554 v -0.296333 c 0.07761,0.02469 0.194027,0.03528 0.317499,0.03528 0.642055,0 0.874887,-0.384527 0.874887,-0.747887 0,-0.127 -0.04939,-0.328083 -0.246944,-0.465666 -0.123471,-0.08819 -0.317499,-0.119944 -0.56797,-0.119944 -0.09172,0 -0.518583,0.02469 -0.624416,0.02469 -0.119944,0 -0.289277,-0.01058 -0.289277,-0.01058 l -0.0071,0.01058 c 0.02822,0.201083 0.04233,0.440971 0.04233,0.705554 z m 0.500943,-0.405693 c 0,-0.102306 0.02822,-0.155222 0.282222,-0.155222 0.208138,0 0.377471,0.05997 0.377471,0.479776 0,0.356305 -0.176388,0.504472 -0.380999,0.504472 -0.08819,0 -0.232833,-0.01058 -0.278694,-0.03528 z m 2.822215,1.693329 c 0,-0.102305 0.01411,-0.656165 0.01411,-0.69497 0,-0.211667 -0.04233,-0.342194 -0.141111,-0.430388 -0.112889,-0.102306 -0.324555,-0.141111 -0.493888,-0.141111 -0.253999,0 -0.592665,0.112888 -0.677332,0.186972 l -0.01058,0.01411 0.07055,0.264582 0.116417,0.0035 c 0.119944,-0.176388 0.275166,-0.278694 0.433916,-0.278694 0.155221,0 0.243416,0.0882 0.243416,0.359833 0,0.02469 -0.01058,0.0388 -0.02117,0.04233 l -0.412749,0.109361 c -0.338666,0.08114 -0.543277,0.261055 -0.543277,0.500943 0,0.243417 0.236361,0.381 0.483305,0.381 0.137583,0 0.324555,-0.04586 0.483304,-0.204611 h 0.0071 c 0.04939,0.144638 0.127,0.204611 0.278694,0.204611 0.137583,0 0.313971,-0.03528 0.419804,-0.116417 -0.0035,-0.03175 -0.01411,-0.05644 -0.03528,-0.07408 -0.141111,0 -0.215194,-0.01058 -0.215194,-0.127 z m -0.444499,-0.500943 -0.0071,0.328083 c 0,0.04586 -0.02822,0.134055 -0.05292,0.158749 -0.08114,0.08114 -0.162278,0.119944 -0.261055,0.119944 -0.105833,0 -0.183444,-0.105833 -0.183444,-0.201083 0,-0.126999 0.04586,-0.285749 0.222249,-0.33161 z m 2.039053,0.592665 h 0.0071 l 0.01764,0.1905 c 0,0.0071 0.01058,0.01058 0.03175,0.01058 0.04586,-0.0071 0.17286,-0.01058 0.225777,-0.01058 0.04233,0 0.197555,0.0035 0.243416,0.01058 l 0.0071,-0.01058 c -0.02822,-0.151694 -0.06703,-0.412749 -0.06703,-0.677332 v -1.086553 c 0,-0.261055 0.01411,-0.448027 0.04233,-0.663221 0,-0.02469 -0.01764,-0.03528 -0.0388,-0.03528 -0.08819,0.03528 -0.359833,0.105833 -0.504471,0.116417 l -0.0071,0.01058 c 0.02822,0.151694 0.04233,0.39511 0.04233,0.663221 v 0.282221 c -0.06703,-0.09525 -0.229305,-0.158749 -0.33161,-0.158749 -0.236361,0 -0.36336,0.04586 -0.525638,0.162277 -0.218722,0.15875 -0.303388,0.416277 -0.303388,0.670277 0,0.433915 0.264583,0.751415 0.656165,0.751415 0.22225,0 0.409221,-0.0635 0.504471,-0.225778 z m 0,-0.278694 c -0.08467,0.225778 -0.197555,0.299861 -0.342193,0.299861 -0.1905,0 -0.3175,-0.169333 -0.3175,-0.610304 0,-0.476249 0.155222,-0.592666 0.324555,-0.592666 0.165805,0 0.299861,0.119944 0.335138,0.303389 z m 2.084911,0.278694 h 0.0071 l 0.01764,0.1905 c 0,0.0071 0.01058,0.01058 0.03175,0.01058 0.04586,-0.0071 0.172861,-0.01058 0.225778,-0.01058 0.04233,0 0.197555,0.0035 0.243416,0.01058 l 0.0071,-0.01058 c -0.02822,-0.151694 -0.06703,-0.412749 -0.06703,-0.677332 v -1.086553 c 0,-0.261055 0.01411,-0.448027 0.04233,-0.663221 0,-0.02469 -0.01764,-0.03528 -0.0388,-0.03528 -0.0882,0.03528 -0.359833,0.105833 -0.504472,0.116417 l -0.0071,0.01058 c 0.02822,0.151694 0.04233,0.39511 0.04233,0.663221 v 0.282221 c -0.06703,-0.09525 -0.229305,-0.158749 -0.33161,-0.158749 -0.236361,0 -0.363361,0.04586 -0.525638,0.162277 -0.218722,0.15875 -0.303388,0.416277 -0.303388,0.670277 0,0.433915 0.264583,0.751415 0.656165,0.751415 0.22225,0 0.409221,-0.0635 0.504471,-0.225778 z m 0,-0.278694 c -0.08467,0.225778 -0.197555,0.299861 -0.342194,0.299861 -0.190499,0 -0.317499,-0.169333 -0.317499,-0.610304 0,-0.476249 0.155222,-0.592666 0.324555,-0.592666 0.165805,0 0.29986,0.119944 0.335138,0.303389 z m 1.086552,-0.359832 v 0.194027 c 0,0.264583 -0.0071,0.444499 -0.03528,0.634999 l 0.0071,0.01058 c 0.07408,-0.0071 0.137583,-0.01058 0.261055,-0.01058 0.119945,0 0.194028,0.0035 0.261055,0.01058 l 0.0071,-0.01058 C 97.68503,22.1093 97.67797,21.943495 97.67797,21.675384 v -0.232833 c 0,-0.264582 0.01411,-0.416276 0.03528,-0.627943 0,-0.02469 -0.01058,-0.03528 -0.03175,-0.03528 -0.04939,0.0071 -0.144639,0.01764 -0.243416,0.01764 -0.09172,0 -0.186972,-0.0071 -0.250472,-0.01058 l -0.01058,0.01411 c 0.02822,0.151694 0.03528,0.416277 0.03528,0.68086 z m -0.01764,-1.312331 c 0,0.134056 0.109361,0.243417 0.250471,0.243417 0.141111,0 0.250472,-0.109361 0.250472,-0.243417 0,-0.134055 -0.109361,-0.243416 -0.250472,-0.243416 -0.14111,0 -0.250471,0.109361 -0.250471,0.243416 z m 2.607023,1.506358 v -0.391582 c 0,-0.370416 -0.172861,-0.52211 -0.49036,-0.52211 -0.179917,0 -0.391583,0.109361 -0.55386,0.317499 l -0.01411,-0.01058 c 0,-0.08114 -0.0035,-0.229305 -0.01058,-0.257527 -0.0035,-0.0247 -0.01058,-0.03528 -0.03175,-0.03528 -0.102305,0.01764 -0.33161,0.01764 -0.455082,0.01058 l -0.0071,0.01058 c 0.02822,0.151695 0.0388,0.419805 0.0388,0.684388 v 0.194027 c 0,0.264583 -0.0071,0.444499 -0.0388,0.634999 l 0.0071,0.01058 c 0,0 0.165805,-0.01058 0.289277,-0.01058 0.119944,0 0.218722,0.01058 0.218722,0.01058 l 0.01058,-0.01058 C 98.7468,22.1093 98.743273,21.943495 98.743273,21.675384 v -0.359832 c 0.134055,-0.176389 0.282221,-0.282222 0.409221,-0.282222 0.09525,0 0.183444,0.07055 0.183444,0.328083 v 0.313971 c 0,0.264583 0,0.448027 -0.02117,0.634999 l 0.0071,0.01058 c 0,0 0.112889,-0.01058 0.236361,-0.01058 0.119944,0 0.275166,0.01058 0.275166,0.01058 l 0.0071,-0.01058 c -0.03175,-0.201083 -0.0388,-0.366888 -0.0388,-0.634999 z m 1.929697,-0.384527 c 0,-0.123472 -0.0706,-0.26811 -0.17992,-0.342193 0.10583,0.0035 0.23283,0.02469 0.3563,0.03175 l 0.0106,-0.01058 c -0.007,-0.03175 -0.0106,-0.0635 -0.0106,-0.09525 0,-0.03175 0.004,-0.07056 0.0106,-0.102305 l -0.0106,-0.01058 c -0.16933,0.01411 -0.39158,0.01764 -0.65616,0.03175 -0.0635,-0.02117 -0.17639,-0.03175 -0.254,-0.03175 -0.381,0 -0.69497,0.20461 -0.69497,0.543276 0,0.197556 0.1023,0.296333 0.19403,0.359833 0.0494,0.03528 0.13758,0.0635 0.13758,0.0635 l -0.007,0.01764 c -0.15522,0.05292 -0.30691,0.186971 -0.30691,0.303388 0,0.148166 0.0847,0.243416 0.27869,0.275166 -0.0776,0.04939 -0.21166,0.09878 -0.29633,0.148166 -0.06,0.07761 -0.0776,0.186972 -0.0776,0.275166 0,0.306916 0.36689,0.402166 0.68086,0.402166 0.2293,0 0.49741,-0.02822 0.71261,-0.134055 0.20814,-0.102305 0.36336,-0.278694 0.36336,-0.465666 0,-0.402166 -0.44803,-0.472721 -0.77258,-0.472721 -0.06,0 -0.14111,0.0071 -0.22225,0.01764 -0.0494,0.0035 -0.0494,0.0071 -0.067,0.0071 -0.0988,0 -0.20461,-0.01764 -0.20461,-0.169333 0,-0.05644 0.004,-0.09878 0.0423,-0.158749 0.0494,0.02117 0.14464,0.0388 0.26458,0.0388 0.40923,0 0.70909,-0.194027 0.70909,-0.52211 z m -0.97367,1.07597 c 0.0212,0.0035 0.0494,0.0071 0.0811,0.0071 0.10583,0 0.19756,-0.0035 0.24694,-0.0035 0.19756,0 0.43745,0.01764 0.43745,0.261055 0,0.215194 -0.2152,0.359832 -0.51858,0.359832 -0.11995,0 -0.35984,-0.07408 -0.35984,-0.313971 0,-0.116416 0.0212,-0.215194 0.11289,-0.310444 z m 0.50447,-1.072442 c 0,0.250472 -0.0705,0.377471 -0.23989,0.377471 -0.21519,0 -0.25047,-0.126999 -0.25047,-0.384526 0,-0.232833 0.0565,-0.384527 0.23989,-0.384527 0.21167,0 0.25047,0.126999 0.25047,0.391582 z"
         id="text20-1"
         style="font-weight:bold;font-size:3.52777px;font-family:'Libertinus Sans';-inkscape-font-specification:'Libertinus Sans Bold';text-align:center;text-anchor:middle;stroke-width:0.264583;stroke-linecap:round;stroke-linejoin:round;paint-order:markers fill stroke"
         aria-label="Padding" />
    </g>
    <g
       id="g20"
       transform="translate(0,-0.07170223)">
      <rect
         style="display:inline;fill:#f3e2ca;fill-opacity:1;stroke:#000000;stroke-width:0.529167;stroke-linecap:square;stroke-dasharray:none;stroke-opacity:1;paint-order:markers fill stroke"
         id="obj-id-box-2-2-3"
         width="107.99998"
         height="12"
         x="1.7759689"
         y="5.1294775" />
      <path
         d="m 14.883802,11.21767 v -0.829026 c 0,-0.264583 0.0071,-0.518582 0.03528,-0.7055539 l -0.0035,-0.010583 c 0,0 -0.169333,0.010583 -0.292805,0.010583 -0.119944,0 -0.278694,-0.010583 -0.278694,-0.010583 l -0.0071,0.010583 c 0.02822,0.2010829 0.0388,0.4409709 0.0388,0.7055539 v 0.864304 c 0,0.264583 -0.0071,0.515054 -0.03528,0.705554 l 0.0035,0.01058 c 0,0 0.172861,-0.01058 0.292805,-0.01058 H 15.7093 c 0.07408,0 0.155222,0.0035 0.211667,0.01058 l 0.0071,-0.01058 c -0.0035,-0.04939 -0.0071,-0.112889 -0.0071,-0.148167 0,-0.03528 0.0035,-0.17286 0.0071,-0.201082 l -0.0071,-0.01411 c 0,0 -0.536221,0.07761 -1.008943,0.07761 -0.02469,-0.08467 -0.02822,-0.39511 -0.02822,-0.455082 z m 2.783409,0.36336 c -0.162278,0.130528 -0.335139,0.144639 -0.483305,0.144639 -0.172861,0 -0.29986,-0.04586 -0.384527,-0.137583 -0.07761,-0.08467 -0.116416,-0.208138 -0.116416,-0.370416 h 0.352777 c 0.352777,0 0.652637,0.0071 0.652637,0.0071 l 0.02117,-0.02117 c 0,-0.440971 -0.123472,-0.793748 -0.666749,-0.793748 -0.194027,0 -0.405693,0.05997 -0.543276,0.176388 -0.172861,0.141111 -0.289277,0.352777 -0.289277,0.645582 0,0.208139 0.07761,0.42686 0.222249,0.578554 0.119944,0.123472 0.328083,0.183445 0.592665,0.183445 0.254,0 0.507999,-0.08114 0.698499,-0.303389 0,-0.04586 -0.02117,-0.109361 -0.05644,-0.109361 z m -0.970137,-0.52211 c 0.01411,-0.17286 0.05644,-0.296332 0.109361,-0.366888 0.04233,-0.05997 0.112888,-0.105833 0.211666,-0.105833 0.144638,0 0.229305,0.162278 0.229305,0.472721 z m 2.988019,0.264583 v -0.391582 c 0,-0.370416 -0.172861,-0.52211 -0.49036,-0.52211 -0.179916,0 -0.391582,0.109361 -0.55386,0.317499 l -0.01411,-0.01058 c 0,-0.08114 -0.0035,-0.229305 -0.01058,-0.257527 -0.0035,-0.02469 -0.01058,-0.03528 -0.03175,-0.03528 -0.102306,0.01764 -0.331611,0.01764 -0.455083,0.01058 l -0.0071,0.01058 c 0.02822,0.151695 0.0388,0.419805 0.0388,0.684388 v 0.194027 c 0,0.264583 -0.0071,0.444499 -0.0388,0.634999 l 0.0071,0.01058 c 0,0 0.165806,-0.01058 0.289278,-0.01058 0.119944,0 0.218721,0.01058 0.218721,0.01058 l 0.01058,-0.01058 c -0.01764,-0.201083 -0.02117,-0.366888 -0.02117,-0.634999 v -0.359832 c 0.134055,-0.176389 0.282222,-0.282222 0.409221,-0.282222 0.09525,0 0.183444,0.07055 0.183444,0.328083 v 0.313971 c 0,0.264583 0,0.448027 -0.02117,0.634999 l 0.0071,0.01058 c 0,0 0.112889,-0.01058 0.236361,-0.01058 0.119944,0 0.275166,0.01058 0.275166,0.01058 l 0.0071,-0.01058 c -0.03175,-0.201083 -0.03881,-0.366888 -0.03881,-0.634999 z m 1.929692,-0.384527 c 0,-0.123472 -0.07056,-0.26811 -0.179917,-0.342193 0.105834,0.0035 0.232833,0.02469 0.356305,0.03175 l 0.01058,-0.01058 c -0.0071,-0.03175 -0.01058,-0.0635 -0.01058,-0.09525 0,-0.03175 0.0035,-0.07055 0.01058,-0.102305 l -0.01058,-0.01058 c -0.169333,0.01411 -0.391582,0.01764 -0.656165,0.03175 -0.0635,-0.02117 -0.176389,-0.03175 -0.253999,-0.03175 -0.381,0 -0.694971,0.20461 -0.694971,0.543276 0,0.197555 0.102305,0.296333 0.194027,0.359833 0.04939,0.03528 0.137583,0.0635 0.137583,0.0635 l -0.0071,0.01764 c -0.155222,0.05292 -0.306916,0.186971 -0.306916,0.303388 0,0.148166 0.08467,0.243416 0.278693,0.275166 -0.07761,0.04939 -0.211666,0.09878 -0.296332,0.148166 -0.05997,0.07761 -0.07761,0.186972 -0.07761,0.275166 0,0.306916 0.366888,0.402166 0.680859,0.402166 0.229306,0 0.497416,-0.02822 0.71261,-0.134055 0.208138,-0.102306 0.36336,-0.278694 0.36336,-0.465666 0,-0.402166 -0.448026,-0.472721 -0.772581,-0.472721 -0.05997,0 -0.141111,0.0071 -0.22225,0.01764 -0.04939,0.0035 -0.04939,0.0071 -0.06703,0.0071 -0.09878,0 -0.204611,-0.01764 -0.204611,-0.169333 0,-0.05644 0.0035,-0.09878 0.04233,-0.158749 0.04939,0.02117 0.144639,0.0388 0.264583,0.0388 0.409221,0 0.709082,-0.194027 0.709082,-0.52211 z m -0.973665,1.07597 c 0.02117,0.0035 0.04939,0.0071 0.08114,0.0071 0.105833,0 0.197555,-0.0035 0.246944,-0.0035 0.197555,0 0.437443,0.01764 0.437443,0.261055 0,0.215194 -0.215194,0.359832 -0.518582,0.359832 -0.119944,0 -0.359832,-0.07408 -0.359832,-0.313971 0,-0.116417 0.02117,-0.215194 0.112888,-0.310444 z m 0.504471,-1.072442 c 0,0.250472 -0.07055,0.377471 -0.239888,0.377471 -0.215194,0 -0.250472,-0.126999 -0.250472,-0.384526 0,-0.232833 0.05645,-0.384527 0.239889,-0.384527 0.211666,0 0.250471,0.126999 0.250471,0.391582 z m 1.146528,-0.497416 c -0.07055,0 -0.148166,-0.0035 -0.190499,-0.01058 -0.01764,0.05997 -0.04233,0.116417 -0.07761,0.169333 l 0.01764,0.02469 c 0.05997,-0.0035 0.169333,-0.0071 0.250472,-0.0071 l -0.01058,0.416277 c -0.0035,0.211666 -0.01058,0.504471 -0.01058,0.610304 0,0.165805 0.116416,0.345722 0.342193,0.345722 0.183444,0 0.366888,-0.03175 0.518582,-0.123472 0,-0.05645 -0.02117,-0.109361 -0.05997,-0.134056 -0.07761,0.03881 -0.112888,0.04233 -0.20461,0.04233 -0.09525,0 -0.130528,-0.137583 -0.130528,-0.282222 0,-0.0071 0,-0.01764 0,-0.02469 0,-0.109361 0,-0.275167 0.0035,-0.472722 l 0.0071,-0.377471 h 0.134055 c 0.08467,0 0.208138,0.0035 0.253999,0.0071 0.0071,-0.05292 0.02117,-0.112889 0.04233,-0.165806 l -0.01764,-0.02822 c -0.06703,0.0071 -0.165806,0.01058 -0.246944,0.01058 h -0.165805 c 0,-0.197555 0.0035,-0.303388 0.01764,-0.4903596 0,-0.024694 -0.01058,-0.035278 -0.03175,-0.035278 -0.08819,0.035278 -0.278693,0.1269996 -0.419804,0.1587496 l -0.0071,0.01058 c -0.01058,0.09525 -0.01411,0.215194 -0.01411,0.356304 z m 1.23472,-0.158749 v 1.037164 c 0,0.264583 -0.01058,0.444499 -0.04233,0.634999 l 0.0035,0.01058 c 0,0 0.15875,-0.01058 0.282221,-0.01058 0.119945,0 0.236361,0.01058 0.236361,0.01058 l 0.0071,-0.01058 c -0.01764,-0.201083 -0.02117,-0.366888 -0.02117,-0.634999 v -0.359832 c 0.134055,-0.176389 0.282222,-0.282222 0.409221,-0.282222 0.09525,0 0.183444,0.07055 0.183444,0.328083 v 0.313971 c 0,0.264583 0,0.448027 -0.02117,0.634999 l 0.0035,0.01058 c 0,0 0.17286,-0.01058 0.296332,-0.01058 0.119944,0 0.215194,0.01058 0.215194,0.01058 l 0.0071,-0.01058 c -0.03175,-0.201083 -0.03528,-0.366888 -0.03528,-0.634999 v -0.391582 c 0,-0.3175 -0.137583,-0.52211 -0.455082,-0.52211 -0.179917,0 -0.440972,0.109361 -0.603249,0.317499 l -0.01411,-0.0071 0.01411,-0.306916 v -0.218722 c 0,-0.264583 0.0071,-0.448027 0.03528,-0.663221 0,-0.024694 -0.01058,-0.035278 -0.03175,-0.035278 -0.08819,0.035278 -0.359833,0.1058331 -0.504471,0.1164164 l -0.0071,0.010583 c 0.02822,0.1516942 0.04233,0.3951096 0.04233,0.6632206 z m 2.861025,0.94897 c 0,0.469193 0.328083,0.758471 0.85372,0.758471 0.539749,0 0.853721,-0.303389 0.853721,-0.790221 0,-0.444499 -0.250472,-0.793748 -0.846665,-0.793748 -0.504471,0 -0.860776,0.278694 -0.860776,0.825498 z m 0.836082,-0.64911 c 0.29986,0 0.370415,0.22225 0.370415,0.71261 0,0.405693 -0.144638,0.518582 -0.303388,0.518582 -0.366888,0 -0.402166,-0.391582 -0.402166,-0.663221 0,-0.306916 0.03175,-0.567971 0.335139,-0.567971 z m 1.799162,0.03528 h 0.134055 c 0.08467,0 0.208139,0.0035 0.254,0.0071 0.0071,-0.05292 0.02117,-0.112889 0.04233,-0.165806 l -0.01764,-0.02822 c -0.06703,0.0071 -0.165805,0.01058 -0.246944,0.01058 h -0.165805 v -0.03528 c 0,-0.09172 -0.02469,-0.261055 -0.02469,-0.338666 0,-0.1940275 0.105833,-0.3316105 0.296332,-0.3316105 0.102306,0 0.197555,0.074083 0.225778,0.1763885 l 0.105833,-0.00353 c 0.01058,-0.098778 0.04939,-0.2857494 0.08114,-0.3563048 l -0.0035,-0.010583 c -0.02822,-0.017639 -0.155222,-0.049389 -0.264583,-0.049389 -0.268111,0 -0.479777,0.088194 -0.627943,0.2434162 -0.155222,0.1622774 -0.243416,0.3845266 -0.243416,0.5997206 v 0.105833 c -0.07056,0 -0.148167,-0.0035 -0.1905,-0.01058 -0.01764,0.05997 -0.04233,0.116417 -0.07761,0.169333 l 0.01764,0.02469 c 0.05997,-0.0035 0.169333,-0.0071 0.250472,-0.0071 v 0.631471 c 0,0.264583 0,0.525638 -0.0247,0.705554 l 0.0035,0.01058 c 0,0 0.141111,-0.01058 0.264583,-0.01058 0.119944,0 0.243416,0.01058 0.243416,0.01058 l 0.0071,-0.01058 c -0.02469,-0.204611 -0.02469,-0.440971 -0.02822,-0.705554 z m 1.580439,0.938387 -0.05644,0.338666 c 0.190499,0.07056 0.423332,0.09525 0.550332,0.09525 0.45861,0 0.652637,-0.22225 0.652637,-0.465666 0,-0.317499 -0.250472,-0.416277 -0.500943,-0.550332 -0.116417,-0.0635 -0.211666,-0.123472 -0.211666,-0.236361 0,-0.09878 0.03528,-0.172861 0.17286,-0.172861 0.172861,0 0.275166,0.165806 0.321027,0.264583 l 0.09525,-0.0035 0.06703,-0.317499 -0.0071,-0.01058 c -0.09525,-0.05292 -0.29986,-0.09172 -0.469193,-0.09172 -0.317499,0 -0.596193,0.155222 -0.596193,0.42686 0,0.246944 0.17286,0.373944 0.373943,0.483304 0.257528,0.141111 0.335139,0.204611 0.335139,0.345722 0,0.165805 -0.109361,0.172861 -0.243417,0.172861 -0.123472,0 -0.271638,-0.07761 -0.377471,-0.282222 z m 1.605138,-1.114776 c -0.07056,0 -0.148167,-0.0035 -0.1905,-0.01058 -0.01764,0.05997 -0.04233,0.116417 -0.07761,0.169333 l 0.01764,0.02469 c 0.05997,-0.0035 0.169333,-0.0071 0.250472,-0.0071 l -0.01058,0.416277 c -0.0035,0.211666 -0.01058,0.504471 -0.01058,0.610304 0,0.165805 0.116416,0.345722 0.342194,0.345722 0.183444,0 0.366888,-0.03175 0.518582,-0.123472 0,-0.05645 -0.02117,-0.109361 -0.05997,-0.134056 -0.07761,0.03881 -0.112889,0.04233 -0.204611,0.04233 -0.09525,0 -0.130527,-0.137583 -0.130527,-0.282222 0,-0.0071 0,-0.01764 0,-0.02469 0,-0.109361 0,-0.275167 0.0035,-0.472722 l 0.0071,-0.377471 h 0.134055 c 0.08467,0 0.208139,0.0035 0.254,0.0071 0.0071,-0.05292 0.02117,-0.112889 0.04233,-0.165806 l -0.01764,-0.02822 c -0.06703,0.0071 -0.165805,0.01058 -0.246944,0.01058 h -0.165805 c 0,-0.197555 0.0035,-0.303388 0.01764,-0.4903596 0,-0.024694 -0.01058,-0.035278 -0.03175,-0.035278 -0.08819,0.035278 -0.278694,0.1269996 -0.419805,0.1587496 l -0.0071,0.01058 c -0.01058,0.09525 -0.01411,0.215194 -0.01411,0.356304 z m 1.725079,0.282222 -0.01411,-0.01058 c 0,-0.08114 -0.0035,-0.229305 -0.01058,-0.257527 -0.0035,-0.02469 -0.01058,-0.03528 -0.03175,-0.03528 -0.102305,0.01764 -0.33161,0.01764 -0.455082,0.01058 l -0.0071,0.01058 c 0.02822,0.151695 0.03881,0.419805 0.03881,0.684388 V 11.3235 c 0,0.264583 -0.0071,0.444499 -0.03528,0.634999 l 0.0035,0.01058 c 0,0 0.112888,-0.01058 0.23636,-0.01058 0.119944,0 0.289277,0.01058 0.289277,0.01058 l 0.0071,-0.01058 c -0.02822,-0.201083 -0.03528,-0.366888 -0.03528,-0.634999 v -0.257527 c 0,-0.271638 0.243416,-0.313972 0.296333,-0.313972 0.06703,0 0.141111,0.01764 0.204611,0.06703 l 0.0635,-0.0071 0.07056,-0.363361 -0.01411,-0.01411 c -0.05997,-0.01764 -0.116417,-0.02469 -0.179916,-0.02469 -0.165806,0 -0.335139,0.179916 -0.426861,0.317499 z m 1.008941,0.402166 v 0.194027 c 0,0.264583 -0.0071,0.444499 -0.03528,0.634999 l 0.0071,0.01058 c 0.07408,-0.0071 0.137583,-0.01058 0.261055,-0.01058 0.119944,0 0.194027,0.0035 0.261055,0.01058 l 0.0071,-0.01058 c -0.02822,-0.201083 -0.03528,-0.366888 -0.03528,-0.634999 V 11.09067 c 0,-0.264582 0.01411,-0.416276 0.03528,-0.627943 0,-0.02469 -0.01058,-0.03528 -0.03175,-0.03528 -0.04939,0.0071 -0.144638,0.01764 -0.243416,0.01764 -0.09172,0 -0.186972,-0.0071 -0.250472,-0.01058 l -0.01058,0.01411 c 0.02822,0.151694 0.03528,0.416277 0.03528,0.68086 z m -0.01764,-1.3123306 c 0,0.1340553 0.109361,0.2434166 0.250472,0.2434166 0.14111,0 0.250471,-0.1093613 0.250471,-0.2434166 0,-0.1340553 -0.109361,-0.2434161 -0.250471,-0.2434161 -0.141111,0 -0.250472,0.1093608 -0.250472,0.2434161 z m 2.607022,1.5063576 v -0.391582 c 0,-0.370416 -0.172861,-0.52211 -0.49036,-0.52211 -0.179916,0 -0.391583,0.109361 -0.55386,0.317499 l -0.01411,-0.01058 c 0,-0.08114 -0.0035,-0.229305 -0.01058,-0.257527 -0.0035,-0.02469 -0.01058,-0.03528 -0.03175,-0.03528 -0.102306,0.01764 -0.331611,0.01764 -0.455083,0.01058 l -0.0071,0.01058 c 0.02822,0.151695 0.03881,0.419805 0.03881,0.684388 V 11.3235 c 0,0.264583 -0.0071,0.444499 -0.03881,0.634999 l 0.0071,0.01058 c 0,0 0.165806,-0.01058 0.289277,-0.01058 0.119945,0 0.218722,0.01058 0.218722,0.01058 l 0.01058,-0.01058 c -0.01764,-0.201083 -0.02117,-0.366888 -0.02117,-0.634999 v -0.359832 c 0.134055,-0.176389 0.282222,-0.282222 0.409221,-0.282222 0.09525,0 0.183444,0.07055 0.183444,0.328083 V 11.3235 c 0,0.264583 0,0.448027 -0.02117,0.634999 l 0.0071,0.01058 c 0,0 0.112889,-0.01058 0.236361,-0.01058 0.119944,0 0.275166,0.01058 0.275166,0.01058 l 0.0071,-0.01058 c -0.03175,-0.201083 -0.0388,-0.366888 -0.0388,-0.634999 z m 1.929693,-0.384527 c 0,-0.123472 -0.07055,-0.26811 -0.179916,-0.342193 0.105833,0.0035 0.232833,0.02469 0.356304,0.03175 l 0.01058,-0.01058 c -0.0071,-0.03175 -0.01058,-0.0635 -0.01058,-0.09525 0,-0.03175 0.0035,-0.07055 0.01058,-0.102305 l -0.01058,-0.01058 c -0.169332,0.01411 -0.391582,0.01764 -0.656165,0.03175 -0.0635,-0.02117 -0.176388,-0.03175 -0.253999,-0.03175 -0.380999,0 -0.694971,0.20461 -0.694971,0.543276 0,0.197555 0.102305,0.296333 0.194027,0.359833 0.04939,0.03528 0.137584,0.0635 0.137584,0.0635 l -0.0071,0.01764 c -0.155222,0.05292 -0.306916,0.186971 -0.306916,0.303388 0,0.148166 0.08467,0.243416 0.278694,0.275166 -0.07761,0.04939 -0.211666,0.09878 -0.296333,0.148166 -0.05997,0.07761 -0.07761,0.186972 -0.07761,0.275166 0,0.306916 0.366888,0.402166 0.68086,0.402166 0.229305,0 0.497415,-0.02822 0.712609,-0.134055 0.208139,-0.102306 0.363361,-0.278694 0.363361,-0.465666 0,-0.402166 -0.448027,-0.472721 -0.772582,-0.472721 -0.05997,0 -0.141111,0.0071 -0.222249,0.01764 -0.04939,0.0035 -0.04939,0.0071 -0.06703,0.0071 -0.09878,0 -0.204611,-0.01764 -0.204611,-0.169333 0,-0.05644 0.0035,-0.09878 0.04233,-0.158749 0.04939,0.02117 0.144639,0.0388 0.264583,0.0388 0.409222,0 0.709082,-0.194027 0.709082,-0.52211 z m -0.973665,1.07597 c 0.02117,0.0035 0.04939,0.0071 0.08114,0.0071 0.105833,0 0.197555,-0.0035 0.246944,-0.0035 0.197555,0 0.437444,0.01764 0.437444,0.261055 0,0.215194 -0.215194,0.359832 -0.518583,0.359832 -0.119944,0 -0.359832,-0.07408 -0.359832,-0.313971 0,-0.116417 0.02117,-0.215194 0.112888,-0.310444 z m 0.504472,-1.072442 c 0,0.250472 -0.07056,0.377471 -0.239889,0.377471 -0.215194,0 -0.250471,-0.126999 -0.250471,-0.384526 0,-0.232833 0.05644,-0.384527 0.239888,-0.384527 0.211666,0 0.250472,0.126999 0.250472,0.391582 z m 2.028469,0.186972 v 0.194027 c 0,0.264583 -0.0071,0.444499 -0.03528,0.634999 l 0.0071,0.01058 c 0.07408,-0.0071 0.137583,-0.01058 0.261055,-0.01058 0.119944,0 0.194027,0.0035 0.261055,0.01058 l 0.0071,-0.01058 c -0.02822,-0.201083 -0.03528,-0.366888 -0.03528,-0.634999 V 11.09067 c 0,-0.264582 0.01411,-0.416276 0.03528,-0.627943 0,-0.02469 -0.01058,-0.03528 -0.03175,-0.03528 -0.04939,0.0071 -0.144638,0.01764 -0.243416,0.01764 -0.09172,0 -0.186972,-0.0071 -0.250472,-0.01058 l -0.01058,0.01411 c 0.02822,0.151694 0.03528,0.416277 0.03528,0.68086 z m -0.01764,-1.3123306 c 0,0.1340553 0.109361,0.2434166 0.250472,0.2434166 0.14111,0 0.250471,-0.1093613 0.250471,-0.2434166 0,-0.1340553 -0.109361,-0.2434161 -0.250471,-0.2434161 -0.141111,0 -0.250472,0.1093608 -0.250472,0.2434161 z m 2.607024,1.5063576 v -0.391582 c 0,-0.370416 -0.172861,-0.52211 -0.49036,-0.52211 -0.179917,0 -0.391583,0.109361 -0.55386,0.317499 l -0.01411,-0.01058 c 0,-0.08114 -0.0035,-0.229305 -0.01058,-0.257527 -0.0035,-0.02469 -0.01058,-0.03528 -0.03175,-0.03528 -0.102306,0.01764 -0.331611,0.01764 -0.455083,0.01058 l -0.0071,0.01058 c 0.02822,0.151695 0.0388,0.419805 0.0388,0.684388 V 11.3235 c 0,0.264583 -0.0071,0.444499 -0.0388,0.634999 l 0.0071,0.01058 c 0,0 0.165805,-0.01058 0.289277,-0.01058 0.119945,0 0.218722,0.01058 0.218722,0.01058 l 0.01058,-0.01058 c -0.01764,-0.201083 -0.02117,-0.366888 -0.02117,-0.634999 v -0.359832 c 0.134055,-0.176389 0.282221,-0.282222 0.409221,-0.282222 0.09525,0 0.183444,0.07055 0.183444,0.328083 V 11.3235 c 0,0.264583 0,0.448027 -0.02117,0.634999 l 0.0071,0.01058 c 0,0 0.112889,-0.01058 0.236361,-0.01058 0.119944,0 0.275166,0.01058 0.275166,0.01058 l 0.0071,-0.01058 c -0.03175,-0.201083 -0.03881,-0.366888 -0.03881,-0.634999 z m 1.961441,-1.128886 c 0,-0.2610552 0.01411,-0.448027 0.04233,-0.663221 0,-0.024694 -0.01058,-0.035278 -0.03175,-0.035278 -0.08819,0.035278 -0.366888,0.1058331 -0.511526,0.1164164 l -0.0071,0.010583 c 0.02822,0.1516942 0.04233,0.3951096 0.04233,0.6632206 v 1.199442 c 0,0.137583 -0.01411,0.416276 -0.02822,0.493887 0.01058,0.0071 0.01764,0.01411 0.03881,0.01764 0.04233,-0.0071 0.20461,-0.07761 0.253999,-0.07761 0.03881,0 0.144639,0.02117 0.201083,0.04586 0.05644,0.02469 0.211666,0.02822 0.338666,0.02822 0.183444,0 0.373944,-0.05645 0.529166,-0.186972 0.17286,-0.148167 0.296332,-0.388055 0.296332,-0.702027 0,-0.208138 -0.0635,-0.398638 -0.194027,-0.518582 -0.137583,-0.126999 -0.296333,-0.176388 -0.483305,-0.176388 -0.151694,0 -0.275166,0.03528 -0.486832,0.194027 z m 0.05997,1.573385 c -0.04939,-0.03175 -0.05997,-0.09172 -0.05997,-0.190499 v -0.77611 c 0.172861,-0.123472 0.246944,-0.151694 0.331611,-0.151694 0.215193,0 0.33161,0.183444 0.33161,0.525638 0,0.201083 -0.02469,0.36336 -0.07761,0.472721 -0.05997,0.127 -0.169333,0.169333 -0.268111,0.169333 -0.119944,0 -0.201082,-0.01411 -0.257527,-0.04939 z m 1.308806,-1.333497 c 0.158749,0.321027 0.55386,1.13947 0.687915,1.492247 l 0.04233,0.06703 c -0.112889,0.264582 -0.26811,0.536221 -0.42686,0.800803 0.03528,-0.01058 0.190499,-0.01764 0.225777,-0.01764 0.03528,0 0.137583,0.0071 0.172861,0.01764 0.134055,-0.440971 0.941915,-2.123717 1.058331,-2.360078 -0.03528,0.01058 -0.137583,0.01058 -0.172861,0.01058 -0.03528,0 -0.165805,0 -0.201083,-0.01058 -0.112888,0.352777 -0.253999,0.747887 -0.405693,1.086553 l -0.03175,-0.0035 c -0.162278,-0.363361 -0.299861,-0.723193 -0.416277,-1.083026 -0.04586,0.01058 -0.172861,0.01058 -0.22225,0.01058 -0.04586,0 -0.261055,0 -0.310443,-0.01058 z m 2.14841,0.01058 c -0.07055,0 -0.148166,-0.0035 -0.1905,-0.01058 -0.01764,0.05997 -0.04233,0.116417 -0.07761,0.169333 l 0.01764,0.02469 c 0.05997,-0.0035 0.169333,-0.0071 0.250472,-0.0071 l -0.01058,0.416277 c -0.0035,0.211666 -0.01058,0.504471 -0.01058,0.610304 0,0.165805 0.116417,0.345722 0.342194,0.345722 0.183444,0 0.366888,-0.03175 0.518582,-0.123472 0,-0.05645 -0.02117,-0.109361 -0.05997,-0.134056 -0.07761,0.03881 -0.112889,0.04233 -0.204611,0.04233 -0.09525,0 -0.130527,-0.137583 -0.130527,-0.282222 0,-0.0071 0,-0.01764 0,-0.02469 0,-0.109361 0,-0.275167 0.0035,-0.472722 l 0.0071,-0.377471 h 0.134056 c 0.08467,0 0.208138,0.0035 0.253999,0.0071 0.0071,-0.05292 0.02117,-0.112889 0.04233,-0.165806 l -0.01764,-0.02822 c -0.06703,0.0071 -0.165805,0.01058 -0.246944,0.01058 h -0.165805 c 0,-0.197555 0.0035,-0.303388 0.01764,-0.4903596 0,-0.024694 -0.01058,-0.035278 -0.03175,-0.035278 -0.08819,0.035278 -0.278694,0.1269996 -0.419804,0.1587496 l -0.0071,0.01058 c -0.01058,0.09525 -0.01411,0.215194 -0.01411,0.356304 z m 2.51177,1.135942 c -0.162277,0.130528 -0.335138,0.144639 -0.483304,0.144639 -0.172861,0 -0.29986,-0.04586 -0.384527,-0.137583 -0.07761,-0.08467 -0.116416,-0.208138 -0.116416,-0.370416 h 0.352777 c 0.352777,0 0.652637,0.0071 0.652637,0.0071 l 0.02117,-0.02117 c 0,-0.440971 -0.123472,-0.793748 -0.666749,-0.793748 -0.194027,0 -0.405693,0.05997 -0.543276,0.176388 -0.172861,0.141111 -0.289278,0.352777 -0.289278,0.645582 0,0.208139 0.07761,0.42686 0.22225,0.578554 0.119944,0.123472 0.328083,0.183445 0.592665,0.183445 0.254,0 0.507999,-0.08114 0.698499,-0.303389 0,-0.04586 -0.02117,-0.109361 -0.05644,-0.109361 z m -0.970136,-0.52211 c 0.01411,-0.17286 0.05644,-0.296332 0.109361,-0.366888 0.04233,-0.05997 0.112888,-0.105833 0.211666,-0.105833 0.144638,0 0.229305,0.162278 0.229305,0.472721 z m 1.372302,0.500944 -0.05644,0.338666 c 0.1905,0.07056 0.423333,0.09525 0.550333,0.09525 0.45861,0 0.652637,-0.22225 0.652637,-0.465666 0,-0.317499 -0.250472,-0.416277 -0.500943,-0.550332 -0.116417,-0.0635 -0.211667,-0.123472 -0.211667,-0.236361 0,-0.09878 0.03528,-0.172861 0.172861,-0.172861 0.172861,0 0.275166,0.165806 0.321027,0.264583 l 0.09525,-0.0035 0.06703,-0.317499 -0.0071,-0.01058 c -0.09525,-0.05292 -0.29986,-0.09172 -0.469193,-0.09172 -0.3175,0 -0.596193,0.155222 -0.596193,0.42686 0,0.246944 0.17286,0.373944 0.373943,0.483304 0.257527,0.141111 0.335138,0.204611 0.335138,0.345722 0,0.165805 -0.109361,0.172861 -0.243416,0.172861 -0.123472,0 -0.271638,-0.07761 -0.377471,-0.282222 z m 2.324803,-0.49036 c 0,0.472721 0.20461,1.030109 0.814915,1.608663 l 0.112888,-0.09525 c -0.116416,-0.134055 -0.465665,-0.596193 -0.465665,-1.523997 0,-0.927803 0.352777,-1.3687743 0.465665,-1.495774 L 55.142725,9.4643684 C 54.72292,9.8242009 54.32781,10.469783 54.32781,11.069504 Z m 1.35466,0.05997 V 11.3235 c 0,0.264583 -0.0071,0.444499 -0.03528,0.634999 l 0.0071,0.01058 c 0.07408,-0.0071 0.137583,-0.01058 0.261055,-0.01058 0.119944,0 0.194027,0.0035 0.261055,0.01058 l 0.0071,-0.01058 c -0.02822,-0.201083 -0.03528,-0.366888 -0.03528,-0.634999 v -0.23283 c 0,-0.264582 0.01411,-0.416276 0.03528,-0.627943 0,-0.02469 -0.01058,-0.03528 -0.03175,-0.03528 -0.04939,0.0071 -0.144638,0.01764 -0.243416,0.01764 -0.09172,0 -0.186972,-0.0071 -0.250471,-0.01058 l -0.01058,0.01411 c 0.02822,0.151694 0.03528,0.416277 0.03528,0.68086 z m -0.01764,-1.3123306 c 0,0.1340553 0.109361,0.2434166 0.250472,0.2434166 0.141111,0 0.250471,-0.1093613 0.250471,-0.2434166 0,-0.1340553 -0.10936,-0.2434161 -0.250471,-0.2434161 -0.141111,0 -0.250472,0.1093608 -0.250472,0.2434161 z M 58.27185,11.3235 v -0.391582 c 0,-0.370416 -0.172861,-0.52211 -0.49036,-0.52211 -0.179916,0 -0.391583,0.109361 -0.55386,0.317499 l -0.01411,-0.01058 c 0,-0.08114 -0.0035,-0.229305 -0.01058,-0.257527 -0.0035,-0.02469 -0.01058,-0.03528 -0.03175,-0.03528 -0.102306,0.01764 -0.331611,0.01764 -0.455083,0.01058 l -0.0071,0.01058 c 0.02822,0.151695 0.03881,0.419805 0.03881,0.684388 v 0.194027 c 0,0.264583 -0.0071,0.444499 -0.03881,0.634999 l 0.0071,0.01058 c 0,0 0.165806,-0.01058 0.289278,-0.01058 0.119944,0 0.218721,0.01058 0.218721,0.01058 l 0.01058,-0.01058 c -0.01764,-0.201083 -0.02117,-0.366888 -0.02117,-0.634999 v -0.359832 c 0.134055,-0.176389 0.282222,-0.282222 0.409221,-0.282222 0.09525,0 0.183444,0.07055 0.183444,0.328083 v 0.313971 c 0,0.264583 0,0.448027 -0.02117,0.634999 l 0.0071,0.01058 c 0,0 0.112889,-0.01058 0.236361,-0.01058 0.119944,0 0.275166,0.01058 0.275166,0.01058 l 0.0071,-0.01058 c -0.03175,-0.201083 -0.0388,-0.366888 -0.0388,-0.634999 z m 1.358191,-0.737304 c 0.137583,0 0.239888,0.102306 0.317499,0.296333 l 0.09878,-0.0035 0.08467,-0.342194 -0.0071,-0.01058 c -0.109361,-0.05644 -0.349249,-0.116416 -0.525637,-0.116416 -0.472722,0 -0.867832,0.282221 -0.867832,0.836081 0,0.218722 0.07056,0.391583 0.1905,0.52211 0.126999,0.137583 0.36336,0.225778 0.627943,0.225778 0.26811,0 0.423332,-0.05645 0.582082,-0.1905 -0.0071,-0.03528 -0.01764,-0.08114 -0.01764,-0.137583 l -0.05644,-0.01764 c -0.09878,0.119944 -0.271639,0.169333 -0.412749,0.169333 -0.102306,0 -0.243417,-0.08819 -0.306916,-0.1905 -0.0635,-0.102305 -0.105834,-0.271638 -0.105834,-0.472721 0,-0.169333 0.02822,-0.303388 0.08467,-0.398638 0.07055,-0.109361 0.1905,-0.169333 0.313972,-0.169333 z m 0.920748,0.666749 c 0,0.264583 -0.01058,0.515054 -0.04233,0.705554 l 0.0035,0.01058 c 0,0 0.148167,-0.01058 0.271639,-0.01058 0.119944,0 0.26811,0.01058 0.26811,0.01058 l 0.0071,-0.01058 c -0.02822,-0.201083 -0.04233,-0.440971 -0.04233,-0.705554 v -1.058331 c 0,-0.264583 0.01411,-0.448027 0.04233,-0.663221 0,-0.024694 -0.01764,-0.035278 -0.03881,-0.035278 -0.08819,0.035278 -0.359832,0.1058331 -0.504471,0.1164164 l -0.0071,0.010583 c 0.02822,0.1516942 0.04233,0.3951096 0.04233,0.6632206 z m 2.081391,0.479777 h 0.0071 l 0.01764,0.225777 c 0,0.0071 0.01058,0.01058 0.03175,0.01058 0.04586,-0.0071 0.151694,-0.01058 0.204611,-0.01058 0.04233,0 0.211666,0.0035 0.257527,0.01058 l 0.0071,-0.01058 C 63.1296,11.806808 63.09785,11.545753 63.09785,11.28117 v -0.201083 c 0,-0.264583 0,-0.448027 0.03175,-0.634999 l -0.0035,-0.01058 c 0,0 -0.148167,0.01058 -0.271639,0.01058 -0.119944,0 -0.239888,-0.01058 -0.239888,-0.01058 l -0.0071,0.01058 c 0.0247,0.197556 0.0247,0.366889 0.0247,0.634999 v 0.282222 c 0,0.20461 -0.236361,0.359832 -0.395111,0.359832 -0.105833,0 -0.208138,-0.03528 -0.201082,-0.324555 l 0.0071,-0.317499 c 0.0071,-0.264583 0.01058,-0.455082 0.02822,-0.634999 l -0.0035,-0.01058 c 0,0 -0.141111,0.01058 -0.264583,0.01058 -0.119944,0 -0.246944,-0.01058 -0.246944,-0.01058 l -0.0071,0.01058 c 0.02117,0.201083 0.03175,0.381 0.02822,0.634999 l -0.0071,0.433916 c -0.0035,0.243416 0.119944,0.479777 0.469193,0.479777 0.144639,0 0.395111,-0.04939 0.592666,-0.261055 z m 2.088435,0.03528 h 0.0071 l 0.01764,0.1905 c 0,0.0071 0.01058,0.01058 0.03175,0.01058 0.04586,-0.0071 0.172861,-0.01058 0.225778,-0.01058 0.04233,0 0.197555,0.0035 0.243416,0.01058 l 0.0071,-0.01058 c -0.02822,-0.151694 -0.06703,-0.412749 -0.06703,-0.677332 v -1.086553 c 0,-0.2610552 0.01411,-0.448027 0.04233,-0.663221 0,-0.024694 -0.01764,-0.035278 -0.03881,-0.035278 -0.08819,0.035278 -0.359832,0.1058331 -0.504471,0.1164164 l -0.0071,0.010583 c 0.02822,0.1516942 0.04233,0.3951096 0.04233,0.6632206 v 0.282221 c -0.06703,-0.09525 -0.229305,-0.158749 -0.33161,-0.158749 -0.236361,0 -0.363361,0.04586 -0.525638,0.162277 -0.218722,0.15875 -0.303388,0.416277 -0.303388,0.670276 0,0.433916 0.264582,0.751416 0.656165,0.751416 0.222249,0 0.409221,-0.0635 0.504471,-0.225778 z m 0,-0.278694 c -0.08467,0.225778 -0.197555,0.299861 -0.342194,0.299861 -0.190499,0 -0.317499,-0.169333 -0.317499,-0.610304 0,-0.476249 0.155222,-0.592666 0.324555,-0.592666 0.165805,0 0.29986,0.119944 0.335138,0.303388 z m 1.086552,-0.359832 v 0.194027 c 0,0.264583 -0.0071,0.444499 -0.03528,0.634999 l 0.0071,0.01058 c 0.07408,-0.0071 0.137583,-0.01058 0.261055,-0.01058 0.119944,0 0.194028,0.0035 0.261055,0.01058 l 0.0071,-0.01058 c -0.02822,-0.201083 -0.03528,-0.366888 -0.03528,-0.634999 V 11.09067 c 0,-0.264582 0.01411,-0.416276 0.03528,-0.627943 0,-0.02469 -0.01058,-0.03528 -0.03175,-0.03528 -0.04939,0.0071 -0.144639,0.01764 -0.243416,0.01764 -0.09172,0 -0.186972,-0.0071 -0.250472,-0.01058 l -0.01058,0.01411 c 0.02822,0.151694 0.03528,0.416277 0.03528,0.68086 z m -0.01764,-1.3123306 c 0,0.1340553 0.10936,0.2434166 0.250471,0.2434166 0.141111,0 0.250472,-0.1093613 0.250472,-0.2434166 0,-0.1340553 -0.109361,-0.2434161 -0.250472,-0.2434161 -0.141111,0 -0.250471,0.1093608 -0.250471,0.2434161 z m 2.607023,1.5063576 v -0.391582 c 0,-0.370416 -0.17286,-0.52211 -0.49036,-0.52211 -0.179916,0 -0.391582,0.109361 -0.553859,0.317499 l -0.01411,-0.01058 c 0,-0.08114 -0.0035,-0.229305 -0.01058,-0.257527 -0.0035,-0.02469 -0.01058,-0.03528 -0.03175,-0.03528 -0.102305,0.01764 -0.33161,0.01764 -0.455082,0.01058 l -0.0071,0.01058 c 0.02822,0.151695 0.03881,0.419805 0.03881,0.684388 v 0.194027 c 0,0.264583 -0.0071,0.444499 -0.03881,0.634999 l 0.0071,0.01058 c 0,0 0.165805,-0.01058 0.289277,-0.01058 0.119944,0 0.218722,0.01058 0.218722,0.01058 l 0.01058,-0.01058 c -0.01764,-0.201083 -0.02117,-0.366888 -0.02117,-0.634999 v -0.359832 c 0.134056,-0.176389 0.282222,-0.282222 0.409222,-0.282222 0.09525,0 0.183444,0.07055 0.183444,0.328083 v 0.313971 c 0,0.264583 0,0.448027 -0.02117,0.634999 l 0.0071,0.01058 c 0,0 0.112888,-0.01058 0.23636,-0.01058 0.119944,0 0.275166,0.01058 0.275166,0.01058 l 0.0071,-0.01058 c -0.03175,-0.201083 -0.03881,-0.366888 -0.03881,-0.634999 z m 1.929694,-0.384527 c 0,-0.123472 -0.07056,-0.26811 -0.179917,-0.342193 0.105833,0.0035 0.232833,0.02469 0.356305,0.03175 l 0.01058,-0.01058 c -0.0071,-0.03175 -0.01058,-0.0635 -0.01058,-0.09525 0,-0.03175 0.0035,-0.07055 0.01058,-0.102305 l -0.01058,-0.01058 c -0.169333,0.01411 -0.391582,0.01764 -0.656165,0.03175 -0.0635,-0.02117 -0.176389,-0.03175 -0.254,-0.03175 -0.380999,0 -0.69497,0.20461 -0.69497,0.543276 0,0.197555 0.102305,0.296333 0.194027,0.359833 0.04939,0.03528 0.137583,0.0635 0.137583,0.0635 l -0.0071,0.01764 c -0.155221,0.05292 -0.306916,0.186971 -0.306916,0.303388 0,0.148166 0.08467,0.243416 0.278694,0.275166 -0.07761,0.04939 -0.211666,0.09878 -0.296332,0.148166 -0.05997,0.07761 -0.07761,0.186972 -0.07761,0.275166 0,0.306916 0.366888,0.402166 0.680859,0.402166 0.229305,0 0.497416,-0.02822 0.71261,-0.134055 0.208138,-0.102306 0.36336,-0.278694 0.36336,-0.465666 0,-0.402166 -0.448027,-0.472721 -0.772581,-0.472721 -0.05997,0 -0.141111,0.0071 -0.22225,0.01764 -0.04939,0.0035 -0.04939,0.0071 -0.06703,0.0071 -0.09878,0 -0.20461,-0.01764 -0.20461,-0.169333 0,-0.05644 0.0035,-0.09878 0.04233,-0.158749 0.04939,0.02117 0.144639,0.0388 0.264583,0.0388 0.409221,0 0.709082,-0.194027 0.709082,-0.52211 z m -0.973665,1.07597 c 0.02117,0.0035 0.04939,0.0071 0.08114,0.0071 0.105833,0 0.197555,-0.0035 0.246944,-0.0035 0.197555,0 0.437443,0.01764 0.437443,0.261055 0,0.215194 -0.215194,0.359832 -0.518582,0.359832 -0.119944,0 -0.359833,-0.07408 -0.359833,-0.313971 0,-0.116417 0.02117,-0.215194 0.112889,-0.310444 z m 0.504471,-1.072442 c 0,0.250472 -0.07055,0.377471 -0.239888,0.377471 -0.215194,0 -0.250472,-0.126999 -0.250472,-0.384526 0,-0.232833 0.05644,-0.384527 0.239888,-0.384527 0.211667,0 0.250472,0.126999 0.250472,0.391582 z m 3.517188,0.380999 v -0.391582 c 0,-0.370416 -0.17286,-0.52211 -0.49036,-0.52211 -0.179916,0 -0.391582,0.109361 -0.55386,0.317499 l -0.01411,-0.01058 c 0,-0.08114 -0.0035,-0.229305 -0.01058,-0.257527 -0.0035,-0.02469 -0.01058,-0.03528 -0.03175,-0.03528 -0.102305,0.01764 -0.33161,0.01764 -0.455082,0.01058 l -0.0071,0.01058 c 0.02822,0.151695 0.03881,0.419805 0.03881,0.684388 v 0.194027 c 0,0.264583 -0.0071,0.444499 -0.03881,0.634999 l 0.0071,0.01058 c 0,0 0.165805,-0.01058 0.289277,-0.01058 0.119944,0 0.218722,0.01058 0.218722,0.01058 l 0.01058,-0.01058 c -0.01764,-0.201083 -0.02117,-0.366888 -0.02117,-0.634999 v -0.359832 c 0.134056,-0.176389 0.282222,-0.282222 0.409222,-0.282222 0.09525,0 0.183444,0.07055 0.183444,0.328083 v 0.313971 c 0,0.264583 0,0.448027 -0.02117,0.634999 l 0.0071,0.01058 c 0,0 0.112888,-0.01058 0.23636,-0.01058 0.119944,0 0.275166,0.01058 0.275166,0.01058 l 0.0071,-0.01058 c -0.03175,-0.201083 -0.03881,-0.366888 -0.03881,-0.634999 z m 1.622777,0.409222 h 0.0071 l 0.01764,0.225777 c 0,0.0071 0.01058,0.01058 0.03175,0.01058 0.04586,-0.0071 0.151694,-0.01058 0.20461,-0.01058 0.04233,0 0.211667,0.0035 0.257528,0.01058 l 0.0071,-0.01058 c -0.02822,-0.151694 -0.05997,-0.412749 -0.05997,-0.677332 v -0.201083 c 0,-0.264583 0,-0.448027 0.03175,-0.634999 l -0.0035,-0.01058 c 0,0 -0.148166,0.01058 -0.271638,0.01058 -0.119944,0 -0.239888,-0.01058 -0.239888,-0.01058 l -0.0071,0.01058 c 0.02469,0.197556 0.02469,0.366889 0.02469,0.634999 v 0.282222 c 0,0.20461 -0.23636,0.359832 -0.39511,0.359832 -0.105833,0 -0.208138,-0.03528 -0.201083,-0.324555 l 0.0071,-0.317499 c 0.0071,-0.264583 0.01058,-0.455082 0.02822,-0.634999 l -0.0035,-0.01058 c 0,0 -0.141111,0.01058 -0.264583,0.01058 -0.119944,0 -0.246944,-0.01058 -0.246944,-0.01058 l -0.0071,0.01058 c 0.02117,0.201083 0.03175,0.381 0.02822,0.634999 l -0.0071,0.433916 c -0.0035,0.243416 0.119944,0.479777 0.469193,0.479777 0.144639,0 0.39511,-0.04939 0.592665,-0.261055 z m 1.075966,-0.479777 c 0,0.264583 -0.01058,0.515054 -0.04233,0.705554 l 0.0035,0.01058 c 0,0 0.148167,-0.01058 0.271638,-0.01058 0.119945,0 0.268111,0.01058 0.268111,0.01058 l 0.0071,-0.01058 c -0.02822,-0.201083 -0.04233,-0.440971 -0.04233,-0.705554 v -1.058331 c 0,-0.264583 0.01411,-0.448027 0.04233,-0.663221 0,-0.024694 -0.01764,-0.035278 -0.03881,-0.035278 -0.08819,0.035278 -0.359832,0.1058331 -0.504471,0.1164164 l -0.0071,0.010583 c 0.02822,0.1516942 0.04233,0.3951096 0.04233,0.6632206 z m 1.072445,0 c 0,0.264583 -0.01058,0.515054 -0.04233,0.705554 l 0.0035,0.01058 c 0,0 0.148166,-0.01058 0.271638,-0.01058 0.119945,0 0.268111,0.01058 0.268111,0.01058 l 0.0071,-0.01058 c -0.02822,-0.201083 -0.04233,-0.440971 -0.04233,-0.705554 v -1.058331 c 0,-0.264583 0.01411,-0.448027 0.04233,-0.663221 0,-0.024694 -0.01764,-0.035278 -0.0388,-0.035278 -0.08819,0.035278 -0.359833,0.1058331 -0.504471,0.1164164 l -0.0071,0.010583 c 0.02822,0.1516942 0.04233,0.3951096 0.04233,0.6632206 z m 1.968498,-0.80786 c -0.07055,0 -0.148166,-0.0035 -0.190499,-0.01058 -0.01764,0.05997 -0.04233,0.116417 -0.07761,0.169333 l 0.01764,0.02469 c 0.05997,-0.0035 0.169333,-0.0071 0.250471,-0.0071 l -0.01058,0.416277 c -0.0035,0.211666 -0.01058,0.504471 -0.01058,0.610304 0,0.165805 0.116416,0.345722 0.342193,0.345722 0.183444,0 0.366888,-0.03175 0.518583,-0.123472 0,-0.05645 -0.02117,-0.109361 -0.05997,-0.134056 -0.07761,0.03881 -0.112888,0.04233 -0.20461,0.04233 -0.09525,0 -0.130528,-0.137583 -0.130528,-0.282222 0,-0.0071 0,-0.01764 0,-0.02469 0,-0.109361 0,-0.275167 0.0035,-0.472722 l 0.0071,-0.377471 h 0.134055 c 0.08467,0 0.208138,0.0035 0.253999,0.0071 0.0071,-0.05292 0.02117,-0.112889 0.04233,-0.165806 l -0.01764,-0.02822 c -0.06703,0.0071 -0.165805,0.01058 -0.246944,0.01058 h -0.165805 c 0,-0.197555 0.0035,-0.303388 0.01764,-0.4903596 0,-0.024694 -0.01058,-0.035278 -0.03175,-0.035278 -0.08819,0.035278 -0.278694,0.1269996 -0.419805,0.1587496 l -0.0071,0.01058 c -0.01058,0.09525 -0.01411,0.215194 -0.01411,0.356304 z m 2.511775,1.135942 c -0.162278,0.130528 -0.335138,0.144639 -0.483305,0.144639 -0.172861,0 -0.29986,-0.04586 -0.384527,-0.137583 -0.07761,-0.08467 -0.116416,-0.208138 -0.116416,-0.370416 h 0.352777 c 0.352777,0 0.652637,0.0071 0.652637,0.0071 l 0.02117,-0.02117 c 0,-0.440971 -0.123472,-0.793748 -0.666749,-0.793748 -0.194027,0 -0.405693,0.05997 -0.543276,0.176388 -0.172861,0.141111 -0.289277,0.352777 -0.289277,0.645582 0,0.208139 0.07761,0.42686 0.222249,0.578554 0.119944,0.123472 0.328083,0.183445 0.592666,0.183445 0.253999,0 0.507998,-0.08114 0.698498,-0.303389 0,-0.04586 -0.02117,-0.109361 -0.05644,-0.109361 z m -0.970137,-0.52211 c 0.01411,-0.17286 0.05644,-0.296332 0.109361,-0.366888 0.04233,-0.05997 0.112888,-0.105833 0.211666,-0.105833 0.144639,0 0.229305,0.162278 0.229305,0.472721 z m 1.975551,-0.33161 -0.01411,-0.01058 c 0,-0.08114 -0.0035,-0.229305 -0.01058,-0.257527 -0.0035,-0.02469 -0.01058,-0.03528 -0.03175,-0.03528 -0.102305,0.01764 -0.33161,0.01764 -0.455082,0.01058 l -0.0071,0.01058 c 0.02822,0.151695 0.03881,0.419805 0.03881,0.684388 v 0.194027 c 0,0.264583 -0.0071,0.444499 -0.03528,0.634999 l 0.0035,0.01058 c 0,0 0.112889,-0.01058 0.236361,-0.01058 0.119944,0 0.289277,0.01058 0.289277,0.01058 l 0.0071,-0.01058 c -0.02822,-0.201083 -0.03528,-0.366888 -0.03528,-0.634999 v -0.257527 c 0,-0.271638 0.243416,-0.313972 0.296332,-0.313972 0.06703,0 0.141111,0.01764 0.204611,0.06703 l 0.0635,-0.0071 0.07056,-0.363361 -0.01411,-0.01411 c -0.05997,-0.01764 -0.116416,-0.02469 -0.179916,-0.02469 -0.165805,0 -0.335138,0.179916 -0.42686,0.317499 z m 1.453441,0 -0.01411,-0.01058 c 0,-0.08114 -0.0035,-0.229305 -0.01058,-0.257527 -0.0035,-0.02469 -0.01058,-0.03528 -0.03175,-0.03528 -0.102306,0.01764 -0.331611,0.01764 -0.455083,0.01058 l -0.0071,0.01058 c 0.02822,0.151695 0.0388,0.419805 0.0388,0.684388 v 0.194027 c 0,0.264583 -0.01411,0.444499 -0.04233,0.634999 l 0.0035,0.01058 c 0,0 0.148166,-0.01058 0.271638,-0.01058 0.119944,0 0.261055,0.01058 0.261055,0.01058 l 0.0071,-0.01058 c -0.02822,-0.201083 -0.03528,-0.366888 -0.03528,-0.634999 v -0.356305 c 0.148166,-0.179916 0.275166,-0.285749 0.373944,-0.285749 0.134055,0 0.208138,0.04939 0.208138,0.285749 v 0.356305 c 0,0.264583 -0.01411,0.444499 -0.04233,0.634999 l 0.0035,0.01058 c 0,0 0.158749,-0.01058 0.282221,-0.01058 0.119944,0 0.257527,0.01058 0.257527,0.01058 l 0.0071,-0.01058 c -0.02822,-0.201083 -0.04233,-0.366888 -0.04233,-0.634999 v -0.310444 c 0,-0.04939 0,-0.0635 -0.0035,-0.105833 0.169333,-0.186971 0.246944,-0.225777 0.384527,-0.225777 0.112888,0 0.194027,0.07761 0.194027,0.313972 v 0.328082 c 0,0.264583 -0.01411,0.444499 -0.04233,0.634999 l 0.0035,0.01058 c 0,0 0.158749,-0.01058 0.282221,-0.01058 0.119944,0 0.257528,0.01058 0.257528,0.01058 l 0.0071,-0.01058 c -0.02822,-0.201083 -0.04233,-0.366888 -0.04233,-0.634999 v -0.352777 c 0,-0.352777 -0.123472,-0.560915 -0.504471,-0.560915 -0.176389,0 -0.359833,0.07056 -0.560916,0.282221 -0.07055,-0.176388 -0.165805,-0.282221 -0.483304,-0.282221 -0.172861,0 -0.391583,0.144638 -0.525638,0.317499 z m 2.702268,0.402166 v 0.194027 c 0,0.264583 -0.0071,0.444499 -0.03528,0.634999 l 0.0071,0.01058 c 0.07408,-0.0071 0.137584,-0.01058 0.261055,-0.01058 0.119945,0 0.194028,0.0035 0.261055,0.01058 l 0.0071,-0.01058 c -0.02822,-0.201083 -0.03528,-0.366888 -0.03528,-0.634999 V 11.09067 c 0,-0.264582 0.01411,-0.416276 0.03528,-0.627943 0,-0.02469 -0.01058,-0.03528 -0.03175,-0.03528 -0.04939,0.0071 -0.144638,0.01764 -0.243416,0.01764 -0.09172,0 -0.186972,-0.0071 -0.250472,-0.01058 l -0.01058,0.01411 c 0.02822,0.151694 0.03528,0.416277 0.03528,0.68086 z M 86.76919,9.8171454 c 0,0.1340553 0.109361,0.2434166 0.250471,0.2434166 0.141111,0 0.250472,-0.1093613 0.250472,-0.2434166 0,-0.1340553 -0.109361,-0.2434161 -0.250472,-0.2434161 -0.14111,0 -0.250471,0.1093608 -0.250471,0.2434161 z m 2.607027,1.5063576 v -0.391582 c 0,-0.370416 -0.17286,-0.52211 -0.49036,-0.52211 -0.179916,0 -0.391582,0.109361 -0.553859,0.317499 l -0.01411,-0.01058 c 0,-0.08114 -0.0035,-0.229305 -0.01058,-0.257527 -0.0035,-0.02469 -0.01058,-0.03528 -0.03175,-0.03528 -0.102305,0.01764 -0.33161,0.01764 -0.455082,0.01058 l -0.0071,0.01058 c 0.02822,0.151695 0.03881,0.419805 0.03881,0.684388 v 0.194027 c 0,0.264583 -0.0071,0.444499 -0.03881,0.634999 l 0.0071,0.01058 c 0,0 0.165805,-0.01058 0.289277,-0.01058 0.119944,0 0.218722,0.01058 0.218722,0.01058 l 0.01058,-0.01058 c -0.01764,-0.201083 -0.02117,-0.366888 -0.02117,-0.634999 v -0.359832 c 0.134056,-0.176389 0.282222,-0.282222 0.409222,-0.282222 0.09525,0 0.183444,0.07055 0.183444,0.328083 v 0.313971 c 0,0.264583 0,0.448027 -0.02117,0.634999 l 0.0071,0.01058 c 0,0 0.112888,-0.01058 0.23636,-0.01058 0.119945,0 0.275166,0.01058 0.275166,0.01058 l 0.0071,-0.01058 c -0.03175,-0.201083 -0.03881,-0.366888 -0.03881,-0.634999 z m 1.852079,0.352777 c 0,-0.102305 0.01411,-0.656165 0.01411,-0.69497 0,-0.211667 -0.04233,-0.342194 -0.141111,-0.430388 -0.112889,-0.102306 -0.324555,-0.141111 -0.493888,-0.141111 -0.253999,0 -0.592665,0.112888 -0.677332,0.186972 l -0.01058,0.01411 0.07056,0.264582 0.116416,0.0035 c 0.119944,-0.176388 0.275166,-0.278694 0.433916,-0.278694 0.155222,0 0.243416,0.08819 0.243416,0.359833 0,0.02469 -0.01058,0.0388 -0.02117,0.04233 l -0.412749,0.109361 c -0.338666,0.08114 -0.543277,0.261055 -0.543277,0.500943 0,0.243416 0.236361,0.381 0.483305,0.381 0.137583,0 0.324555,-0.04586 0.483304,-0.204611 h 0.0071 c 0.04939,0.144638 0.127,0.204611 0.278694,0.204611 0.137583,0 0.313971,-0.03528 0.419804,-0.116417 -0.0035,-0.03175 -0.01411,-0.05644 -0.03528,-0.07408 -0.141111,0 -0.215194,-0.01058 -0.215194,-0.127 z m -0.444499,-0.500943 -0.0071,0.328082 c 0,0.04586 -0.02822,0.134056 -0.05292,0.15875 -0.08114,0.08114 -0.162278,0.119944 -0.261055,0.119944 -0.105833,0 -0.183444,-0.105833 -0.183444,-0.201083 0,-0.126999 0.04586,-0.285749 0.222249,-0.33161 z m 1.04069,-0.730249 c -0.07055,0 -0.148166,-0.0035 -0.190499,-0.01058 -0.01764,0.05997 -0.04233,0.116417 -0.07761,0.169333 l 0.01764,0.02469 c 0.05997,-0.0035 0.169333,-0.0071 0.250471,-0.0071 l -0.01058,0.416277 c -0.0035,0.211666 -0.01058,0.504471 -0.01058,0.610304 0,0.165805 0.116416,0.345722 0.342193,0.345722 0.183444,0 0.366889,-0.03175 0.518583,-0.123472 0,-0.05645 -0.02117,-0.109361 -0.05997,-0.134056 -0.07761,0.03881 -0.112889,0.04233 -0.204611,0.04233 -0.09525,0 -0.130528,-0.137583 -0.130528,-0.282222 0,-0.0071 0,-0.01764 0,-0.02469 0,-0.109361 0,-0.275167 0.0035,-0.472722 l 0.0071,-0.377471 h 0.134055 c 0.08467,0 0.208138,0.0035 0.253999,0.0071 0.0071,-0.05292 0.02117,-0.112889 0.04233,-0.165806 l -0.01764,-0.02822 c -0.06703,0.0071 -0.165805,0.01058 -0.246944,0.01058 H 92.27957 c 0,-0.197555 0.0035,-0.303388 0.01764,-0.4903596 0,-0.024694 -0.01058,-0.035278 -0.03175,-0.035278 -0.0882,0.035278 -0.278694,0.1269996 -0.419805,0.1587496 l -0.0071,0.01058 c -0.01058,0.09525 -0.01411,0.215194 -0.01411,0.356304 z m 1.075972,0.790221 c 0,0.469193 0.328083,0.758471 0.853721,0.758471 0.539748,0 0.85372,-0.303389 0.85372,-0.790221 0,-0.444499 -0.250472,-0.793748 -0.846665,-0.793748 -0.504471,0 -0.860776,0.278694 -0.860776,0.825498 z m 0.836082,-0.64911 c 0.29986,0 0.370416,0.22225 0.370416,0.71261 0,0.405693 -0.144639,0.518582 -0.303389,0.518582 -0.366888,0 -0.402165,-0.391582 -0.402165,-0.663221 0,-0.306916 0.03175,-0.567971 0.335138,-0.567971 z m 1.809747,0.141111 -0.01411,-0.01058 c 0,-0.08114 -0.0035,-0.229305 -0.01058,-0.257527 -0.0035,-0.02469 -0.01058,-0.03528 -0.03175,-0.03528 -0.102305,0.01764 -0.33161,0.01764 -0.455082,0.01058 l -0.0071,0.01058 c 0.02822,0.151695 0.03881,0.419805 0.03881,0.684388 v 0.194027 c 0,0.264583 -0.0071,0.444499 -0.03528,0.634999 l 0.0035,0.01058 c 0,0 0.112888,-0.01058 0.23636,-0.01058 0.119944,0 0.289277,0.01058 0.289277,0.01058 l 0.0071,-0.01058 c -0.02822,-0.201083 -0.03528,-0.366888 -0.03528,-0.634999 v -0.257527 c 0,-0.271638 0.243416,-0.313972 0.296333,-0.313972 0.06703,0 0.141111,0.01764 0.204611,0.06703 l 0.0635,-0.0071 0.07056,-0.363361 -0.01411,-0.01411 c -0.05997,-0.01764 -0.116417,-0.02469 -0.179916,-0.02469 -0.165806,0 -0.335139,0.179916 -0.426861,0.317499 z m 1.668633,0.342194 c 0,-0.472721 -0.20461,-1.030109 -0.814915,-1.6086634 l -0.112888,0.09525 c 0.116416,0.1340553 0.465665,0.5961934 0.465665,1.5239964 0,0.927804 -0.352777,1.368775 -0.465665,1.495775 l 0.112888,0.09878 c 0.419805,-0.359832 0.814915,-1.005414 0.814915,-1.605135 z"
         id="text10"
         style="font-weight:bold;font-size:3.52777px;font-family:'Libertinus Sans';-inkscape-font-specification:'Libertinus Sans Bold';text-align:center;text-anchor:middle;stroke:#252525;stroke-width:0;stroke-linecap:round;stroke-linejoin:round;paint-order:markers fill stroke"
         aria-label="Length of string in bytes (including null terminator)" />
    </g>
    <g
       id="g21">
      <path
         d="m 5.4702573,-5.4128847 c 0.4889501,0 1.1310058,-0.3901723 1.1310058,-1.5656281 0,-1.1655781 -0.6074834,-1.4964837 -1.1063113,-1.4964837 -0.6371168,0 -1.1359447,0.5531557 -1.1359447,1.5409337 0,0.8099779 0.3901723,1.5211781 1.1112502,1.5211781 z m 0.024694,-2.8398617 c 0.1926167,0 0.404989,0.3012723 0.404989,1.1754558 0,1.1853336 -0.227189,1.4520336 -0.4247446,1.4520336 -0.4099278,0 -0.4099278,-0.8149168 -0.4099278,-1.2396614 0,-0.00494 0,-0.00988 0,-0.014817 0,-1.2001503 0.2321278,-1.3730114 0.4296834,-1.373011 z"
         id="text13"
         style="font-weight:bold;font-size:4.93889px;font-family:'Libertinus Sans';-inkscape-font-specification:'Libertinus Sans Bold';text-align:center;text-anchor:middle;fill:#444444;stroke:#252525;stroke-width:0;stroke-linecap:round;stroke-linejoin:round;paint-order:markers fill stroke"
         transform="translate(-3.9687499,8.9324641)"
         aria-label="0" />
      <path
         d="m 112.52266,-5.6153792 c -0.37041,0 -0.38523,-0.1975556 -0.54821,-0.4889501 l -0.21731,0.00494 -0.10866,0.3901723 0.0198,0.024694 c 0.12347,0.1086555 0.38523,0.2765778 0.84455,0.2765778 0.7112,0 1.26435,-0.3407834 1.26435,-0.943328 0,-0.4741334 -0.41486,-0.6865057 -0.78034,-0.7210779 v -0.014817 c 0.36054,-0.093839 0.63711,-0.3407834 0.63711,-0.7556502 0,-0.4642556 -0.38523,-0.6321779 -0.98777,-0.6321779 -0.43463,0 -0.8001,0.1679223 -0.92358,0.2765779 l -0.0148,0.019756 0.10371,0.3901723 0.21732,0.00494 c 0.14816,-0.3062112 0.242,-0.4840112 0.57291,-0.4840112 0.19261,0 0.40499,0.2420056 0.40499,0.5037668 0,0.4099278 -0.27658,0.627239 -0.78035,0.6618112 v 0.1975556 c 0.0593,-0.00988 0.19756,-0.00988 0.24201,-0.00988 0.28151,0 0.55809,0.1086556 0.55809,0.5778502 0,0.5729112 -0.3309,0.7210779 -0.50377,0.7210779 z m 2.6028,-2.5929172 c 0.1778,0 0.37535,0.1975556 0.37535,0.5037668 0,0.3160889 -0.0148,0.5729112 -0.30621,0.8692446 l -0.36547,0.360539 c -0.48402,0.493889 -0.63218,0.7210779 -0.63218,1.0124724 l 0.005,0.019756 c 0.47907,-0.00988 0.85442,-0.019756 1.22978,-0.019756 0.37042,0 0.48895,0.00494 0.85937,0.019756 -0.0148,-0.064206 -0.0296,-0.1679223 -0.0296,-0.2321279 0,-0.064205 0.0148,-0.2617611 0.0296,-0.3259667 -0.28646,0.019756 -0.42475,0.04445 -0.91864,0.04445 h -0.40499 c 0,-0.079022 0.1778,-0.3259667 0.28152,-0.4247445 l 0.49389,-0.4790724 c 0.28152,-0.2716389 0.52352,-0.4642556 0.52352,-0.8396113 0,-0.5334001 -0.51364,-0.7754057 -1.10137,-0.7754057 -0.3556,0 -0.79516,0.1629834 -0.91863,0.271639 l -0.0148,0.019755 0.10372,0.3901723 0.21731,0.00494 c 0.16298,-0.2913945 0.3309,-0.4198056 0.57291,-0.4198056 z"
         id="text13-1"
         style="font-weight:bold;font-size:4.93889px;font-family:'Libertinus Sans';-inkscape-font-specification:'Libertinus Sans Bold';text-align:center;text-anchor:middle;fill:#444444;stroke:#252525;stroke-width:0;stroke-linecap:round;stroke-linejoin:round;paint-order:markers fill stroke"
         transform="translate(-3.9687499,8.9324641)"
         aria-label="32" />
    </g>
  </g>
</svg>
