<?xml version="1.0" encoding="UTF-8" standalone="no"?>
<!-- Created with Inkscape (http://www.inkscape.org/) -->

<svg
   width="600"
   height="300"
   viewBox="0 0 158.74999 79.375007"
   version="1.1"
   id="svg1"
   xmlns="http://www.w3.org/2000/svg"
   xmlns:svg="http://www.w3.org/2000/svg">
  <defs
     id="defs1" />
  <g
     id="bit-markers">
    <path
       d="m 6.3595752,14.281456 c 0.4889501,0 1.1310058,-0.390172 1.1310058,-1.565628 0,-1.165578 -0.6074835,-1.496484 -1.1063114,-1.496484 -0.6371168,0 -1.1359447,0.553156 -1.1359447,1.540934 0,0.809978 0.3901723,1.521178 1.1112503,1.521178 z m 0.024694,-2.839862 c 0.1926167,0 0.404989,0.301273 0.404989,1.175456 0,1.185334 -0.227189,1.452034 -0.4247446,1.452034 -0.4099278,0 -0.4099278,-0.814917 -0.4099278,-1.239662 0,-0.0049 0,-0.0099 0,-0.01482 0,-1.200151 0.2321278,-1.373012 0.4296834,-1.373012 z"
       id="0"
       style="font-weight:bold;font-size:4.93889px;font-family:'Libertinus Sans';-inkscape-font-specification:'Libertinus Sans Bold';fill:#252525;stroke-width:0.529167;stroke-linecap:square;paint-order:markers fill stroke"
       aria-label="0" />
    <path
       d="m 65.524075,13.298617 v -1.249539 c 0,-0.5334 0.04445,-0.735895 0.05433,-0.805039 0,-0.0247 -0.01482,-0.0247 -0.03457,-0.0247 -0.321028,0.103717 -0.869244,0.2667 -1.328561,0.370417 l 0.0099,0.212372 c 0.217311,-0.02963 0.439561,-0.02963 0.538339,-0.02963 0.08396,0 0.0889,0.143228 0.0889,0.321028 v 1.205089 c 0,0.385233 -0.0099,0.656872 -0.05433,0.93345 l 0.0049,0.01482 c 0,0 0.197555,-0.01482 0.380294,-0.01482 0.1778,0 0.390173,0.01482 0.390173,0.01482 l 0.0099,-0.01482 c -0.04445,-0.296333 -0.05927,-0.543278 -0.05927,-0.93345 z m 3.096683,-1.876778 c 0.01482,-0.05927 0.0099,-0.153106 -0.02963,-0.202495 -0.696383,0.01976 -1.0668,0.153106 -1.442156,0.479073 -0.375355,0.325966 -0.5334,0.84455 -0.5334,1.318683 0,1.056923 0.582789,1.264356 1.081617,1.264356 0.770467,0 1.056922,-0.6223 1.056922,-1.056922 0,-0.242006 -0.167922,-0.795162 -0.9779,-0.795162 -0.118533,0 -0.330905,0.07902 -0.508705,0.172861 0.03951,-0.3556 0.207433,-0.696383 0.439561,-0.884061 0.291394,-0.237067 0.632178,-0.281517 0.913694,-0.296333 z m -1.37795,1.382889 c 0.187678,-0.118533 0.276578,-0.128411 0.365478,-0.128411 0.286456,0 0.484011,0.340783 0.484011,0.637117 0,0.5334 -0.158044,0.775405 -0.335844,0.775405 -0.246945,0 -0.518584,-0.192616 -0.518584,-1.051983 0,-0.05433 0,-0.1778 0.0049,-0.232128 z"
       id="16"
       style="font-weight:bold;font-size:4.93889px;font-family:'Libertinus Sans';-inkscape-font-specification:'Libertinus Sans Bold';fill:#252525;stroke-width:0.529167;stroke-linecap:square;paint-order:markers fill stroke"
       aria-label="16" />
    <path
       d="m 123.85199,14.078962 c -0.37042,0 -0.38524,-0.197556 -0.54822,-0.488951 l -0.21731,0.0049 -0.10866,0.390173 0.0198,0.02469 c 0.12347,0.108656 0.38523,0.276578 0.84455,0.276578 0.7112,0 1.26435,-0.340784 1.26435,-0.943328 0,-0.474134 -0.41486,-0.686506 -0.78034,-0.721078 v -0.01482 c 0.36054,-0.09384 0.63712,-0.340783 0.63712,-0.75565 0,-0.464256 -0.38524,-0.632178 -0.98778,-0.632178 -0.43462,0 -0.8001,0.167922 -0.92357,0.276578 l -0.0148,0.01976 0.10372,0.390172 0.21731,0.0049 c 0.14816,-0.306211 0.242,-0.484011 0.57291,-0.484011 0.19262,0 0.40499,0.242005 0.40499,0.503766 0,0.409928 -0.27658,0.627239 -0.78035,0.661812 v 0.197555 c 0.0593,-0.0099 0.19756,-0.0099 0.24201,-0.0099 0.28152,0 0.55809,0.108656 0.55809,0.577851 0,0.572911 -0.3309,0.721078 -0.50376,0.721078 z m 2.60279,-2.592918 c 0.1778,0 0.37536,0.197556 0.37536,0.503767 0,0.316089 -0.0148,0.572911 -0.30621,0.869245 l -0.36548,0.360539 c -0.48401,0.493889 -0.63218,0.721078 -0.63218,1.012472 l 0.005,0.01976 c 0.47907,-0.0099 0.85443,-0.01976 1.22978,-0.01976 0.37042,0 0.48895,0.0049 0.85937,0.01976 -0.0148,-0.06421 -0.0296,-0.167923 -0.0296,-0.232128 0,-0.06421 0.0148,-0.261761 0.0296,-0.325967 -0.28646,0.01976 -0.42475,0.04445 -0.91863,0.04445 h -0.40499 c 0,-0.07902 0.1778,-0.325967 0.28151,-0.424744 l 0.49389,-0.479073 c 0.28152,-0.271639 0.52353,-0.464255 0.52353,-0.839611 0,-0.5334 -0.51365,-0.775406 -1.10138,-0.775406 -0.3556,0 -0.79516,0.162984 -0.91863,0.271639 l -0.0148,0.01976 0.10372,0.390172 0.21731,0.0049 c 0.16298,-0.291395 0.33091,-0.419806 0.57291,-0.419806 z"
       id="32"
       style="font-weight:bold;font-size:4.93889px;font-family:'Libertinus Sans';-inkscape-font-specification:'Libertinus Sans Bold';fill:#252525;stroke-width:0.529167;stroke-linecap:square;paint-order:markers fill stroke"
       aria-label="32" />
  </g>
  <g
     id="object-id">
    <rect
       style="fill:#f3e2ca;fill-opacity:1;stroke:#4a3413;stroke-width:0.529167;stroke-linecap:square;stroke-dasharray:none;stroke-opacity:1;paint-order:markers fill stroke"
       id="obj-id-box"
       width="118.53333"
       height="12.7"
       x="6.879168"
       y="17.200302" />
    <path
       d="m 58.927634,23.246945 c 0,-0.977902 -0.676629,-1.624898 -1.728615,-1.624898 -1.002597,0 -1.703921,0.750713 -1.703921,1.718737 0,0.928514 0.730958,1.580448 1.70886,1.580448 1.056924,0 1.723676,-0.686507 1.723676,-1.674287 z m -1.792821,-1.353258 c 0.696385,0 0.997658,0.419806 0.997658,1.447097 0,0.884063 -0.266701,1.308809 -0.829735,1.308809 -0.592668,0 -1.012475,-0.444501 -1.012475,-1.39277 0,-1.037169 0.370418,-1.363136 0.844552,-1.363136 z m 3.126323,0.508706 c 0,-0.365478 0.01976,-0.62724 0.05927,-0.928513 0,-0.03457 -0.01482,-0.04939 -0.04445,-0.04939 -0.123473,0.04939 -0.513646,0.148167 -0.716141,0.162984 l -0.0099,0.01482 c 0.03951,0.212372 0.05927,0.553156 0.05927,0.928513 v 1.679226 c 0,0.192617 -0.01975,0.58279 -0.03951,0.691446 0.01482,0.0099 0.02469,0.01975 0.05433,0.02469 0.05927,-0.0099 0.286456,-0.108656 0.355601,-0.108656 0.05433,0 0.202495,0.02963 0.281517,0.06421 0.07902,0.03457 0.296334,0.03951 0.474134,0.03951 0.256823,0 0.523524,-0.07902 0.740835,-0.261761 0.242006,-0.207434 0.414868,-0.543279 0.414868,-0.982841 0,-0.291396 -0.0889,-0.558096 -0.27164,-0.726019 -0.192617,-0.1778 -0.414867,-0.246945 -0.676629,-0.246945 -0.212373,0 -0.385234,0.04939 -0.681568,0.27164 z m 0.08396,2.20275 c -0.06914,-0.04445 -0.08396,-0.128412 -0.08396,-0.266701 v -1.086558 c 0.242006,-0.172861 0.345723,-0.212373 0.464257,-0.212373 0.301272,0 0.464256,0.256823 0.464256,0.735897 0,0.281517 -0.03457,0.508706 -0.108656,0.661812 -0.08396,0.177801 -0.237067,0.237067 -0.375356,0.237067 -0.167923,0 -0.281517,-0.01975 -0.36054,-0.06914 z m 2.360797,-0.893941 -0.0049,0.587729 c -0.0049,0.513646 -0.01482,1.284114 -0.321029,1.284114 -0.13335,0 -0.2667,-0.123473 -0.316089,-0.212373 l -0.133351,0.03457 c 0,0.162983 0,0.469195 -0.02469,0.558095 l 0.0049,0.01482 c 0.03457,0.01976 0.296334,0.03951 0.385234,0.03951 0.286456,0 0.651935,-0.13335 0.814919,-0.365478 0.162983,-0.232129 0.237067,-0.563035 0.242006,-0.923575 l 0.0099,-1.071741 c 0.0049,-0.370418 0.01976,-0.577851 0.04445,-0.879124 0,-0.03457 -0.01482,-0.04939 -0.04445,-0.04939 -0.06914,0.0099 -0.202494,0.02469 -0.340784,0.02469 -0.128411,0 -0.256822,-0.01482 -0.350662,-0.01482 l -0.01482,0.01975 c 0.03951,0.212373 0.05433,0.577851 0.04939,0.953208 z m -0.0247,-1.837271 c 0,0.187678 0.153106,0.340784 0.350662,0.340784 0.197556,0 0.350662,-0.153106 0.350662,-0.340784 0,-0.187678 -0.153106,-0.340784 -0.350662,-0.340784 -0.197556,0 -0.350662,0.153106 -0.350662,0.340784 z m 3.338698,2.46945 c -0.227189,0.182739 -0.469195,0.202495 -0.676629,0.202495 -0.242006,0 -0.419806,-0.06421 -0.53834,-0.192617 -0.108656,-0.118534 -0.162984,-0.291395 -0.162984,-0.518585 h 0.49389 c 0.49389,0 0.913697,0.0099 0.913697,0.0099 l 0.02963,-0.02963 c 0,-0.617363 -0.172861,-1.111253 -0.933452,-1.111253 -0.271639,0 -0.567973,0.08396 -0.76059,0.246945 -0.242007,0.197556 -0.40499,0.49389 -0.40499,0.903819 0,0.291395 0.108656,0.597607 0.31115,0.80998 0.167923,0.172861 0.459318,0.256822 0.829736,0.256822 0.3556,0 0.711201,-0.113594 0.977902,-0.424745 0,-0.06421 -0.02963,-0.153106 -0.07902,-0.153106 z M 64.6617,23.612424 c 0.01976,-0.242006 0.07902,-0.414868 0.153106,-0.513646 0.05927,-0.08396 0.158045,-0.148167 0.296334,-0.148167 0.202495,0 0.321028,0.22719 0.321028,0.661813 z m 3.155954,-0.661813 c 0.192617,0 0.335845,0.143228 0.444501,0.414868 l 0.138289,-0.0049 0.118534,-0.479073 -0.0099,-0.01482 c -0.153106,-0.07902 -0.488951,-0.162984 -0.735896,-0.162984 -0.661813,0 -1.21497,0.395112 -1.21497,1.17052 0,0.306211 0.09878,0.548217 0.266701,0.730957 0.1778,0.192617 0.508707,0.316089 0.879124,0.316089 0.375357,0 0.592668,-0.07902 0.814919,-0.2667 -0.0099,-0.04939 -0.0247,-0.113595 -0.0247,-0.192617 l -0.07902,-0.0247 c -0.138289,0.167923 -0.380295,0.237067 -0.577851,0.237067 -0.143229,0 -0.340785,-0.123472 -0.429685,-0.2667 -0.0889,-0.143228 -0.148167,-0.380296 -0.148167,-0.661813 0,-0.237067 0.03951,-0.424745 0.118534,-0.558096 0.09878,-0.153105 0.2667,-0.237067 0.439562,-0.237067 z m 1.308809,-0.197556 c -0.09878,0 -0.207434,-0.0049 -0.2667,-0.01482 -0.02469,0.08396 -0.05927,0.162983 -0.108656,0.237067 l 0.02469,0.03457 C 68.859763,23.004939 69.012868,23 69.126463,23 l -0.01482,0.58279 c -0.0049,0.296334 -0.01482,0.706263 -0.01482,0.85443 0,0.232128 0.162983,0.484012 0.479073,0.484012 0.256823,0 0.513646,-0.04445 0.726018,-0.172861 0,-0.07902 -0.02963,-0.153106 -0.08396,-0.187678 -0.108656,0.05433 -0.158045,0.05927 -0.286456,0.05927 -0.13335,0 -0.182739,-0.192617 -0.182739,-0.395112 0,-0.0099 0,-0.02469 0,-0.03457 0,-0.153106 0,-0.385234 0.0049,-0.661812 L 69.763581,23 h 0.187678 c 0.118534,0 0.291396,0.0049 0.355601,0.0099 0.0099,-0.07408 0.02963,-0.158045 0.05927,-0.232128 l -0.02469,-0.03951 c -0.09384,0.0099 -0.232129,0.01482 -0.345723,0.01482 h -0.232129 c 0,-0.276578 0.0049,-0.424745 0.02469,-0.686507 0,-0.03457 -0.01482,-0.04939 -0.04445,-0.04939 -0.123473,0.04939 -0.390173,0.177801 -0.587729,0.222251 l -0.0099,0.01482 c -0.01482,0.133351 -0.01976,0.301273 -0.01976,0.498829 z m 2.997913,-0.07902 v 1.21003 c 0,0.370418 -0.01976,0.72108 -0.05927,0.98778 l 0.0049,0.01482 c 0,0 0.237067,-0.01482 0.409929,-0.01482 0.167922,0 0.40499,0.01482 0.40499,0.01482 l 0.0099,-0.01482 c -0.03951,-0.281517 -0.05927,-0.617362 -0.05927,-0.98778 v -1.21003 c 0,-0.370418 0.01976,-0.726018 0.05927,-0.98778 l -0.0049,-0.01482 c 0,0 -0.237067,0.01482 -0.409928,0.01482 -0.167923,0 -0.40499,-0.01482 -0.40499,-0.01482 l -0.0099,0.01482 c 0.03951,0.281517 0.05927,0.617362 0.05927,0.98778 z m 2.034827,-0.98778 c -0.167923,0 -0.414868,-0.01482 -0.414868,-0.01482 l -0.0099,0.01482 c 0.03951,0.281517 0.05927,0.617362 0.05927,0.98778 v 1.21003 c 0,0.370418 -0.01976,0.72108 -0.05927,0.98778 l 0.0049,0.01482 c 0,0 0.246945,-0.01482 0.419807,-0.01482 0.385234,0 0.553157,0.0099 0.982841,0.0099 0.696385,0 1.654531,-0.365478 1.654531,-1.580448 0,-0.972963 -0.795162,-1.629837 -1.743431,-1.629837 -0.350662,0 -0.543279,0.01482 -0.893941,0.01482 z m 0.345723,2.686761 v -2.192871 c 0,-0.172862 0.118533,-0.246945 0.36054,-0.246945 1.066802,0 1.135947,0.726018 1.135947,1.486609 0,0.997658 -0.31609,1.200152 -1.012475,1.200152 -0.375356,0 -0.484012,-0.0889 -0.484012,-0.246945 z"
       id="obj-id-text"
       style="font-weight:bold;font-size:4.9389px;font-family:'Libertinus Sans';-inkscape-font-specification:'Libertinus Sans Bold';text-align:center;text-anchor:middle;fill:#372e1a;stroke-width:0.529167;stroke-linecap:square;paint-order:markers fill stroke"
       aria-label="Object ID" />
  </g>
  <g
     id="size">
    <rect
       style="fill:#f3e2ca;fill-opacity:1;stroke:#4a3413;stroke-width:0.529167;stroke-linecap:square;stroke-dasharray:none;stroke-opacity:1;paint-order:markers fill stroke"
       id="size-box"
       width="59.266666"
       height="12.7"
       x="6.879168"
       y="29.900301" />
    <path
       d="m 14.368776,34.392559 c -0.1778,1.056924 -0.439562,2.296588 -0.651935,3.239918 0.05433,-0.01482 0.167923,-0.01482 0.22719,-0.01482 0.05433,0 0.22225,0 0.276578,0.01482 0.01976,-0.523523 0.143228,-1.57057 0.271639,-2.336099 l 0.01482,0.0049 c 0.36054,0.790224 0.676629,1.57551 0.938391,2.316345 h 0.31609 c 0.360539,-0.819858 0.76059,-1.565632 1.175458,-2.321283 h 0.01482 c 0.09384,0.780346 0.158044,1.516242 0.227189,2.336099 0.07408,-0.01482 0.311151,-0.01482 0.385234,-0.01482 0.07408,0 0.286456,0 0.36054,0.01482 -0.153106,-1.071741 -0.261762,-2.024949 -0.390173,-3.239918 h -0.439562 l -1.234725,2.296588 h -0.01976 c -0.385234,-0.780346 -0.67169,-1.501425 -0.968024,-2.296588 z m 5.966189,2.696639 c -0.22719,0.18274 -0.469196,0.202495 -0.676629,0.202495 -0.242007,0 -0.419807,-0.06421 -0.538341,-0.192617 -0.108655,-0.118534 -0.162983,-0.291395 -0.162983,-0.518584 h 0.49389 c 0.49389,0 0.913696,0.0099 0.913696,0.0099 l 0.02963,-0.02963 c 0,-0.617363 -0.172862,-1.111253 -0.933452,-1.111253 -0.27164,0 -0.567974,0.08396 -0.760591,0.246945 -0.242006,0.197556 -0.40499,0.49389 -0.40499,0.903819 0,0.291395 0.108656,0.597607 0.311151,0.80998 0.167922,0.172861 0.459318,0.256823 0.829735,0.256823 0.355601,0 0.711202,-0.113595 0.977902,-0.424746 0,-0.06421 -0.02963,-0.153106 -0.07902,-0.153106 z m -1.358198,-0.730957 c 0.01976,-0.242006 0.07902,-0.414868 0.153106,-0.513646 0.05927,-0.08396 0.158045,-0.148167 0.296334,-0.148167 0.202495,0 0.321029,0.22719 0.321029,0.661813 z m 1.92123,0.701324 -0.07902,0.474134 c 0.266701,0.09878 0.592668,0.133351 0.770469,0.133351 0.642057,0 0.913696,-0.311151 0.913696,-0.651935 0,-0.444501 -0.350662,-0.58279 -0.701324,-0.770469 -0.162983,-0.0889 -0.296334,-0.172861 -0.296334,-0.330906 0,-0.138289 0.04939,-0.242006 0.242006,-0.242006 0.242007,0 0.385235,0.232128 0.44944,0.370417 l 0.133351,-0.0049 0.09384,-0.444501 -0.0099,-0.01482 c -0.13335,-0.07408 -0.419807,-0.128412 -0.656874,-0.128412 -0.444501,0 -0.834674,0.217312 -0.834674,0.597607 0,0.345723 0.242006,0.523524 0.523524,0.67663 0.360539,0.197556 0.469195,0.286456 0.469195,0.484012 0,0.232128 -0.153106,0.242006 -0.340784,0.242006 -0.172862,0 -0.380295,-0.108656 -0.528462,-0.395112 z m 2.069401,0 -0.07902,0.474134 c 0.266701,0.09878 0.592668,0.133351 0.770468,0.133351 0.642057,0 0.913697,-0.311151 0.913697,-0.651935 0,-0.444501 -0.350662,-0.58279 -0.701324,-0.770469 -0.162984,-0.0889 -0.296334,-0.172861 -0.296334,-0.330906 0,-0.138289 0.04939,-0.242006 0.242006,-0.242006 0.242006,0 0.385234,0.232128 0.44944,0.370417 l 0.13335,-0.0049 0.09384,-0.444501 -0.0099,-0.01482 c -0.133351,-0.07408 -0.419807,-0.128412 -0.656874,-0.128412 -0.444501,0 -0.834674,0.217312 -0.834674,0.597607 0,0.345723 0.242006,0.523524 0.523523,0.67663 0.36054,0.197556 0.469196,0.286456 0.469196,0.484012 0,0.232128 -0.153106,0.242006 -0.340784,0.242006 -0.172862,0 -0.380296,-0.108656 -0.528463,-0.395112 z m 3.961002,0.162984 c 0,-0.143229 0.01975,-0.918636 0.01975,-0.972964 0,-0.296334 -0.05927,-0.479073 -0.197556,-0.602546 -0.158044,-0.143228 -0.454378,-0.197556 -0.691446,-0.197556 -0.3556,0 -0.829735,0.158045 -0.948268,0.261762 l -0.01482,0.01976 0.09878,0.370417 0.162984,0.0049 c 0.167922,-0.246945 0.385234,-0.390173 0.607484,-0.390173 0.217312,0 0.340784,0.123473 0.340784,0.503768 0,0.03457 -0.01482,0.05433 -0.02963,0.05927 l -0.577851,0.153106 c -0.474135,0.113594 -0.760591,0.365478 -0.760591,0.701323 0,0.340784 0.330906,0.533402 0.676629,0.533402 0.192617,0 0.454379,-0.06421 0.67663,-0.286457 h 0.0099 c 0.06915,0.202495 0.177801,0.286457 0.390174,0.286457 0.192617,0 0.439562,-0.04939 0.587729,-0.162984 -0.0049,-0.04445 -0.01976,-0.07902 -0.04939,-0.103717 -0.197556,0 -0.301273,-0.01482 -0.301273,-0.1778 z m -0.622302,-0.701324 -0.0099,0.459317 c 0,0.06421 -0.03951,0.187679 -0.07408,0.222251 -0.113595,0.113595 -0.227189,0.167923 -0.365479,0.167923 -0.148167,0 -0.256822,-0.148167 -0.256822,-0.281518 0,-0.1778 0.06421,-0.400051 0.31115,-0.464256 z m 3.279434,-0.330907 c 0,-0.172861 -0.09878,-0.375356 -0.251884,-0.479073 0.148167,0.0049 0.325967,0.03457 0.498829,0.04445 l 0.01482,-0.01482 c -0.0099,-0.04445 -0.01482,-0.0889 -0.01482,-0.133351 0,-0.04445 0.0049,-0.09878 0.01482,-0.143228 l -0.01482,-0.01482 c -0.237067,0.01976 -0.548218,0.0247 -0.918636,0.04445 -0.0889,-0.02963 -0.246945,-0.04445 -0.3556,-0.04445 -0.533402,0 -0.972964,0.286457 -0.972964,0.760591 0,0.276578 0.143228,0.414868 0.27164,0.503768 0.06914,0.04939 0.192617,0.0889 0.192617,0.0889 l -0.0099,0.0247 c -0.217312,0.07408 -0.429684,0.261761 -0.429684,0.424745 0,0.207434 0.118533,0.340784 0.390173,0.385234 -0.108656,0.06914 -0.296334,0.138289 -0.414868,0.207434 -0.08396,0.108656 -0.108656,0.261762 -0.108656,0.385234 0,0.429684 0.513646,0.563035 0.953208,0.563035 0.321029,0 0.696385,-0.03951 0.997658,-0.187678 0.291395,-0.143229 0.508707,-0.390174 0.508707,-0.651935 0,-0.563035 -0.627241,-0.661813 -1.081619,-0.661813 -0.08396,0 -0.197556,0.0099 -0.311151,0.0247 -0.06915,0.0049 -0.06915,0.0099 -0.09384,0.0099 -0.138289,0 -0.286456,-0.02469 -0.286456,-0.237067 0,-0.07902 0.0049,-0.138289 0.05927,-0.22225 0.06915,0.02963 0.202495,0.05433 0.370418,0.05433 0.572912,0 0.992719,-0.27164 0.992719,-0.730958 z m -1.363137,1.506365 c 0.02963,0.0049 0.06915,0.0099 0.113595,0.0099 0.148167,0 0.276578,-0.0049 0.345723,-0.0049 0.276578,0 0.612424,0.02469 0.612424,0.365478 0,0.301273 -0.301273,0.503768 -0.726019,0.503768 -0.167922,0 -0.503767,-0.103717 -0.503767,-0.439562 0,-0.162984 0.02963,-0.301273 0.158044,-0.434623 z m 0.706263,-1.501426 c 0,0.350662 -0.09878,0.528463 -0.335845,0.528463 -0.301273,0 -0.350662,-0.177801 -0.350662,-0.53834 0,-0.325968 0.07902,-0.538341 0.335845,-0.538341 0.296334,0 0.350662,0.177801 0.350662,0.548218 z m 3.373272,0.893941 c -0.227189,0.18274 -0.469195,0.202495 -0.676629,0.202495 -0.242006,0 -0.419807,-0.06421 -0.53834,-0.192617 -0.108656,-0.118534 -0.162984,-0.291395 -0.162984,-0.518584 h 0.49389 c 0.49389,0 0.913696,0.0099 0.913696,0.0099 l 0.02963,-0.02963 c 0,-0.617363 -0.172862,-1.111253 -0.933452,-1.111253 -0.27164,0 -0.567974,0.08396 -0.760591,0.246945 -0.242006,0.197556 -0.40499,0.49389 -0.40499,0.903819 0,0.291395 0.108656,0.597607 0.311151,0.80998 0.167923,0.172861 0.459318,0.256823 0.829735,0.256823 0.355601,0 0.711202,-0.113595 0.977902,-0.424746 0,-0.06421 -0.02963,-0.153106 -0.07902,-0.153106 z m -1.358197,-0.730957 c 0.01975,-0.242006 0.07902,-0.414868 0.153105,-0.513646 0.05927,-0.08396 0.158045,-0.148167 0.296334,-0.148167 0.202495,0 0.321029,0.22719 0.321029,0.661813 z m 4.138794,1.051986 c -0.301272,0 -0.71614,-0.325968 -0.889002,-0.587729 l -0.128411,0.0049 c -0.01976,0.1778 -0.05927,0.454378 -0.09878,0.602545 l 0.0099,0.01482 c 0,0 0.459318,0.222251 1.061863,0.222251 0.726019,0 1.180397,-0.464257 1.180397,-0.968025 0,-0.53834 -0.577851,-0.819857 -0.977902,-1.002597 -0.2667,-0.123472 -0.503768,-0.246945 -0.503768,-0.607484 0,-0.246945 0.18274,-0.479074 0.44944,-0.479074 0.296334,0 0.587729,0.350662 0.716141,0.592668 l 0.148167,-0.0049 c 0.01975,-0.177801 0.05433,-0.444501 0.09878,-0.592668 l -0.0099,-0.01482 c 0,0 -0.40499,-0.222251 -1.007536,-0.222251 -0.558095,0 -1.066802,0.330907 -1.066802,0.85443 0,0.187678 0.03457,0.380295 0.153106,0.533401 0.227189,0.296334 0.612424,0.484012 0.893941,0.627241 0.232128,0.118533 0.429684,0.316089 0.429684,0.518584 0,0.350662 -0.162984,0.508707 -0.459318,0.508707 z m 1.871843,-0.953208 v 0.27164 c 0,0.370417 -0.0099,0.622301 -0.04939,0.889002 l 0.0099,0.01482 c 0.103717,-0.0099 0.192617,-0.01482 0.365479,-0.01482 0.167922,0 0.271639,0.0049 0.365478,0.01482 l 0.0099,-0.01482 c -0.03951,-0.281518 -0.04939,-0.513646 -0.04939,-0.889002 v -0.325968 c 0,-0.370417 0.01976,-0.58279 0.04939,-0.879124 0,-0.03457 -0.01482,-0.04939 -0.04445,-0.04939 -0.06914,0.0099 -0.202495,0.02469 -0.340784,0.02469 -0.128411,0 -0.261762,-0.0099 -0.350662,-0.01482 l -0.01482,0.01975 c 0.03951,0.212373 0.04939,0.582791 0.04939,0.953208 z m -0.02469,-1.837271 c 0,0.187678 0.153106,0.340784 0.350662,0.340784 0.197556,0 0.350662,-0.153106 0.350662,-0.340784 0,-0.187678 -0.153106,-0.340784 -0.350662,-0.340784 -0.197556,0 -0.350662,0.153106 -0.350662,0.340784 z m 2.459575,1.17052 -1.131008,1.669348 c -0.03951,0.05927 -0.05927,0.07902 -0.103717,0.123472 l 0.0099,0.04939 c 0,0 0.548218,-0.01482 0.686508,-0.01482 h 1.116191 c 0.09878,0 0.202495,0.0049 0.276578,0.01482 l 0.0099,-0.01482 c -0.0049,-0.06421 -0.0099,-0.113595 -0.0099,-0.158045 0,-0.04445 0.0049,-0.133351 0.0099,-0.172862 l -0.0099,-0.01482 c 0,0 -0.612423,0.04939 -1.205091,0.05433 l 1.101374,-1.619959 c 0.08396,-0.123472 0.118534,-0.172861 0.148167,-0.207434 0,-0.01975 -0.0049,-0.02963 -0.02469,-0.02963 -0.0247,0 -0.256823,0.02963 -0.400051,0.02963 h -1.244603 c -0.09878,0 -0.202495,-0.0049 -0.276578,-0.01482 l -0.0099,0.01482 c 0.0049,0.06421 0.0099,0.113595 0.0099,0.158045 0,0.04445 -0.0049,0.133351 -0.0099,0.172862 l 0.0099,0.01482 c 0,0 0.49389,-0.04445 1.047047,-0.05433 z m 3.264608,1.29893 c -0.22719,0.18274 -0.469196,0.202495 -0.67663,0.202495 -0.242006,0 -0.419806,-0.06421 -0.53834,-0.192617 -0.108655,-0.118534 -0.162983,-0.291395 -0.162983,-0.518584 h 0.49389 c 0.49389,0 0.913696,0.0099 0.913696,0.0099 l 0.02963,-0.02963 c 0,-0.617363 -0.172862,-1.111253 -0.933453,-1.111253 -0.271639,0 -0.567973,0.08396 -0.76059,0.246945 -0.242006,0.197556 -0.40499,0.49389 -0.40499,0.903819 0,0.291395 0.108656,0.597607 0.311151,0.80998 0.167922,0.172861 0.459317,0.256823 0.829735,0.256823 0.355601,0 0.711202,-0.113595 0.977902,-0.424746 0,-0.06421 -0.02963,-0.153106 -0.07902,-0.153106 z m -1.358198,-0.730957 c 0.01976,-0.242006 0.07902,-0.414868 0.153106,-0.513646 0.05927,-0.08396 0.158045,-0.148167 0.296334,-0.148167 0.202495,0 0.321029,0.22719 0.321029,0.661813 z m 3.106565,0.01482 c 0,0.661812 0.286456,1.442159 1.140886,2.252138 l 0.158045,-0.13335 c -0.162984,-0.187678 -0.651935,-0.834674 -0.651935,-2.133605 0,-1.298931 0.49389,-1.916293 0.651935,-2.094094 l -0.158045,-0.138289 c -0.587729,0.503768 -1.140886,1.407587 -1.140886,2.2472 z m 2.587976,-1.224847 c 0,-0.365479 0.01976,-0.627241 0.05927,-0.928514 0,-0.03457 -0.01482,-0.04939 -0.04445,-0.04939 -0.123473,0.04939 -0.513646,0.148167 -0.716141,0.162984 l -0.0099,0.01482 c 0.03951,0.212372 0.05927,0.553157 0.05927,0.928513 v 1.679226 c 0,0.192617 -0.01976,0.58279 -0.03951,0.691446 0.01482,0.0099 0.02469,0.01976 0.05433,0.02469 0.05927,-0.0099 0.286456,-0.108655 0.355601,-0.108655 0.05433,0 0.202494,0.02963 0.281517,0.06421 0.07902,0.03457 0.296334,0.03951 0.474134,0.03951 0.256823,0 0.523524,-0.07902 0.740835,-0.261762 0.242006,-0.207434 0.414868,-0.543279 0.414868,-0.982841 0,-0.291395 -0.0889,-0.558096 -0.27164,-0.726019 -0.192617,-0.1778 -0.414867,-0.246945 -0.676629,-0.246945 -0.212373,0 -0.385234,0.04939 -0.681568,0.27164 z m 0.08396,2.202749 c -0.06914,-0.04445 -0.08396,-0.128411 -0.08396,-0.266701 v -1.086558 c 0.242006,-0.172861 0.345723,-0.212372 0.464256,-0.212372 0.301273,0 0.464257,0.256822 0.464257,0.735896 0,0.281517 -0.03457,0.508706 -0.108656,0.661812 -0.08396,0.177801 -0.237067,0.237068 -0.375356,0.237068 -0.167923,0 -0.281517,-0.01976 -0.36054,-0.06914 z m 1.832336,-1.866904 c 0.222251,0.44944 0.775407,1.595264 0.963086,2.089154 l 0.05927,0.09384 c -0.158044,0.370417 -0.375356,0.750712 -0.597607,1.12113 0.04939,-0.01482 0.266701,-0.02469 0.31609,-0.02469 0.04939,0 0.192617,0.0099 0.242006,0.02469 0.187678,-0.617363 1.318686,-2.973218 1.48167,-3.304124 -0.04939,0.01482 -0.192617,0.01482 -0.242006,0.01482 -0.04939,0 -0.232128,0 -0.281517,-0.01482 -0.158045,0.49389 -0.355601,1.047047 -0.567974,1.521181 l -0.04445,-0.0049 c -0.227189,-0.508707 -0.419806,-1.012474 -0.58279,-1.516242 -0.06421,0.01482 -0.242006,0.01482 -0.311151,0.01482 -0.06421,0 -0.365478,0 -0.434623,-0.01482 z m 3.007787,0.01482 c -0.09878,0 -0.207434,-0.0049 -0.266701,-0.01482 -0.02469,0.08396 -0.05927,0.162983 -0.108656,0.237067 l 0.02469,0.03457 c 0.08396,-0.0049 0.237067,-0.0099 0.350662,-0.0099 l -0.01482,0.582791 c -0.0049,0.296334 -0.01482,0.706262 -0.01482,0.854429 0,0.232129 0.162984,0.484013 0.479074,0.484013 0.256822,0 0.513645,-0.04445 0.726018,-0.172862 0,-0.07902 -0.02963,-0.153106 -0.08396,-0.187678 -0.108656,0.05433 -0.158045,0.05927 -0.286457,0.05927 -0.13335,0 -0.182739,-0.192617 -0.182739,-0.395112 0,-0.0099 0,-0.02469 0,-0.03457 0,-0.153106 0,-0.385234 0.0049,-0.661812 l 0.0099,-0.528463 h 0.187678 c 0.118534,0 0.291395,0.0049 0.355601,0.0099 0.0099,-0.07408 0.02963,-0.158045 0.05927,-0.232128 l -0.0247,-0.03951 c -0.09384,0.0099 -0.232128,0.01482 -0.345723,0.01482 h -0.232128 c 0,-0.276578 0.0049,-0.424745 0.02469,-0.686507 0,-0.03457 -0.01482,-0.04939 -0.04445,-0.04939 -0.123472,0.04939 -0.390173,0.177801 -0.587729,0.222251 l -0.0099,0.01482 c -0.01482,0.13335 -0.01976,0.301272 -0.01976,0.498828 z m 3.516497,1.590326 c -0.227189,0.18274 -0.469196,0.202495 -0.676629,0.202495 -0.242006,0 -0.419807,-0.06421 -0.53834,-0.192617 -0.108656,-0.118534 -0.162984,-0.291395 -0.162984,-0.518584 h 0.49389 c 0.49389,0 0.913696,0.0099 0.913696,0.0099 l 0.02963,-0.02963 c 0,-0.617363 -0.172862,-1.111253 -0.933452,-1.111253 -0.27164,0 -0.567974,0.08396 -0.760591,0.246945 -0.242006,0.197556 -0.40499,0.49389 -0.40499,0.903819 0,0.291395 0.108656,0.597607 0.311151,0.80998 0.167923,0.172861 0.459318,0.256823 0.829735,0.256823 0.355601,0 0.711202,-0.113595 0.977902,-0.424746 0,-0.06421 -0.02963,-0.153106 -0.07902,-0.153106 z m -1.358198,-0.730957 c 0.01976,-0.242006 0.07902,-0.414868 0.153106,-0.513646 0.05927,-0.08396 0.158045,-0.148167 0.296334,-0.148167 0.202495,0 0.321029,0.22719 0.321029,0.661813 z m 1.921228,0.701324 -0.07902,0.474134 c 0.2667,0.09878 0.592668,0.133351 0.770468,0.133351 0.642057,0 0.913697,-0.311151 0.913697,-0.651935 0,-0.444501 -0.350662,-0.58279 -0.701324,-0.770469 -0.162984,-0.0889 -0.296334,-0.172861 -0.296334,-0.330906 0,-0.138289 0.04939,-0.242006 0.242006,-0.242006 0.242006,0 0.385234,0.232128 0.44944,0.370417 l 0.13335,-0.0049 0.09384,-0.444501 -0.0099,-0.01482 c -0.133351,-0.07408 -0.419807,-0.128412 -0.656874,-0.128412 -0.444501,0 -0.834674,0.217312 -0.834674,0.597607 0,0.345723 0.242006,0.523524 0.523523,0.67663 0.36054,0.197556 0.469196,0.286456 0.469196,0.484012 0,0.232128 -0.153106,0.242006 -0.340784,0.242006 -0.172862,0 -0.380296,-0.108656 -0.528463,-0.395112 z m 3.254741,-0.686507 c 0,-0.661813 -0.286456,-1.442159 -1.140886,-2.252139 l -0.158045,0.133351 c 0.162984,0.187678 0.651935,0.834674 0.651935,2.133604 0,1.298931 -0.49389,1.916294 -0.651935,2.094094 l 0.158045,0.138289 c 0.587729,-0.503768 1.140886,-1.407586 1.140886,-2.247199 z"
       id="size-text"
       style="font-weight:bold;font-size:4.9389px;font-family:'Libertinus Sans';-inkscape-font-specification:'Libertinus Sans Bold';text-align:center;text-anchor:middle;fill:#372e1a;stroke-width:0.529167;stroke-linecap:square;paint-order:markers fill stroke"
       aria-label="Message Size (bytes)" />
  </g>
  <g
     id="opcode">
    <rect
       style="fill:#f3e2ca;fill-opacity:1;stroke:#4a3413;stroke-width:0.529167;stroke-linecap:square;stroke-dasharray:none;stroke-opacity:1;paint-order:markers fill stroke"
       id="opcode-box"
       width="59.266659"
       height="12.7"
       x="66.145836"
       y="29.900301" />
    <path
       d="m 71.243365,36.165393 c 0.0889,0 0.182739,0 0.281517,-0.0049 0.138289,0.172861 0.271639,0.404989 0.40499,0.597606 0.246945,0.355601 0.464256,0.716141 0.518584,0.884064 0.09384,-0.01482 0.291395,-0.01482 0.385234,-0.01482 0.09878,0 0.36054,0 0.459318,0.01482 l 0.0099,-0.01482 c -0.251884,-0.286456 -0.76553,-1.140886 -1.07668,-1.555754 0.419806,-0.103717 0.755651,-0.335845 0.755651,-0.829735 0,-0.321028 -0.118533,-0.53834 -0.321028,-0.666751 -0.22719,-0.148167 -0.558096,-0.167923 -0.884063,-0.167923 -0.123473,0 -0.72108,0.03457 -0.869247,0.03457 -0.167922,0 -0.414867,-0.01482 -0.414867,-0.01482 l -0.0099,0.01482 c 0.03951,0.281518 0.05927,0.617363 0.05927,0.98778 v 1.210031 c 0,0.370417 -0.01976,0.721079 -0.05927,0.98778 l 0.0049,0.01482 c 0,0 0.227189,-0.01482 0.400051,-0.01482 0.167922,0 0.395112,0.01482 0.395112,0.01482 l 0.0099,-0.01482 c -0.03951,-0.281517 -0.04939,-0.617363 -0.04939,-0.98778 z m 0.439562,-1.511303 c 0.301273,0 0.533401,0.0099 0.533401,0.592668 0,0.617363 -0.22719,0.642057 -0.706263,0.642057 h -0.2667 v -0.992719 c 0,-0.143228 0.0889,-0.242006 0.439562,-0.242006 z m 3.95606,2.444756 c -0.227189,0.182739 -0.469196,0.202494 -0.676629,0.202494 -0.242006,0 -0.419807,-0.06421 -0.53834,-0.192617 -0.108656,-0.118533 -0.162984,-0.291395 -0.162984,-0.518584 h 0.49389 c 0.49389,0 0.913696,0.0099 0.913696,0.0099 l 0.02963,-0.02963 c 0,-0.617362 -0.172862,-1.111252 -0.933452,-1.111252 -0.27164,0 -0.567974,0.08396 -0.760591,0.246945 -0.242006,0.197556 -0.40499,0.49389 -0.40499,0.903818 0,0.291396 0.108656,0.597607 0.311151,0.80998 0.167923,0.172862 0.459318,0.256823 0.829735,0.256823 0.355601,0 0.711202,-0.113595 0.977902,-0.424746 0,-0.06421 -0.02963,-0.153105 -0.07902,-0.153105 z m -1.358198,-0.730958 c 0.01976,-0.242006 0.07902,-0.414867 0.153106,-0.513645 0.05927,-0.08396 0.158045,-0.148167 0.296334,-0.148167 0.202495,0 0.321029,0.227189 0.321029,0.661812 z m 3.684417,-0.879124 c -0.207434,-0.01482 -0.444501,-0.02963 -0.577852,-0.02963 -0.696385,0 -1.150763,0.49389 -1.150763,1.145825 0,0.350661 0.123472,0.637118 0.291395,0.819857 0.182739,0.197556 0.404989,0.251884 0.735896,0.251884 0.237067,0 0.434623,-0.09878 0.597607,-0.237067 v 0.345723 c 0,0.365478 -0.0049,0.721079 -0.04939,0.98778 l 0.0049,0.01482 c 0,0 0.202494,-0.01482 0.375356,-0.01482 0.167923,0 0.36054,0.01482 0.36054,0.01482 l 0.0099,-0.01482 c -0.03951,-0.281518 -0.04939,-0.617363 -0.04939,-0.98778 v -1.318687 c 0,-0.370417 0.01482,-0.745774 0.05433,-0.958146 l -0.0099,-0.01482 c -0.172862,0.0099 -0.370418,0.0099 -0.592668,-0.0049 z m -0.103717,0.325968 v 1.368075 c -0.128412,0.09878 -0.291395,0.202495 -0.385235,0.202495 -0.286456,0 -0.53834,-0.143228 -0.53834,-0.85443 0,-0.464257 0.09878,-0.824796 0.444501,-0.824796 0.207434,0 0.335846,0.01482 0.479074,0.108656 z m 2.884314,1.496486 h 0.0099 l 0.0247,0.31609 c 0,0.0099 0.01482,0.01482 0.04445,0.01482 0.06421,-0.0099 0.212372,-0.01482 0.286456,-0.01482 0.05927,0 0.296334,0.0049 0.36054,0.01482 l 0.0099,-0.01482 c -0.03951,-0.212373 -0.08396,-0.577851 -0.08396,-0.948269 v -0.281517 c 0,-0.370418 0,-0.627241 0.04445,-0.889002 l -0.0049,-0.01482 c 0,0 -0.207434,0.01482 -0.380295,0.01482 -0.167923,0 -0.335845,-0.01482 -0.335845,-0.01482 l -0.0099,0.01482 c 0.03457,0.276578 0.03457,0.513645 0.03457,0.889002 v 0.395112 c 0,0.286456 -0.330906,0.503768 -0.553157,0.503768 -0.148167,0 -0.291395,-0.04939 -0.281517,-0.454379 l 0.0099,-0.444501 c 0.0099,-0.370418 0.01482,-0.637118 0.03951,-0.889002 l -0.0049,-0.01482 c 0,0 -0.197556,0.01482 -0.370417,0.01482 -0.167923,0 -0.345723,-0.01482 -0.345723,-0.01482 l -0.0099,0.01482 c 0.02963,0.281517 0.04445,0.533401 0.03951,0.889002 l -0.0099,0.607484 c -0.0049,0.340785 0.167923,0.671691 0.656874,0.671691 0.202495,0 0.553157,-0.06914 0.829735,-0.365479 z m 3.294245,-0.212372 c -0.22719,0.182739 -0.469196,0.202494 -0.67663,0.202494 -0.242006,0 -0.419806,-0.06421 -0.53834,-0.192617 -0.108655,-0.118533 -0.162983,-0.291395 -0.162983,-0.518584 h 0.49389 c 0.49389,0 0.913696,0.0099 0.913696,0.0099 l 0.02963,-0.02963 c 0,-0.617362 -0.172862,-1.111252 -0.933453,-1.111252 -0.271639,0 -0.567973,0.08396 -0.76059,0.246945 -0.242006,0.197556 -0.40499,0.49389 -0.40499,0.903818 0,0.291396 0.108656,0.597607 0.311151,0.80998 0.167922,0.172862 0.459317,0.256823 0.829735,0.256823 0.355601,0 0.711202,-0.113595 0.977902,-0.424746 0,-0.06421 -0.02963,-0.153105 -0.07902,-0.153105 z M 82.68185,36.367888 c 0.01976,-0.242006 0.07902,-0.414867 0.153106,-0.513645 0.05927,-0.08396 0.158045,-0.148167 0.296334,-0.148167 0.202495,0 0.321029,0.227189 0.321029,0.661812 z m 1.921229,0.701324 -0.07902,0.474135 c 0.2667,0.09878 0.592668,0.13335 0.770468,0.13335 0.642057,0 0.913696,-0.311151 0.913696,-0.651935 0,-0.444501 -0.350661,-0.58279 -0.701323,-0.770468 -0.162984,-0.0889 -0.296334,-0.172862 -0.296334,-0.330907 0,-0.138289 0.04939,-0.242006 0.242006,-0.242006 0.242006,0 0.385234,0.232129 0.44944,0.370418 l 0.13335,-0.0049 0.09384,-0.444501 -0.0099,-0.01482 c -0.13335,-0.07408 -0.419806,-0.128411 -0.656873,-0.128411 -0.444501,0 -0.834675,0.217311 -0.834675,0.597607 0,0.345723 0.242007,0.523523 0.523524,0.676629 0.36054,0.197556 0.469195,0.286456 0.469195,0.484012 0,0.232128 -0.153106,0.242006 -0.340784,0.242006 -0.172861,0 -0.380295,-0.108656 -0.528462,-0.395112 z m 2.247202,-1.560692 c -0.09878,0 -0.207434,-0.0049 -0.2667,-0.01482 -0.02469,0.08396 -0.05927,0.162984 -0.108656,0.237067 l 0.02469,0.03457 c 0.08396,-0.0049 0.237067,-0.0099 0.350662,-0.0099 l -0.01482,0.58279 c -0.0049,0.296334 -0.01482,0.706263 -0.01482,0.85443 0,0.232128 0.162983,0.484012 0.479073,0.484012 0.256823,0 0.513646,-0.04445 0.726018,-0.172862 0,-0.07902 -0.02963,-0.153106 -0.08396,-0.187678 -0.108656,0.05433 -0.158045,0.05927 -0.286456,0.05927 -0.13335,0 -0.182739,-0.192617 -0.182739,-0.395112 0,-0.0099 0,-0.0247 0,-0.03457 0,-0.153106 0,-0.385235 0.0049,-0.661813 l 0.0099,-0.528462 h 0.187678 c 0.118534,0 0.291396,0.0049 0.355601,0.0099 0.0099,-0.07408 0.02963,-0.158045 0.05927,-0.232129 l -0.02469,-0.03951 c -0.09384,0.0099 -0.232129,0.01482 -0.345723,0.01482 H 87.48738 c 0,-0.276579 0.0049,-0.424746 0.0247,-0.686507 0,-0.03457 -0.01482,-0.04939 -0.04445,-0.04939 -0.123473,0.04939 -0.390173,0.1778 -0.587729,0.22225 l -0.0099,0.01482 c -0.01482,0.13335 -0.01976,0.301273 -0.01976,0.498829 z m 2.844807,-1.071742 h -0.296334 l -1.170519,3.481925 h 0.296334 z m 1.333507,2.20275 V 36.09131 c 0.237067,0 0.829735,0.01482 1.170519,0.04939 l 0.01482,-0.01482 c -0.0099,-0.04445 -0.01482,-0.143228 -0.01482,-0.187678 0,-0.04445 0.0049,-0.138289 0.01482,-0.182739 l -0.01482,-0.01482 c -0.291395,0.0247 -0.587729,0.04939 -1.170519,0.04939 v -0.36054 c 0,-0.08396 0.0049,-0.533401 0.03951,-0.651934 0.661813,0 1.412526,0.05927 1.412526,0.05927 l 0.0099,-0.01976 c -0.0049,-0.03951 -0.0099,-0.158045 -0.0099,-0.202495 0,-0.03951 0.0049,-0.103717 0.0099,-0.172862 l -0.0099,-0.01482 c -0.07902,0.0099 -0.192617,0.01482 -0.296334,0.01482 h -1.501426 c -0.167922,0 -0.414867,-0.01482 -0.414867,-0.01482 l -0.0099,0.01482 c 0.03951,0.281518 0.05927,0.617363 0.05927,0.98778 v 1.210031 c 0,0.370417 -0.01976,0.721079 -0.05927,0.98778 l 0.0049,0.01482 c 0,0 0.246945,-0.01482 0.419806,-0.01482 h 1.550815 c 0.103717,0 0.217311,0.0049 0.296334,0.01482 l 0.0099,-0.01482 c -0.0049,-0.06421 -0.0099,-0.128412 -0.0099,-0.177801 0,-0.04939 0.0049,-0.232128 0.0099,-0.271639 l -0.0099,-0.01976 c 0,0 -0.800102,0.108656 -1.461915,0.108656 -0.03457,-0.118533 -0.03951,-0.543279 -0.03951,-0.62724 z m 2.805295,1.002597 c 0.05433,-0.0099 0.222251,-0.01482 0.27164,-0.01482 0.04939,0 0.167922,0.0049 0.207433,0.01482 0.311151,-0.671691 0.711202,-1.442159 1.081619,-2.148422 -0.04445,0.01482 -0.232128,0.01482 -0.281517,0.01482 -0.04939,0 -0.167922,0 -0.212373,-0.01482 -0.153105,0.44944 -0.409928,1.12113 -0.642057,1.52612 h -0.02963 c -0.197556,-0.469195 -0.409929,-1.061863 -0.558096,-1.52612 -0.06421,0.01482 -0.296334,0.01482 -0.365478,0.01482 -0.07902,0 -0.350662,0 -0.429685,-0.01482 0.350662,0.726018 0.681569,1.427342 0.958147,2.148422 z m 3.832586,-0.543279 c -0.227189,0.182739 -0.469195,0.202494 -0.676629,0.202494 -0.242006,0 -0.419806,-0.06421 -0.53834,-0.192617 -0.108656,-0.118533 -0.162984,-0.291395 -0.162984,-0.518584 h 0.49389 c 0.49389,0 0.913697,0.0099 0.913697,0.0099 l 0.02963,-0.02963 c 0,-0.617362 -0.172861,-1.111252 -0.933452,-1.111252 -0.271639,0 -0.567973,0.08396 -0.760591,0.246945 -0.242006,0.197556 -0.404989,0.49389 -0.404989,0.903818 0,0.291396 0.108655,0.597607 0.31115,0.80998 0.167923,0.172862 0.459318,0.256823 0.829736,0.256823 0.3556,0 0.711201,-0.113595 0.977902,-0.424746 0,-0.06421 -0.02963,-0.153105 -0.07902,-0.153105 z m -1.358197,-0.730958 c 0.01976,-0.242006 0.07902,-0.414867 0.153106,-0.513645 0.05927,-0.08396 0.158045,-0.148167 0.296334,-0.148167 0.202495,0 0.321028,0.227189 0.321028,0.661812 z m 4.183241,0.370418 v -0.548218 c 0,-0.518585 -0.242,-0.730957 -0.686502,-0.730957 -0.251884,0 -0.548218,0.153106 -0.775408,0.444501 l -0.01976,-0.01482 c 0,-0.113595 -0.0049,-0.321028 -0.01482,-0.36054 -0.0049,-0.03457 -0.01482,-0.04939 -0.04445,-0.04939 -0.143228,0.02469 -0.464257,0.02469 -0.637118,0.01482 l -0.0099,0.01482 c 0.03951,0.212372 0.05433,0.587729 0.05433,0.958146 v 0.27164 c 0,0.370417 -0.0099,0.622301 -0.05433,0.889002 l 0.0099,0.01482 c 0,0 0.232128,-0.01482 0.40499,-0.01482 0.167922,0 0.306211,0.01482 0.306211,0.01482 l 0.01482,-0.01482 c -0.02469,-0.281517 -0.02963,-0.513646 -0.02963,-0.889002 V 36.23454 c 0.187678,-0.246945 0.395112,-0.395112 0.572912,-0.395112 0.13335,0 0.256823,0.09878 0.256823,0.459318 v 0.439562 c 0,0.370417 0,0.62724 -0.02963,0.889002 l 0.0099,0.01482 c 0,0 0.158045,-0.01482 0.330902,-0.01482 0.16792,0 0.38523,0.01482 0.38523,0.01482 l 0.01,-0.01482 c -0.0444,-0.281517 -0.0543,-0.513646 -0.0543,-0.889002 z m 0.87913,-1.229786 c -0.0988,0 -0.20743,-0.0049 -0.2667,-0.01482 -0.0247,0.08396 -0.0593,0.162984 -0.10866,0.237067 l 0.0247,0.03457 c 0.084,-0.0049 0.23707,-0.0099 0.35066,-0.0099 l -0.0148,0.58279 c -0.005,0.296334 -0.0148,0.706263 -0.0148,0.85443 0,0.232128 0.16298,0.484012 0.47907,0.484012 0.25682,0 0.51365,-0.04445 0.72602,-0.172862 0,-0.07902 -0.0296,-0.153106 -0.084,-0.187678 -0.10866,0.05433 -0.15805,0.05927 -0.28646,0.05927 -0.13335,0 -0.18274,-0.192617 -0.18274,-0.395112 0,-0.0099 0,-0.0247 0,-0.03457 0,-0.153106 0,-0.385235 0.005,-0.661813 l 0.01,-0.528462 h 0.18768 c 0.11853,0 0.29139,0.0049 0.3556,0.0099 0.01,-0.07408 0.0296,-0.158045 0.0593,-0.232129 l -0.0247,-0.03951 c -0.0938,0.0099 -0.23213,0.01482 -0.34572,0.01482 h -0.23213 c 0,-0.276579 0.005,-0.424746 0.0247,-0.686507 0,-0.03457 -0.0148,-0.04939 -0.0444,-0.04939 -0.12347,0.04939 -0.39017,0.1778 -0.58773,0.22225 l -0.01,0.01482 c -0.0148,0.13335 -0.0198,0.301273 -0.0198,0.498829 z m 6.22795,0.49389 c 0,-0.977902 -0.67663,-1.624898 -1.72861,-1.624898 -1.0026,0 -1.70392,0.750712 -1.70392,1.718737 0,0.928513 0.73096,1.580448 1.70886,1.580448 1.05692,0 1.72367,-0.686507 1.72367,-1.674287 z m -1.79282,-1.353259 c 0.69639,0 0.99766,0.419807 0.99766,1.447098 0,0.884063 -0.2667,1.308808 -0.82973,1.308808 -0.59267,0 -1.01248,-0.444501 -1.01248,-1.392769 0,-1.037169 0.37042,-1.363137 0.84455,-1.363137 z m 3.11645,1.210031 -0.0198,-0.01482 c 0,-0.113595 -0.005,-0.276578 -0.0148,-0.31609 -0.005,-0.03457 -0.0148,-0.04939 -0.0444,-0.04939 -0.14322,0.02469 -0.46425,0.02469 -0.63711,0.01482 l -0.01,0.01482 c 0.0395,0.212372 0.0543,0.587729 0.0543,0.958146 v 1.318687 c 0,0.365478 -0.005,0.721079 -0.0494,0.98778 l 0.005,0.01482 c 0,0 0.19261,-0.01482 0.36547,-0.01482 0.16793,0 0.37042,0.01482 0.37042,0.01482 l 0.01,-0.01482 c -0.0395,-0.281518 -0.0494,-0.617363 -0.0494,-0.98778 V 37.53841 c 0.16298,0.103717 0.34572,0.138289 0.52846,0.138289 0.6223,0 1.10632,-0.513646 1.10632,-1.210031 0,-0.370417 -0.1136,-0.646996 -0.34573,-0.84949 -0.11853,-0.09878 -0.28645,-0.158045 -0.50376,-0.158045 -0.21238,0 -0.52353,0.06914 -0.76553,0.400051 z m -0.0198,0.375356 c 0.10866,-0.261762 0.38524,-0.429684 0.55316,-0.429684 0.30127,0 0.38029,0.316089 0.38029,0.795163 0,0.523523 -0.21731,0.829735 -0.49389,0.829735 -0.12347,0 -0.25682,-0.0247 -0.43956,-0.177801 z m 3.34363,-0.528462 c 0.19262,0 0.33585,0.143228 0.4445,0.414867 l 0.13829,-0.0049 0.11854,-0.479073 -0.01,-0.01482 c -0.15311,-0.07902 -0.48895,-0.162983 -0.7359,-0.162983 -0.66181,0 -1.21497,0.395112 -1.21497,1.170519 0,0.306212 0.0988,0.548218 0.2667,0.730957 0.1778,0.192617 0.50871,0.31609 0.87913,0.31609 0.37535,0 0.59267,-0.07902 0.81492,-0.266701 -0.01,-0.04939 -0.0247,-0.113594 -0.0247,-0.192617 l -0.079,-0.02469 c -0.13829,0.167922 -0.3803,0.237067 -0.57785,0.237067 -0.14323,0 -0.34079,-0.123473 -0.42969,-0.266701 -0.0889,-0.143228 -0.14816,-0.380295 -0.14816,-0.661812 0,-0.237068 0.0395,-0.424746 0.11853,-0.558096 0.0988,-0.153106 0.2667,-0.237067 0.43956,-0.237067 z m 1.0668,0.908757 c 0,0.656874 0.45932,1.061864 1.19522,1.061864 0.75565,0 1.19521,-0.424746 1.19521,-1.106314 0,-0.622301 -0.35066,-1.111252 -1.18533,-1.111252 -0.70627,0 -1.2051,0.390173 -1.2051,1.155702 z m 1.17052,-0.908757 c 0.41981,0 0.51859,0.31115 0.51859,0.997658 0,0.567973 -0.2025,0.726018 -0.42475,0.726018 -0.51364,0 -0.56303,-0.548218 -0.56303,-0.928513 0,-0.429685 0.0444,-0.795163 0.46919,-0.795163 z m 3.29919,1.654531 h 0.01 l 0.0247,0.266701 c 0,0.0099 0.0148,0.01482 0.0445,0.01482 0.0642,-0.0099 0.24201,-0.01482 0.31609,-0.01482 0.0593,0 0.27658,0.0049 0.34079,0.01482 l 0.01,-0.01482 c -0.0395,-0.212373 -0.0938,-0.577851 -0.0938,-0.948269 v -1.521181 c 0,-0.365479 0.0198,-0.62724 0.0593,-0.928513 0,-0.03457 -0.0247,-0.04939 -0.0543,-0.04939 -0.12347,0.04939 -0.50376,0.148167 -0.70626,0.162983 l -0.01,0.01482 c 0.0395,0.212373 0.0593,0.553157 0.0593,0.928513 v 0.395112 c -0.0938,-0.13335 -0.32103,-0.22225 -0.46426,-0.22225 -0.3309,0 -0.5087,0.06421 -0.73589,0.227189 -0.30621,0.222251 -0.42475,0.58279 -0.42475,0.938391 0,0.607485 0.37042,1.051986 0.91864,1.051986 0.31115,0 0.57291,-0.0889 0.70626,-0.31609 z m 0,-0.390173 c -0.11853,0.31609 -0.27658,0.419807 -0.47907,0.419807 -0.2667,0 -0.4445,-0.237068 -0.4445,-0.85443 0,-0.666752 0.21731,-0.829735 0.45437,-0.829735 0.23213,0 0.41981,0.167922 0.4692,0.424745 z m 3.28931,0.128412 c -0.22719,0.182739 -0.4692,0.202494 -0.67663,0.202494 -0.24201,0 -0.41981,-0.06421 -0.53834,-0.192617 -0.10866,-0.118533 -0.16299,-0.291395 -0.16299,-0.518584 h 0.49389 c 0.49389,0 0.9137,0.0099 0.9137,0.0099 l 0.0296,-0.02963 c 0,-0.617362 -0.17286,-1.111252 -0.93345,-1.111252 -0.27164,0 -0.56797,0.08396 -0.76059,0.246945 -0.24201,0.197556 -0.40499,0.49389 -0.40499,0.903818 0,0.291396 0.10866,0.597607 0.31115,0.80998 0.16792,0.172862 0.45932,0.256823 0.82974,0.256823 0.3556,0 0.7112,-0.113595 0.9779,-0.424746 0,-0.06421 -0.0296,-0.153105 -0.079,-0.153105 z m -1.3582,-0.730958 c 0.0198,-0.242006 0.079,-0.414867 0.1531,-0.513645 0.0593,-0.08396 0.15805,-0.148167 0.29634,-0.148167 0.20249,0 0.32103,0.227189 0.32103,0.661812 z"
       id="opcode-text"
       style="font-weight:bold;font-size:4.9389px;font-family:'Libertinus Sans';-inkscape-font-specification:'Libertinus Sans Bold';text-align:center;text-anchor:middle;fill:#372e1a;stroke-width:0.529167;stroke-linecap:square;paint-order:markers fill stroke"
       aria-label="Request/Event Opcode" />
  </g>
  <g
     id="payload">
    <rect
       style="fill:#d7f2c9;fill-opacity:1;stroke:#4a3413;stroke-width:0.529168;stroke-linecap:square;stroke-dasharray:none;stroke-opacity:1;paint-order:markers fill stroke"
       id="payload-box"
       width="118.53333"
       height="25.929165"
       x="6.8791709"
       y="42.6003" />
    <g
       id="payload-text"
       style="font-weight:bold;font-size:4.9389px;font-family:'Libertinus Sans';-inkscape-font-specification:'Libertinus Sans Bold';fill:#372e1a;stroke-width:0.529167;stroke-linecap:square;paint-order:markers fill stroke"
       aria-label="Payload⋮(Size - 8) Bytes">
      <path
         style="text-align:center;text-anchor:middle"
         d="m 57.557849,48.278226 v 1.21003 c 0,0.370418 -0.01976,0.721079 -0.05927,0.98778 l 0.0049,0.01482 c 0,0 0.237067,-0.01482 0.409929,-0.01482 0.167922,0 0.395112,0.01482 0.395112,0.01482 l 0.0099,-0.01482 c -0.03951,-0.281517 -0.05927,-0.617362 -0.05927,-0.98778 v -0.414868 c 0.108656,0.03457 0.271639,0.04939 0.444501,0.04939 0.898879,0 1.224847,-0.53834 1.224847,-1.047046 0,-0.177801 -0.06915,-0.459318 -0.345723,-0.651935 -0.172862,-0.123473 -0.444501,-0.167923 -0.795163,-0.167923 -0.128411,0 -0.726018,0.03457 -0.874185,0.03457 -0.167923,0 -0.40499,-0.01482 -0.40499,-0.01482 l -0.0099,0.01482 c 0.03951,0.281517 0.05927,0.617362 0.05927,0.98778 z m 0.701324,-0.567974 c 0,-0.143228 0.03951,-0.217312 0.395112,-0.217312 0.291395,0 0.528462,0.08396 0.528462,0.671691 0,0.498829 -0.246945,0.706263 -0.533401,0.706263 -0.123473,0 -0.325968,-0.01482 -0.390173,-0.04939 z m 3.951117,2.370672 c 0,-0.143228 0.01976,-0.918635 0.01976,-0.972963 0,-0.296334 -0.05927,-0.479074 -0.197556,-0.602546 -0.158045,-0.143228 -0.454379,-0.197556 -0.691446,-0.197556 -0.355601,0 -0.829735,0.158045 -0.948269,0.261762 l -0.01482,0.01976 0.09878,0.370418 0.162983,0.0049 c 0.167923,-0.246945 0.385234,-0.390173 0.607485,-0.390173 0.217312,0 0.340784,0.123472 0.340784,0.503767 0,0.03457 -0.01482,0.05433 -0.02963,0.05927 L 60.980504,49.2907 c -0.474134,0.113595 -0.76059,0.365479 -0.76059,0.701324 0,0.340784 0.330906,0.533401 0.676629,0.533401 0.192617,0 0.454379,-0.06421 0.676629,-0.286456 h 0.0099 c 0.06914,0.202495 0.177801,0.286456 0.390173,0.286456 0.192617,0 0.439562,-0.04939 0.587729,-0.162984 -0.0049,-0.04445 -0.01976,-0.07902 -0.04939,-0.103717 -0.197556,0 -0.301273,-0.01482 -0.301273,-0.1778 z m -0.622301,-0.701324 -0.0099,0.459318 c 0,0.06421 -0.03951,0.187678 -0.07408,0.22225 -0.113595,0.113595 -0.22719,0.167923 -0.365479,0.167923 -0.148167,0 -0.256823,-0.148167 -0.256823,-0.281517 0,-0.177801 0.06421,-0.400051 0.311151,-0.464257 z m 1.111256,-1.037169 c 0.222251,0.44944 0.775407,1.595265 0.963086,2.089155 l 0.05927,0.09384 c -0.158044,0.370418 -0.375356,0.750713 -0.597606,1.12113 0.04939,-0.01482 0.2667,-0.02469 0.316089,-0.02469 0.04939,0 0.192617,0.0099 0.242006,0.02469 0.187678,-0.617362 1.318687,-2.973217 1.48167,-3.304124 -0.04939,0.01482 -0.192617,0.01482 -0.242006,0.01482 -0.04939,0 -0.232128,0 -0.281517,-0.01482 -0.158045,0.49389 -0.355601,1.047047 -0.567974,1.521181 l -0.04445,-0.0049 c -0.227189,-0.508707 -0.419806,-1.012475 -0.58279,-1.516243 -0.06421,0.01482 -0.242006,0.01482 -0.311151,0.01482 -0.06421,0 -0.365478,0 -0.434623,-0.01482 z m 2.988033,1.145825 c 0,0.370418 -0.01482,0.721079 -0.05927,0.98778 l 0.0049,0.01482 c 0,0 0.207434,-0.01482 0.380295,-0.01482 0.167923,0 0.375357,0.01482 0.375357,0.01482 l 0.0099,-0.01482 c -0.03951,-0.281517 -0.05927,-0.617362 -0.05927,-0.98778 v -1.48167 c 0,-0.370417 0.01976,-0.62724 0.05927,-0.928513 0,-0.03457 -0.0247,-0.04939 -0.05433,-0.04939 -0.123473,0.04939 -0.503768,0.148167 -0.706263,0.162984 l -0.0099,0.01482 c 0.03951,0.212373 0.05927,0.553157 0.05927,0.928513 z m 1.279179,-0.02469 c 0,0.656873 0.459318,1.061863 1.195214,1.061863 0.755652,0 1.195214,-0.424745 1.195214,-1.106314 0,-0.622301 -0.350662,-1.111252 -1.185336,-1.111252 -0.706263,0 -1.205092,0.390173 -1.205092,1.155703 z m 1.170519,-0.908758 c 0.419807,0 0.518585,0.311151 0.518585,0.997658 0,0.567973 -0.202495,0.726018 -0.424745,0.726018 -0.513646,0 -0.563035,-0.548218 -0.563035,-0.928513 0,-0.429684 0.04445,-0.795163 0.469195,-0.795163 z m 3.580702,1.52612 c 0,-0.143228 0.01976,-0.918635 0.01976,-0.972963 0,-0.296334 -0.05927,-0.479074 -0.197556,-0.602546 -0.158045,-0.143228 -0.454379,-0.197556 -0.691446,-0.197556 -0.355601,0 -0.829735,0.158045 -0.948269,0.261762 l -0.01482,0.01976 0.09878,0.370418 0.162984,0.0049 c 0.167923,-0.246945 0.385234,-0.390173 0.607485,-0.390173 0.217311,0 0.340784,0.123472 0.340784,0.503767 0,0.03457 -0.01482,0.05433 -0.02963,0.05927 L 70.487892,49.2907 c -0.474134,0.113595 -0.76059,0.365479 -0.76059,0.701324 0,0.340784 0.330906,0.533401 0.676629,0.533401 0.192617,0 0.454379,-0.06421 0.676629,-0.286456 h 0.0099 c 0.06914,0.202495 0.1778,0.286456 0.390173,0.286456 0.192617,0 0.439562,-0.04939 0.587729,-0.162984 -0.0049,-0.04445 -0.01976,-0.07902 -0.04939,-0.103717 -0.197556,0 -0.301273,-0.01482 -0.301273,-0.1778 z m -0.622301,-0.701324 -0.0099,0.459318 c 0,0.06421 -0.03951,0.187678 -0.07408,0.22225 -0.113595,0.113595 -0.22719,0.167923 -0.365479,0.167923 -0.148167,0 -0.256823,-0.148167 -0.256823,-0.281517 0,-0.177801 0.06421,-0.400051 0.311151,-0.464257 z m 2.854688,0.829735 h 0.0099 l 0.02469,0.266701 c 0,0.0099 0.01482,0.01482 0.04445,0.01482 0.06421,-0.0099 0.242006,-0.01482 0.31609,-0.01482 0.05927,0 0.276578,0.0049 0.340784,0.01482 l 0.0099,-0.01482 C 74.656328,50.263663 74.602,49.898185 74.602,49.527767 v -1.521181 c 0,-0.365479 0.01975,-0.62724 0.05927,-0.928513 0,-0.03457 -0.02469,-0.04939 -0.05433,-0.04939 -0.123473,0.04939 -0.503768,0.148167 -0.706263,0.162984 l -0.0099,0.01482 c 0.03951,0.212373 0.05927,0.553157 0.05927,0.928513 v 0.395112 c -0.09384,-0.13335 -0.321029,-0.22225 -0.464257,-0.22225 -0.330906,0 -0.508706,0.06421 -0.735896,0.227189 -0.306212,0.222251 -0.424745,0.582791 -0.424745,0.938391 0,0.607485 0.370417,1.051986 0.918635,1.051986 0.311151,0 0.572913,-0.0889 0.706263,-0.31609 z m 0,-0.390173 c -0.118534,0.31609 -0.276578,0.419807 -0.479073,0.419807 -0.266701,0 -0.444501,-0.237067 -0.444501,-0.85443 0,-0.666751 0.217311,-0.829735 0.454378,-0.829735 0.232129,0 0.419807,0.167923 0.469196,0.424745 z"
         id="path6" />
      <path
         style="text-align:center;text-anchor:middle"
         d="m 66.097208,54.624713 c -0.207433,0.05433 -0.291395,0.138289 -0.335845,0.340784 v 0.01976 c 0.04445,0.1778 0.133351,0.271639 0.335845,0.340784 h 0.0247 c 0.1778,-0.06421 0.271639,-0.158045 0.335845,-0.340784 v -0.01976 c -0.07408,-0.187678 -0.172861,-0.276578 -0.335845,-0.340784 z m 0,1.30387 c -0.207433,0.05433 -0.291395,0.138289 -0.335845,0.340784 v 0.01975 c 0.04445,0.177801 0.133351,0.27164 0.335845,0.340784 h 0.0247 c 0.1778,-0.06421 0.271639,-0.158044 0.335845,-0.340784 v -0.01975 c -0.07408,-0.187678 -0.172861,-0.276579 -0.335845,-0.340784 z m 0,-2.612678 c -0.207433,0.05433 -0.291395,0.138289 -0.335845,0.340784 v 0.01975 c 0.04445,0.177801 0.133351,0.27164 0.335845,0.340784 h 0.0247 c 0.1778,-0.06421 0.271639,-0.158044 0.335845,-0.340784 v -0.01975 c -0.07409,-0.187679 -0.172866,-0.276579 -0.33585,-0.340784 z"
         id="path7" />
      <path
         style="text-align:center;text-anchor:middle"
         d="m 49.919852,61.994331 c 0,0.661812 0.286456,1.442159 1.140886,2.252138 l 0.158045,-0.13335 c -0.162984,-0.187678 -0.651935,-0.834674 -0.651935,-2.133605 0,-1.298931 0.49389,-1.916293 0.651935,-2.094094 l -0.158045,-0.138289 c -0.587729,0.503768 -1.140886,1.407587 -1.140886,2.2472 z m 2.701575,1.037169 c -0.301273,0 -0.71614,-0.325968 -0.889002,-0.587729 l -0.128411,0.0049 c -0.01976,0.1778 -0.05927,0.454378 -0.09878,0.602545 l 0.0099,0.01482 c 0,0 0.459317,0.222251 1.061863,0.222251 0.726018,0 1.180397,-0.464257 1.180397,-0.968025 0,-0.53834 -0.577851,-0.819857 -0.977902,-1.002597 -0.266701,-0.123472 -0.503768,-0.246945 -0.503768,-0.607484 0,-0.246945 0.182739,-0.479074 0.44944,-0.479074 0.296334,0 0.587729,0.350662 0.716141,0.592668 l 0.148167,-0.0049 c 0.01975,-0.177801 0.05433,-0.444501 0.09878,-0.592668 l -0.0099,-0.01482 c 0,0 -0.40499,-0.222251 -1.007536,-0.222251 -0.558096,0 -1.066802,0.330907 -1.066802,0.85443 0,0.187678 0.03457,0.380295 0.153106,0.533401 0.227189,0.296334 0.612423,0.484012 0.893941,0.627241 0.232128,0.118533 0.429684,0.316089 0.429684,0.518584 0,0.350662 -0.162984,0.508707 -0.459318,0.508707 z m 1.871842,-0.953208 v 0.27164 c 0,0.370417 -0.0099,0.622301 -0.04939,0.889002 l 0.0099,0.01482 c 0.103717,-0.0099 0.192617,-0.01482 0.365479,-0.01482 0.167922,0 0.271639,0.0049 0.365478,0.01482 l 0.0099,-0.01482 c -0.03951,-0.281518 -0.04939,-0.513646 -0.04939,-0.889002 v -0.325968 c 0,-0.370417 0.01976,-0.58279 0.04939,-0.879124 0,-0.03457 -0.01482,-0.04939 -0.04445,-0.04939 -0.06914,0.0099 -0.202495,0.02469 -0.340784,0.02469 -0.128412,0 -0.261762,-0.0099 -0.350662,-0.01482 l -0.01482,0.01976 c 0.03951,0.212373 0.04939,0.582791 0.04939,0.953208 z m -0.02469,-1.837271 c 0,0.187678 0.153106,0.340784 0.350662,0.340784 0.197556,0 0.350661,-0.153106 0.350661,-0.340784 0,-0.187678 -0.153105,-0.340784 -0.350661,-0.340784 -0.197556,0 -0.350662,0.153106 -0.350662,0.340784 z m 2.459573,1.17052 -1.131008,1.669348 c -0.03951,0.05927 -0.05927,0.07902 -0.103717,0.123472 l 0.0099,0.04939 c 0,0 0.548218,-0.01482 0.686507,-0.01482 H 57.506 c 0.09878,0 0.202495,0.0049 0.276578,0.01482 l 0.0099,-0.01482 c -0.0049,-0.06421 -0.0099,-0.113595 -0.0099,-0.158045 0,-0.04445 0.0049,-0.133351 0.0099,-0.172862 l -0.0099,-0.01482 c 0,0 -0.612423,0.04939 -1.205091,0.05433 l 1.101374,-1.619959 c 0.08396,-0.123472 0.118534,-0.172861 0.148167,-0.207434 0,-0.01976 -0.0049,-0.02963 -0.02469,-0.02963 -0.0247,0 -0.256823,0.02963 -0.400051,0.02963 H 56.15768 c -0.09878,0 -0.202495,-0.0049 -0.276578,-0.01482 l -0.0099,0.01482 c 0.0049,0.06421 0.0099,0.113595 0.0099,0.158045 0,0.04445 -0.0049,0.133351 -0.0099,0.172862 l 0.0099,0.01482 c 0,0 0.49389,-0.04445 1.047046,-0.05433 z m 3.26461,1.29893 c -0.22719,0.18274 -0.469196,0.202495 -0.67663,0.202495 -0.242006,0 -0.419806,-0.06421 -0.53834,-0.192617 -0.108656,-0.118534 -0.162984,-0.291395 -0.162984,-0.518584 h 0.49389 c 0.49389,0 0.913697,0.0099 0.913697,0.0099 l 0.02963,-0.02963 c 0,-0.617363 -0.172861,-1.111253 -0.933452,-1.111253 -0.271639,0 -0.567973,0.08396 -0.76059,0.246945 -0.242006,0.197556 -0.40499,0.49389 -0.40499,0.903819 0,0.291395 0.108656,0.597607 0.311151,0.80998 0.167922,0.172861 0.459317,0.256823 0.829735,0.256823 0.355601,0 0.711201,-0.113595 0.977902,-0.424746 0,-0.06421 -0.02963,-0.153106 -0.07902,-0.153106 z M 58.83456,61.979514 c 0.01976,-0.242006 0.07902,-0.414868 0.153106,-0.513646 0.05927,-0.08396 0.158045,-0.148167 0.296334,-0.148167 0.202495,0 0.321028,0.22719 0.321028,0.661813 z m 4.267207,0.167923 c 0.06421,0 0.133351,-0.192617 0.133351,-0.246945 0,-0.04445 -0.01976,-0.113595 -0.06914,-0.113595 H 62.03497 c -0.05927,0 -0.123473,0.172861 -0.123473,0.251884 0,0.04445 0.02963,0.108656 0.07408,0.108656 z m 3.773319,-1.298931 c 0,-0.380295 -0.375357,-0.622301 -0.89888,-0.622301 -0.592668,0 -0.963086,0.31115 -0.963086,0.726018 0,0.276578 0.148167,0.513645 0.439562,0.676629 l 0.0889,0.04939 c -0.419807,0.222251 -0.681569,0.464257 -0.681569,0.839613 0,0.503768 0.533402,0.770469 1.042108,0.770469 0.242006,0 0.577852,-0.04939 0.745774,-0.158045 0.261762,-0.172862 0.370418,-0.409929 0.370418,-0.686507 0,-0.286457 -0.192617,-0.592668 -0.434624,-0.760591 L 66.292294,61.51032 c 0.380296,-0.158045 0.582791,-0.345723 0.582791,-0.661813 z M 65.912,63.090767 c -0.207434,0 -0.434623,-0.212373 -0.434623,-0.572913 0,-0.237067 0.02963,-0.498829 0.325967,-0.721079 l 0.212373,0.113594 c 0.286456,0.187679 0.375356,0.350662 0.375356,0.63218 0,0.469195 -0.227189,0.548218 -0.479073,0.548218 z m 0.03457,-2.667006 c 0.276579,0 0.380296,0.237067 0.380296,0.464256 0,0.266701 -0.172862,0.40499 -0.296334,0.503768 l -0.143228,-0.08396 c -0.202495,-0.118534 -0.31609,-0.321029 -0.31609,-0.474135 0,-0.227189 0.118534,-0.409928 0.375356,-0.409928 z m 2.701579,1.57057 c 0,-0.661813 -0.286456,-1.442159 -1.140886,-2.252139 l -0.158044,0.133351 c 0.162983,0.187678 0.651934,0.834674 0.651934,2.133604 0,1.298931 -0.49389,1.916294 -0.651934,2.094094 l 0.158044,0.138289 c 0.587729,-0.503768 1.140886,-1.407586 1.140886,-2.247199 z m 2.326219,-1.940988 c -0.167923,0 -0.414868,-0.01482 -0.414868,-0.01482 l -0.0099,0.01482 c 0.03951,0.281517 0.05927,0.617363 0.05927,0.98778 v 1.210031 c 0,0.370417 -0.01976,0.721079 -0.05927,0.98778 l 0.0049,0.01482 c 0,0 0.246945,-0.01482 0.419807,-0.01482 0.355601,0 0.469195,0.01482 0.908757,0.01482 0.982842,0 1.34832,-0.498829 1.34832,-0.923574 0,-0.474134 -0.370417,-0.745774 -0.800102,-0.869246 0.251884,-0.123473 0.508707,-0.385235 0.508707,-0.656874 0,-0.330906 -0.246945,-0.76553 -1.16558,-0.76553 -0.172862,0 -0.488951,0.01482 -0.800102,0.01482 z m 0.335845,1.595265 h 0.459318 c 0.577851,0 0.666751,0.424745 0.666751,0.775407 0,0.340784 -0.03457,0.567974 -0.696385,0.567974 -0.345723,0 -0.429684,-0.06914 -0.429684,-0.232129 z m 0,-1.126069 c 0,-0.162984 0.04939,-0.222251 0.44944,-0.222251 0.276578,0 0.444501,0.13335 0.444501,0.563035 0,0.360539 -0.09878,0.523523 -0.508707,0.523523 h -0.385234 z m 2.222501,0.58279 c 0.222251,0.44944 0.775407,1.595264 0.963086,2.089154 l 0.05927,0.09384 c -0.158044,0.370417 -0.375356,0.750712 -0.597606,1.12113 0.04939,-0.01482 0.2667,-0.02469 0.316089,-0.02469 0.04939,0 0.192617,0.0099 0.242006,0.02469 0.187678,-0.617363 1.318687,-2.973218 1.48167,-3.304124 -0.04939,0.01482 -0.192617,0.01482 -0.242006,0.01482 -0.04939,0 -0.232128,0 -0.281517,-0.01482 -0.158045,0.49389 -0.355601,1.047047 -0.567974,1.521181 l -0.04445,-0.0049 c -0.227189,-0.508707 -0.419806,-1.012474 -0.58279,-1.516242 -0.06421,0.01482 -0.242006,0.01482 -0.311151,0.01482 -0.06421,0 -0.365478,0 -0.434623,-0.01482 z m 3.007789,0.01482 c -0.09878,0 -0.207434,-0.0049 -0.266701,-0.01482 -0.02469,0.08396 -0.05927,0.162983 -0.108656,0.237067 l 0.02469,0.03457 c 0.08396,-0.0049 0.237067,-0.0099 0.350662,-0.0099 l -0.01482,0.582791 c -0.0049,0.296334 -0.01482,0.706262 -0.01482,0.854429 0,0.232129 0.162984,0.484013 0.479074,0.484013 0.256822,0 0.513645,-0.04445 0.726018,-0.172862 0,-0.07902 -0.02963,-0.153106 -0.08396,-0.187678 -0.108656,0.05433 -0.158045,0.05927 -0.286457,0.05927 -0.13335,0 -0.182739,-0.192617 -0.182739,-0.395112 0,-0.0099 0,-0.0247 0,-0.03457 0,-0.153106 0,-0.385234 0.0049,-0.661812 l 0.0099,-0.528463 h 0.187678 c 0.118534,0 0.291395,0.0049 0.355601,0.0099 0.0099,-0.07408 0.02963,-0.158045 0.05927,-0.232128 l -0.02469,-0.03951 c -0.09384,0.0099 -0.232128,0.01482 -0.345723,0.01482 h -0.232128 c 0,-0.276578 0.0049,-0.424745 0.02469,-0.686507 0,-0.03457 -0.01482,-0.04939 -0.04445,-0.04939 -0.123472,0.04939 -0.390173,0.177801 -0.587729,0.222251 l -0.0099,0.01482 c -0.01482,0.13335 -0.01976,0.301272 -0.01976,0.498828 z M 80.057,62.710475 c -0.227189,0.18274 -0.469196,0.202495 -0.676629,0.202495 -0.242006,0 -0.419807,-0.06421 -0.53834,-0.192617 -0.108656,-0.118534 -0.162984,-0.291395 -0.162984,-0.518584 h 0.49389 c 0.49389,0 0.913696,0.0099 0.913696,0.0099 l 0.02963,-0.02963 c 0,-0.617363 -0.172862,-1.111253 -0.933452,-1.111253 -0.27164,0 -0.567974,0.08396 -0.760591,0.246945 -0.242006,0.197556 -0.40499,0.49389 -0.40499,0.903819 0,0.291395 0.108656,0.597607 0.311151,0.80998 0.167923,0.172861 0.459318,0.256823 0.829735,0.256823 0.355601,0 0.711202,-0.113595 0.977902,-0.424746 0,-0.06421 -0.02963,-0.153106 -0.07902,-0.153106 z m -1.358198,-0.730957 c 0.01976,-0.242006 0.07902,-0.414868 0.153106,-0.513646 0.05927,-0.08396 0.158045,-0.148167 0.296334,-0.148167 0.202495,0 0.321029,0.22719 0.321029,0.661813 z m 1.921228,0.701324 -0.07902,0.474134 c 0.2667,0.09878 0.592668,0.133351 0.770468,0.133351 0.642057,0 0.913697,-0.311151 0.913697,-0.651935 0,-0.444501 -0.350662,-0.58279 -0.701324,-0.770469 -0.162984,-0.0889 -0.296334,-0.172861 -0.296334,-0.330906 0,-0.138289 0.04939,-0.242006 0.242006,-0.242006 0.242006,0 0.385234,0.232128 0.44944,0.370417 l 0.13335,-0.0049 0.09384,-0.444501 -0.0099,-0.01482 c -0.133351,-0.07408 -0.419807,-0.128412 -0.656874,-0.128412 -0.444501,0 -0.834674,0.217312 -0.834674,0.597607 0,0.345723 0.242006,0.523524 0.523523,0.67663 0.36054,0.197556 0.469196,0.286456 0.469196,0.484012 0,0.232128 -0.153106,0.242006 -0.340784,0.242006 -0.172862,0 -0.380296,-0.108656 -0.528463,-0.395112 z"
         id="path8" />
    </g>
  </g>
  <g
     id="header">
    <path
       d="m 142.35065,29.602463 v 0.40499 h -1.43228 v -0.40499 c 0,-0.370417 0.0197,-0.726018 0.0593,-0.98778 l -0.005,-0.01482 c 0,0 -0.23707,0.01482 -0.40993,0.01482 -0.16793,0 -0.40499,-0.01482 -0.40499,-0.01482 l -0.01,0.01482 c 0.0395,0.281518 0.0593,0.617363 0.0593,0.98778 v 1.210031 c 0,0.370417 -0.0198,0.721079 -0.0593,0.98778 l 0.005,0.01482 c 0,0 0.23707,-0.01482 0.40993,-0.01482 0.16792,0 0.40499,0.01482 0.40499,0.01482 l 0.01,-0.01482 c -0.0395,-0.281517 -0.0593,-0.617363 -0.0593,-0.98778 v -0.548218 h 1.43228 v 0.548218 c 0,0.370417 -0.0198,0.721079 -0.0593,0.98778 l 0.005,0.01482 c 0,0 0.23707,-0.01482 0.40993,-0.01482 0.16792,0 0.40499,0.01482 0.40499,0.01482 l 0.01,-0.01482 c -0.0395,-0.281517 -0.0593,-0.617363 -0.0593,-0.98778 v -1.210031 c 0,-0.370417 0.0198,-0.726018 0.0593,-0.98778 l -0.005,-0.01482 c 0,0 -0.23707,0.01482 -0.40993,0.01482 -0.16792,0 -0.40499,-0.01482 -0.40499,-0.01482 l -0.01,0.01482 c 0.0395,0.281518 0.0593,0.617363 0.0593,0.98778 z m 3.38314,1.669349 c -0.22718,0.182739 -0.46919,0.202494 -0.67662,0.202494 -0.24201,0 -0.41981,-0.0642 -0.53834,-0.192617 -0.10866,-0.118533 -0.16299,-0.291395 -0.16299,-0.518584 h 0.49389 c 0.49389,0 0.9137,0.0099 0.9137,0.0099 l 0.0296,-0.02963 c 0,-0.617362 -0.17286,-1.111252 -0.93345,-1.111252 -0.27164,0 -0.56797,0.08396 -0.76059,0.246945 -0.24201,0.197556 -0.40499,0.49389 -0.40499,0.903818 0,0.291396 0.10866,0.597607 0.31115,0.80998 0.16792,0.172862 0.45932,0.256823 0.82974,0.256823 0.3556,0 0.7112,-0.113595 0.9779,-0.424746 0,-0.06421 -0.0296,-0.153105 -0.079,-0.153105 z m -1.35819,-0.730958 c 0.0198,-0.242006 0.079,-0.414867 0.1531,-0.513645 0.0593,-0.08396 0.15805,-0.148167 0.29634,-0.148167 0.20249,0 0.32103,0.227189 0.32103,0.661812 z m 3.81283,0.864308 c 0,-0.143228 0.0197,-0.918636 0.0197,-0.972963 0,-0.296334 -0.0593,-0.479074 -0.19756,-0.602546 -0.15804,-0.143228 -0.45437,-0.197556 -0.69144,-0.197556 -0.3556,0 -0.82974,0.158045 -0.94827,0.261761 l -0.0148,0.01976 0.0988,0.370418 0.16299,0.0049 c 0.16792,-0.246945 0.38523,-0.390173 0.60748,-0.390173 0.21731,0 0.34078,0.123473 0.34078,0.503768 0,0.03457 -0.0148,0.05433 -0.0296,0.05927 l -0.57785,0.153106 c -0.47414,0.113595 -0.76059,0.365478 -0.76059,0.701324 0,0.340784 0.3309,0.533401 0.67663,0.533401 0.19262,0 0.45438,-0.06421 0.67663,-0.286456 h 0.01 c 0.0691,0.202495 0.1778,0.286456 0.39017,0.286456 0.19262,0 0.43956,-0.04939 0.58773,-0.162984 -0.005,-0.04445 -0.0198,-0.07902 -0.0494,-0.103717 -0.19756,0 -0.30127,-0.01482 -0.30127,-0.1778 z m -0.62231,-0.701324 -0.01,0.459318 c 0,0.0642 -0.0395,0.187678 -0.0741,0.22225 -0.11359,0.113595 -0.22719,0.167923 -0.36548,0.167923 -0.14816,0 -0.25682,-0.148167 -0.25682,-0.281517 0,-0.177801 0.0642,-0.400051 0.31115,-0.464257 z m 2.85469,0.829735 h 0.01 l 0.0247,0.266701 c 0,0.0099 0.0148,0.01482 0.0445,0.01482 0.0642,-0.0099 0.24201,-0.01482 0.31609,-0.01482 0.0593,0 0.27658,0.0049 0.34079,0.01482 l 0.01,-0.01482 c -0.0395,-0.212373 -0.0938,-0.577851 -0.0938,-0.948269 v -1.521181 c 0,-0.365479 0.0197,-0.62724 0.0593,-0.928513 0,-0.03457 -0.0247,-0.04939 -0.0543,-0.04939 -0.12348,0.04939 -0.50377,0.148167 -0.70627,0.162983 l -0.01,0.01482 c 0.0395,0.212373 0.0593,0.553157 0.0593,0.928513 v 0.395112 c -0.0938,-0.13335 -0.32103,-0.22225 -0.46426,-0.22225 -0.3309,0 -0.5087,0.0642 -0.73589,0.227189 -0.30621,0.222251 -0.42475,0.58279 -0.42475,0.938391 0,0.607485 0.37042,1.051986 0.91864,1.051986 0.31115,0 0.57291,-0.0889 0.70626,-0.31609 z m 0,-0.390173 c -0.11853,0.31609 -0.27658,0.419807 -0.47907,0.419807 -0.2667,0 -0.4445,-0.237068 -0.4445,-0.85443 0,-0.666752 0.21731,-0.829735 0.45438,-0.829735 0.23212,0 0.4198,0.167922 0.46919,0.424745 z m 3.28931,0.128412 c -0.22719,0.182739 -0.4692,0.202494 -0.67663,0.202494 -0.24201,0 -0.41981,-0.0642 -0.53834,-0.192617 -0.10866,-0.118533 -0.16299,-0.291395 -0.16299,-0.518584 h 0.49389 c 0.49389,0 0.9137,0.0099 0.9137,0.0099 l 0.0296,-0.02963 c 0,-0.617362 -0.17286,-1.111252 -0.93345,-1.111252 -0.27164,0 -0.56797,0.08396 -0.76059,0.246945 -0.242,0.197556 -0.40499,0.49389 -0.40499,0.903818 0,0.291396 0.10866,0.597607 0.31115,0.80998 0.16792,0.172862 0.45932,0.256823 0.82974,0.256823 0.3556,0 0.7112,-0.113595 0.9779,-0.424746 0,-0.06421 -0.0296,-0.153105 -0.079,-0.153105 z m -1.3582,-0.730958 c 0.0198,-0.242006 0.079,-0.414867 0.15311,-0.513645 0.0593,-0.08396 0.15804,-0.148167 0.29633,-0.148167 0.20249,0 0.32103,0.227189 0.32103,0.661812 z m 2.76578,-0.464256 -0.0198,-0.01482 c 0,-0.113595 -0.005,-0.321028 -0.0148,-0.36054 -0.005,-0.03457 -0.0148,-0.04939 -0.0445,-0.04939 -0.14323,0.02469 -0.46426,0.02469 -0.63712,0.01482 l -0.01,0.01482 c 0.0395,0.212372 0.0543,0.587729 0.0543,0.958146 v 0.27164 c 0,0.370417 -0.01,0.622301 -0.0494,0.889002 l 0.005,0.01482 c 0,0 0.15805,-0.01482 0.33091,-0.01482 0.16792,0 0.40499,0.01482 0.40499,0.01482 l 0.01,-0.01482 c -0.0395,-0.281517 -0.0494,-0.513646 -0.0494,-0.889002 v -0.36054 c 0,-0.380295 0.34078,-0.439562 0.41486,-0.439562 0.0938,0 0.19756,0.02469 0.28646,0.09384 l 0.0889,-0.0099 0.0988,-0.508706 -0.0198,-0.01976 c -0.084,-0.02469 -0.16298,-0.03457 -0.25188,-0.03457 -0.23213,0 -0.4692,0.251884 -0.59761,0.444501 z"
       id="header-text"
       style="font-weight:bold;font-size:4.9389px;font-family:'Libertinus Sans';-inkscape-font-specification:'Libertinus Sans Bold';fill:#252525;stroke-width:0.529167;stroke-linecap:square;paint-order:markers fill stroke"
       aria-label="Header" />
    <path
       style="fill:none;fill-opacity:1;stroke:#252525;stroke-width:0.529167;stroke-linecap:round;stroke-linejoin:round;stroke-dasharray:none;stroke-opacity:1;paint-order:markers fill stroke"
       d="m 128.45522,17.33259 c 12.22903,0 -2.32484,10.583332 9.90419,12.7 -12.22903,2.116664 2.32484,12.7 -9.90419,12.700001"
       id="curly-brace" />
  </g>
</svg>
