<?xml version="1.0" encoding="UTF-8" standalone="no"?>
<svg
   width="150"
   height="250"
   viewBox="0 0 150 250"
   version="1.1"
   id="svg1"
   xmlns="http://www.w3.org/2000/svg"
   xmlns:svg="http://www.w3.org/2000/svg"
   xmlns:rdf="http://www.w3.org/1999/02/22-rdf-syntax-ns#"
   xmlns:cc="http://creativecommons.org/ns#">
  <defs
     id="defs1" />
  <g
     id="layer1">
    <g
       id="g1"
       transform="matrix(1.1668218,0,0,1.1668219,40.375361,55.740492)">
      <path
         style="display:inline;fill:#1a1a1a;fill-opacity:1;stroke:none;stroke-width:0.747164;stroke-linecap:square;stroke-opacity:1;paint-order:stroke fill markers"
         id="path95"
         d="m 17.487169,-27.50419 c -0.227086,0.02096 -0.460926,0.0041 -0.681257,0.06289 -1.764317,0.471147 -3.735927,1.659878 -5.189816,2.680759 -0.839828,0.589703 -1.6843552,1.181883 -2.4449687,1.870743 -0.91995,0.833163 -1.7216314,1.788263 -2.582447,2.682395 -3.6737145,4.550437 -6.68542997,9.570677 -8.7521206,15.0486438 -0.4839085,1.2826386 -0.9381061,2.5797573 -1.2963229,3.9030192 -0.3467702,1.28096122 -0.5434501,2.5979021 -0.8151751,3.8968551 -0.7664376,5.6509657 -0.418117,11.4154409 1.6063364,16.7866229 0.3642203,0.966323 0.8419759,1.885955 1.2629657,2.828933 1.40452359,2.19493 2.17879898,3.634608 3.9950774,5.54083 1.6282694,1.7089 3.735759,3.314806 5.7544555,4.525291 6.6005673,3.95794 5.1951843,3.24213 10.1920713,5.223498 2.829224,0.79607 5.712408,1.257392 8.651223,0.864055 1.922749,-0.257346 4.269765,-0.9296 6.062691,-1.65448 1.005288,-0.406435 1.959369,-0.92954 2.939043,-1.394314 3.751364,-2.103365 7.014302,-4.591187 9.770909,-7.909206 0.661252,-0.795914 1.316855,-1.602526 1.876698,-2.472749 0.588605,-0.914925 1.039205,-1.911598 1.55881,-2.867397 1.555731,-3.731078 2.353728,-7.669165 2.909593,-11.654141 0.461415,-3.3078426 0.669029,-5.2819072 0.639378,-8.6216167 -0.0127,-1.36151672 -0.138939,-2.71959279 -0.208421,-4.0793911 -0.549577,-3.763008 -0.805313,-7.8172312 -2.835972,-11.1547732 -0.99093,-1.628662 -1.43107,-1.860115 -2.80892,-3.137299 -4.279862,-2.893073 -8.8118,-5.390329 -13.826399,-6.69666 -0.59428,-0.154813 -1.199625,-0.263525 -1.799438,-0.395287 -4.633021,-0.703848 -9.327855,-0.585142 -13.994084,-0.410829 -2.22986,0.187826 -4.499821,0.319413 -6.670121,0.912796 -0.9248212,0.252856 -1.4247191,0.479773 -2.3071129,0.831172 0,0 4.4456359,2.981724 4.4456359,2.981724 v 0 c 0.91441,-0.356106 1.2772,-0.524397 2.233002,-0.785441 2.092345,-0.571447 4.265521,-0.800449 6.420355,-0.972125 4.672195,-0.22075 9.383067,-0.271269 14.001737,0.586834 0.590312,0.139855 1.185499,0.260548 1.770929,0.419578 1.147346,0.311661 2.54844,0.793037 3.646977,1.223176 0.645957,0.252926 2.326013,1.367931 1.918464,0.806564 -0.571962,-0.787829 -1.685308,-0.982985 -2.467436,-1.562721 -0.587506,-0.435489 1.254344,0.752271 1.88151,1.128409 1.431593,1.215409 1.855011,1.409391 2.926341,2.989693 2.207254,3.255888 2.696117,7.3810396 3.328707,11.1585389 0.09107,1.3557898 0.245735,2.7088001 0.273085,4.06736178 0.06354,3.15934772 -0.14594,5.43955922 -0.608401,8.56489602 -0.392553,2.6527663 -0.930201,5.4122993 -1.754141,7.9733063 -0.373432,1.160705 -0.875105,2.276165 -1.312659,3.414246 -0.518163,0.929264 -0.97372,1.896319 -1.554502,2.787791 -0.556709,0.854539 -1.195411,1.654876 -1.849576,2.437336 -2.679186,3.204667 -5.981265,5.768203 -9.640291,7.764806 -2.434635,1.110627 -3.302105,1.644285 -5.899839,2.289309 -4.032749,1.001342 -7.562451,0.74988 -11.516752,-0.421909 -0.994192,-0.406476 -1.941974,-0.953367 -2.98258,-1.219421 -0.393924,-0.100714 1.334025,0.929607 0.991596,0.710378 C 11.717441,33.389993 10.667145,32.759053 9.6950727,32.019689 8.7466034,31.298272 7.8298213,30.526776 6.996251,29.675192 5.182823,27.822582 4.4261023,26.429886 3.0314152,24.284008 2.6032077,23.358316 2.1229864,22.454949 1.7467928,21.506928 0.13592483,17.44746 -0.59291172,12.992249 -0.47299929,8.6313821 -0.43814407,7.363429 -0.26966221,6.1026823 -0.16799554,4.8383306 0.08527455,3.5492664 0.26572598,2.2437309 0.59182222,0.9711342 2.0038174,-4.5391815 4.5813855,-9.8112676 7.9236204,-14.403408 c 0.8404928,-1.154813 1.7931649,-2.223651 2.6897476,-3.335477 0.893276,-0.846223 1.733903,-1.751742 2.679828,-2.53867 2.068682,-1.72097 5.20752,-3.61396 7.953118,-3.967055 0.241095,-0.03101 0.486158,0.0011 0.729236,0.0015 z" />
      <path
         id="path80"
         style="display:inline;fill:#1a1a1a;fill-opacity:1;stroke:none;stroke-width:0.747164;stroke-linecap:square;stroke-opacity:1;paint-order:stroke fill markers"
         d="m 21.185097,35.820276 c 0.172352,5.821764 0.236377,11.64839 0.284561,17.472078 0.115613,12.741243 0.128743,25.483738 0.005,38.224981 -0.049,6.476384 -0.150002,12.951025 -0.313018,19.425505 l 4.768916,2.43049 c -0.161552,-6.58086 -0.263667,-13.16254 -0.313017,-19.745218 -0.122476,-12.739491 -0.111852,-25.480484 0.005,-38.21996 0.05433,-6.511274 0.127187,-13.025093 0.363235,-19.532638 H 25.661082 23.873366 22.708338 22.090672 21.52657 c -0.13412,0 -0.247356,-0.02087 -0.341473,-0.05524 z" />
      <path
         style="display:inline;fill:#1a1a1a;fill-opacity:1;stroke:none;stroke-width:0.747164;stroke-linecap:square;stroke-opacity:1;paint-order:stroke fill markers"
         id="path81"
         d="m 20.577867,108.38261 c -1.588464,6.29164 -4.161788,12.28128 -6.662324,18.25089 -3.27116,7.95396 -6.4335828,15.95002 -9.4751998,23.99442 -1.1464977,3.4163 -2.327436,6.81983 -3.50687254,10.2246 -0.33896985,1.10416 -0.68820952,2.19864 -0.84992953,3.34426 0,0 4.92759467,2.59003 4.92759467,2.59003 v 0 c 0.1274289,-1.12472 0.4464271,-2.2029 0.7266885,-3.29713 1.0078203,-3.47867 2.0758284,-6.94118 3.1399139,-10.4028 2.8221528,-8.12827 5.8542388,-16.18306 9.2166958,-24.10513 2.622226,-5.90843 5.21977,-11.84125 7.34416,-17.94959 z" />
      <path
         id="path82"
         style="fill:#1a1a1a;fill-opacity:1;stroke:none;stroke-width:0.747164;stroke-linecap:square;stroke-opacity:1;paint-order:stroke fill markers"
         d="m 21.309915,107.13006 c -4.1e-4,0.002 -0.0013,0.003 -0.0017,0.005 -9.18e-4,0.005 -0.0023,0.0101 -0.0033,0.0151 -0.007,0.0349 -0.01254,0.069 -0.02009,0.10378 -0.0064,0.0319 -0.01188,0.0633 -0.01674,0.0954 v 0.002 0.002 0.002 0.002 c 7.1e-5,0.001 1.6e-5,0.003 0,0.003 v 0.002 c -1.72e-4,0.0118 -0.0021,0.0234 -0.0033,0.0351 -0.0044,0.0308 -0.0088,0.0629 -0.01339,0.0937 v 0.005 c 7e-6,0.0235 -5e-6,0.0468 0,0.0703 3e-6,0.0194 -3e-6,0.0375 0,0.0569 l 0.0017,0.002 h 0.0017 v 0.002 0.002 c -1.81e-4,0.001 -0.0014,0.005 -0.0017,0.007 v 0.002 0.002 0.002 0.002 0.002 h -0.0017 v 0.002 0.0117 c 2e-6,0.0212 -2e-6,0.0424 0,0.0636 -6.55e-4,0.009 8.79e-4,0.0305 -0.0033,0.0418 -2.35e-4,0.0266 -6.15e-4,0.0521 -0.0017,0.0787 -0.0021,0.0387 -0.0052,0.0785 -0.0084,0.11717 v 0.005 c -1e-6,0.004 5e-6,0.006 0,0.01 v 0.002 0.002 c -1.71e-4,0.11297 6.36e-4,0.22682 0,0.3398 -7.71e-4,0.10787 -0.0019,0.21527 -0.0067,0.32306 -0.0046,0.0479 -4.23e-4,0.0671 -0.07532,0.0904 0.453537,1.04793 0.891655,2.10235 1.349151,3.14857 1.888145,4.31792 3.792193,8.62078 5.622578,12.96424 4.392359,11.24949 8.853672,22.47204 13.201927,33.73881 1.639476,4.28572 0.86318,2.27465 2.325026,6.0377 l 4.66679,2.15429 c -1.652791,-3.83922 -0.783115,-1.7878 -2.604564,-6.16157 -4.626554,-11.21378 -9.2015,-22.44853 -13.397772,-33.83255 -0.696503,-1.78684 -1.37681,-3.58081 -2.089008,-5.36145 -1.667872,-4.17004 -3.51377,-8.26915 -4.981481,-12.51731 z" />
      <path
         id="path88"
         style="fill:#1a1a1a;fill-opacity:1;stroke:none;stroke-width:0.747164;stroke-linecap:square;stroke-opacity:1;paint-order:stroke fill markers"
         d="m 21.175053,51.112947 c -0.241741,0.458367 -0.500817,0.908633 -0.724795,1.375939 -1.469067,3.065049 -2.751593,6.224513 -4.112751,9.336965 -1.650954,3.775097 -2.735871,6.124962 -4.464268,9.92785 -4.3693208,9.322099 -8.9605495,18.534638 -13.5986927,27.724661 -1.1696038,2.340778 -2.4116019,4.645338 -3.6407136,6.955018 l 4.59985332,2.61797 c 1.11111953,-2.37674 2.24512648,-4.74214 3.35949988,-7.11739 4.4322844,-9.301698 8.7487461,-18.660374 13.3124571,-27.898745 1.559952,-3.270787 3.101496,-6.549219 4.663462,-9.819047 1.600927,-3.351384 1.869071,-3.908536 3.44152,-6.95167 0.359539,-0.695804 0.699295,-1.403623 1.093051,-2.080647 0.127341,-0.218953 0.269721,-0.428457 0.415125,-0.636079 -0.001,-0.01628 -0.0024,-0.03232 -0.0033,-0.04854 -5.4e-5,-0.0066 5.8e-5,-0.01351 0,-0.02009 -0.01814,-0.01118 -0.03568,-0.02311 -0.05022,-0.0385 h -0.0017 c -0.0051,-0.01317 -0.0111,-0.08361 -0.01172,-0.09374 -0.0041,-0.06652 -0.0037,-0.132602 -0.005,-0.199193 0.0039,-0.07859 -0.0076,-0.159128 -0.0017,-0.237693 7.99e-4,-0.01057 1.39e-4,-0.0213 0.0017,-0.0318 l 0.0017,0.0017 h 0.0017 c 0.0069,-0.02818 0.02032,-0.05178 0.04854,-0.077 3.05e-4,-0.03082 0.0012,-0.06292 0.0017,-0.09374 2.19e-4,-0.01299 -5.6e-5,-0.02541 0,-0.0385 z" />
      <path
         id="path89"
         style="fill:#1a1a1a;fill-opacity:1;stroke:none;stroke-width:0.747164;stroke-linecap:square;stroke-opacity:1;paint-order:stroke fill markers"
         d="m 62.624734,29.468514 c -5.463341,2.629993 -10.948882,5.221423 -16.445916,7.780215 -4.42741,2.079665 -7.788748,3.649908 -12.20764,5.763184 -4.203036,2.01005 -8.43969,3.991555 -12.453701,6.365783 -7e-6,0.09844 -5e-6,0.19608 0,0.294603 0.01352,0.0052 0.02652,0.0098 0.04017,0.01339 0.01825,0.0843 0.01528,0.171999 0.01506,0.257779 -1.54e-4,0.198737 4.55e-4,0.397166 0,0.595903 -5.12e-4,0.174259 -9.34e-4,0.347936 -0.0033,0.522251 v 0.0017 l 3.312618,2.053857 c 0.453316,-0.332122 0.893278,-0.683431 1.359194,-0.997636 7.389401,-4.983117 15.616315,-8.65014 23.663706,-12.408505 5.097311,-2.344682 10.250684,-4.559397 15.411455,-6.759145 0.01108,-0.06743 0.02665,-0.13451 0.04017,-0.200866 0.04013,-0.179921 0.09398,-0.355915 0.152324,-0.530622 0.02417,-0.09645 0.04886,-0.193294 0.07365,-0.289582 0.0052,-0.03665 0.01062,-0.07233 0.01674,-0.108802 0.0035,-0.02125 0.0057,-0.03699 0.01172,-0.05691 0.003,-0.0095 0.0065,-0.0157 0.01004,-0.02009 l 0.0017,-0.0017 0.0017,-0.0017 0.0017,-0.0017 h 0.0017 l 0.0017,-0.0017 h 0.0017 0.0017 0.0017 c 0.0065,-0.02274 0.01363,-0.04586 0.02009,-0.06863 0.0033,-0.02844 0.0062,-0.05699 0.01004,-0.08537 0.0028,-0.01374 0.0096,-0.06669 0.01841,-0.08704 z" />
      <path
         style="fill:#1a1a1a;fill-opacity:1;stroke:none;stroke-width:0.747164;stroke-linecap:square;stroke-opacity:1;paint-order:stroke fill markers"
         id="path94"
         d="m 65.473253,33.002461 c 0.217567,-1.088335 0.421046,-2.178246 0.653246,-3.264011 0.186167,-0.870532 0.41115,-1.732995 0.575246,-2.607959 0.39655,-2.11449 1.202191,-7.508999 1.478709,-9.311066 C 69.379608,10.429168 70.74516,3.0516511 72.617113,-4.2019376 73.413336,-7.2871554 74.084245,-9.3741651 75,-12.367489 c 0,0 -3.744064,-2.034529 -3.744064,-2.034529 v 0 c -1.073544,4.5016623 -2.176822,9.0004966 -3.112575,13.53348379 -0.5381,2.60667011 -1.64155,8.64235831 -2.138971,11.18972221 -0.372772,1.908994 -0.768149,3.813505 -1.152217,5.720254 -0.924826,3.831557 -1.786871,7.586708 -3.103613,11.305925 -0.205086,0.579277 -0.453567,1.142295 -0.673745,1.715998 -0.485971,1.266171 -0.124253,0.437487 -0.514139,1.299151 z" />
    </g>
  </g>
</svg>
